AnekBangla-CondensedExtraBold.ufo
<glyph name="exclam" format="2">
	<advance width="440"/>
	<unicode hex="0021"/>
	<outline>
		<contour>
			<point x="343" y="429" type="line"/>
			<point x="384" y="1278" type="line"/>
			<point x="56" y="1278" type="line"/>
			<point x="97" y="429" type="line"/>
		</contour>
		<contour>
			<point x="224" y="-28" type="curve" smooth="yes"/>
			<point x="329" y="-28"/>
			<point x="384" y="38"/>
			<point x="384" y="154" type="curve" smooth="yes"/>
			<point x="384" y="171" type="line" smooth="yes"/>
			<point x="384" y="285"/>
			<point x="329" y="353"/>
			<point x="224" y="353" type="curve" smooth="yes"/>
			<point x="115" y="353"/>
			<point x="64" y="285"/>
			<point x="64" y="171" type="curve" smooth="yes"/>
			<point x="64" y="154" type="line" smooth="yes"/>
			<point x="64" y="38"/>
			<point x="115" y="-28"/>
		</contour>
	</outline>
</glyph>
<glyph name="dollar" format="2">
	<advance width="719"/>
	<unicode hex="0024"/>
	<outline>
		<contour>
			<point x="481" y="1134" type="line"/>
			<point x="481" y="1434" type="line"/>
			<point x="215" y="1434" type="line"/>
			<point x="215" y="1134" type="line"/>
		</contour>
		<contour>
			<point x="481" y="-165" type="line"/>
			<point x="481" y="183" type="line"/>
			<point x="215" y="183" type="line"/>
			<point x="215" y="-165" type="line"/>
		</contour>
		<component base="S"/>
	</outline>
</glyph>
<glyph name="percent" format="2">
  <advance width="1201"/>
  <unicode hex="0025"/>
  <outline>
    <contour>
      <point x="228" y="0" type="line"/>
      <point x="423" y="0" type="line"/>
      <point x="971" y="1278" type="line"/>
      <point x="780" y="1278" type="line"/>
    </contour>
    <contour>
      <point x="918" y="-24" type="curve" smooth="yes"/>
      <point x="1080" y="-24"/>
      <point x="1159" y="68"/>
      <point x="1159" y="234" type="curve" smooth="yes"/>
      <point x="1159" y="389" type="line" smooth="yes"/>
      <point x="1159" y="555"/>
      <point x="1080" y="647"/>
      <point x="918" y="647" type="curve" smooth="yes"/>
      <point x="756" y="647"/>
      <point x="677" y="555"/>
      <point x="677" y="389" type="curve" smooth="yes"/>
      <point x="677" y="234" type="line" smooth="yes"/>
      <point x="677" y="68"/>
      <point x="756" y="-24"/>
    </contour>
    <contour>
      <point x="918" y="134" type="curve" smooth="yes"/>
      <point x="881" y="134"/>
      <point x="868" y="162"/>
      <point x="868" y="224" type="curve" smooth="yes"/>
      <point x="868" y="398" type="line" smooth="yes"/>
      <point x="868" y="461"/>
      <point x="881" y="489"/>
      <point x="918" y="489" type="curve" smooth="yes"/>
      <point x="955" y="489"/>
      <point x="968" y="461"/>
      <point x="968" y="398" type="curve" smooth="yes"/>
      <point x="968" y="224" type="line" smooth="yes"/>
      <point x="968" y="162"/>
      <point x="955" y="134"/>
    </contour>
    <contour>
      <point x="283" y="628" type="curve" smooth="yes"/>
      <point x="445" y="628"/>
      <point x="524" y="720"/>
      <point x="524" y="885" type="curve" smooth="yes"/>
      <point x="524" y="1041" type="line" smooth="yes"/>
      <point x="524" y="1206"/>
      <point x="445" y="1298"/>
      <point x="283" y="1298" type="curve" smooth="yes"/>
      <point x="121" y="1298"/>
      <point x="42" y="1206"/>
      <point x="42" y="1041" type="curve" smooth="yes"/>
      <point x="42" y="885" type="line" smooth="yes"/>
      <point x="42" y="720"/>
      <point x="121" y="628"/>
    </contour>
    <contour>
      <point x="283" y="786" type="curve" smooth="yes"/>
      <point x="246" y="786"/>
      <point x="234" y="813"/>
      <point x="234" y="876" type="curve" smooth="yes"/>
      <point x="234" y="1050" type="line" smooth="yes"/>
      <point x="234" y="1113"/>
      <point x="246" y="1140"/>
      <point x="283" y="1140" type="curve" smooth="yes"/>
      <point x="320" y="1140"/>
      <point x="333" y="1113"/>
      <point x="333" y="1050" type="curve" smooth="yes"/>
      <point x="333" y="876" type="line" smooth="yes"/>
      <point x="333" y="813"/>
      <point x="320" y="786"/>
    </contour>
  </outline>
</glyph>
<glyph name="ampersand" format="2">
  <advance width="1054"/>
  <unicode hex="0026"/>
  <outline>
    <contour>
      <point x="765" y="1" type="curve"/>
      <point x="1072" y="1" type="line"/>
      <point x="1072" y="20" type="line"/>
      <point x="960" y="185"/>
      <point x="883" y="298"/>
      <point x="782" y="429" type="curve" smooth="yes"/>
      <point x="726" y="502" type="line"/>
      <point x="506" y="805" type="line" smooth="yes"/>
      <point x="461" y="867"/>
      <point x="440" y="904"/>
      <point x="440" y="944" type="curve" smooth="yes"/>
      <point x="440" y="947" type="line" smooth="yes"/>
      <point x="440" y="1001"/>
      <point x="478" y="1028"/>
      <point x="549" y="1028" type="curve" smooth="yes"/>
      <point x="622" y="1028"/>
      <point x="684" y="1009"/>
      <point x="727" y="991" type="curve"/>
      <point x="714" y="1247" type="line"/>
      <point x="653" y="1276"/>
      <point x="563" y="1300"/>
      <point x="447" y="1300" type="curve" smooth="yes"/>
      <point x="244" y="1300"/>
      <point x="118" y="1183"/>
      <point x="118" y="1003" type="curve" smooth="yes"/>
      <point x="118" y="994" type="line" smooth="yes"/>
      <point x="118" y="875"/>
      <point x="160" y="800"/>
      <point x="243" y="690" type="curve" smooth="yes"/>
      <point x="291" y="626" type="line"/>
      <point x="570" y="256" type="line"/>
      <point x="609" y="219" type="line"/>
      <point x="659" y="151"/>
      <point x="715" y="74"/>
    </contour>
    <contour>
      <point x="399" y="-22" type="curve" smooth="yes"/>
      <point x="565" y="-22"/>
      <point x="645" y="42"/>
      <point x="711" y="147" type="curve"/>
      <point x="846" y="279" type="line"/>
      <point x="957" y="426"/>
      <point x="998" y="626"/>
      <point x="1005" y="832" type="curve"/>
      <point x="723" y="832" type="line"/>
      <point x="723" y="705"/>
      <point x="709" y="569"/>
      <point x="660" y="469" type="curve"/>
      <point x="561" y="323" type="line"/>
      <point x="542" y="277"/>
      <point x="510" y="246"/>
      <point x="438" y="246" type="curve" smooth="yes"/>
      <point x="363" y="246"/>
      <point x="327" y="295"/>
      <point x="327" y="378" type="curve" smooth="yes"/>
      <point x="327" y="417" type="line" smooth="yes"/>
      <point x="327" y="480"/>
      <point x="334" y="519"/>
      <point x="377" y="545" type="curve"/>
      <point x="226" y="766" type="line"/>
      <point x="90" y="683"/>
      <point x="36" y="575"/>
      <point x="36" y="412" type="curve" smooth="yes"/>
      <point x="36" y="361" type="line" smooth="yes"/>
      <point x="36" y="113"/>
      <point x="157" y="-22"/>
    </contour>
  </outline>
</glyph>
<glyph name="quotesingle" format="2">
  <advance width="358"/>
  <unicode hex="0027"/>
  <outline>
    <contour>
      <point x="292" y="824" type="line"/>
      <point x="320" y="1324" type="line"/>
      <point x="38" y="1324" type="line"/>
      <point x="66" y="824" type="line"/>
    </contour>
  </outline>
</glyph>
<glyph name="parenleft" format="2">
	<advance width="518"/>
	<unicode hex="0028"/>
	<outline>
		<contour>
			<point x="357" y="513" type="curve" smooth="yes"/>
			<point x="357" y="598" type="line"/>
			<point x="357" y="911"/>
			<point x="418" y="1132"/>
			<point x="521" y="1352" type="curve"/>
			<point x="218" y="1352" type="line"/>
			<point x="123" y="1163"/>
			<point x="62" y="935"/>
			<point x="62" y="607" type="curve" smooth="yes"/>
			<point x="62" y="504" type="line" smooth="yes"/>
			<point x="62" y="175"/>
			<point x="123" y="-50"/>
			<point x="218" y="-239" type="curve"/>
			<point x="521" y="-239" type="line"/>
			<point x="418" y="-24"/>
			<point x="357" y="197"/>
		</contour>
	</outline>
</glyph>
<glyph name="parenright" format="2">
	<advance width="518"/>
	<unicode hex="0029"/>
	<outline>
		<contour>
			<point x="161" y="598" type="curve" smooth="yes"/>
			<point x="161" y="513" type="line" smooth="yes"/>
			<point x="161" y="197"/>
			<point x="100" y="-24"/>
			<point x="-3" y="-239" type="curve"/>
			<point x="300" y="-239" type="line"/>
			<point x="395" y="-50"/>
			<point x="456" y="175"/>
			<point x="456" y="504" type="curve" smooth="yes"/>
			<point x="456" y="607" type="line" smooth="yes"/>
			<point x="456" y="935"/>
			<point x="395" y="1163"/>
			<point x="300" y="1352" type="curve"/>
			<point x="-3" y="1352" type="line"/>
			<point x="100" y="1132"/>
			<point x="161" y="911"/>
		</contour>
	</outline>
</glyph>
<glyph name="asterisk" format="2">
	<advance width="654"/>
	<unicode hex="002A"/>
	<outline>
		<contour>
			<point x="248" y="649" type="line"/>
			<point x="324" y="803" type="line"/>
			<point x="330" y="803" type="line"/>
			<point x="406" y="649" type="line"/>
			<point x="600" y="777" type="line"/>
			<point x="487" y="903" type="line"/>
			<point x="488" y="910" type="line"/>
			<point x="631" y="928" type="line"/>
			<point x="579" y="1167" type="line"/>
			<point x="430" y="1109" type="line"/>
			<point x="426" y="1113" type="line"/>
			<point x="458" y="1278" type="line"/>
			<point x="196" y="1278" type="line"/>
			<point x="227" y="1113" type="line"/>
			<point x="223" y="1109" type="line"/>
			<point x="75" y="1167" type="line"/>
			<point x="23" y="928" type="line"/>
			<point x="166" y="910" type="line"/>
			<point x="168" y="903" type="line"/>
			<point x="54" y="777" type="line"/>
		</contour>
	</outline>
</glyph>
<glyph name="hyphen" format="2">
  <advance width="567"/>
  <unicode hex="002D"/>
  <outline>
    <contour>
      <point x="63" y="368" type="line"/>
      <point x="504" y="368" type="line"/>
      <point x="504" y="626" type="line"/>
      <point x="63" y="626" type="line"/>
    </contour>
  </outline>
</glyph>
<glyph name="period" format="2">
	<advance width="400"/>
	<unicode hex="002E"/>
	<outline>
		<contour>
			<point x="200" y="-26" type="curve" smooth="yes"/>
			<point x="305" y="-26"/>
			<point x="360" y="40"/>
			<point x="360" y="156" type="curve" smooth="yes"/>
			<point x="360" y="173" type="line" smooth="yes"/>
			<point x="360" y="287"/>
			<point x="305" y="355"/>
			<point x="200" y="355" type="curve" smooth="yes"/>
			<point x="91" y="355"/>
			<point x="40" y="287"/>
			<point x="40" y="173" type="curve" smooth="yes"/>
			<point x="40" y="156" type="line" smooth="yes"/>
			<point x="40" y="40"/>
			<point x="91" y="-26"/>
		</contour>
	</outline>
</glyph>
<glyph name="one" format="2">
	<advance width="596"/>
	<unicode hex="0031"/>
	<outline>
		<contour>
			<point x="208" y="0" type="line"/>
			<point x="524" y="0" type="line"/>
			<point x="524" y="1278" type="line"/>
			<point x="268" y="1278" type="line"/>
			<point x="26" y="1154" type="line"/>
			<point x="18" y="825" type="line"/>
			<point x="193" y="918" type="line"/>
			<point x="208" y="918" type="line"/>
		</contour>
	</outline>
</glyph>
<glyph name="two" format="2">
	<advance width="707"/>
	<unicode hex="0032"/>
	<outline>
		<contour>
			<point x="34" y="0" type="line"/>
			<point x="673" y="0" type="line"/>
			<point x="673" y="283" type="line"/>
			<point x="213" y="283" type="line"/>
			<point x="356" y="246" type="line"/>
			<point x="356" y="294" type="line"/>
			<point x="489" y="485" type="line" smooth="yes"/>
			<point x="603" y="648"/>
			<point x="670" y="767"/>
			<point x="670" y="921" type="curve" smooth="yes"/>
			<point x="670" y="947" type="line" smooth="yes"/>
			<point x="670" y="1160"/>
			<point x="555" y="1298"/>
			<point x="323" y="1298" type="curve" smooth="yes"/>
			<point x="204" y="1298"/>
			<point x="118" y="1263"/>
			<point x="63" y="1225" type="curve"/>
			<point x="45" y="955" type="line"/>
			<point x="92" y="984"/>
			<point x="151" y="1015"/>
			<point x="225" y="1015" type="curve" smooth="yes"/>
			<point x="309" y="1015"/>
			<point x="352" y="975"/>
			<point x="352" y="895" type="curve" smooth="yes"/>
			<point x="352" y="878" type="line" smooth="yes"/>
			<point x="352" y="813"/>
			<point x="323" y="759"/>
			<point x="252" y="647" type="curve" smooth="yes"/>
			<point x="34" y="305" type="line"/>
		</contour>
	</outline>
</glyph>
<glyph name="six" format="2">
  <advance width="848"/>
  <unicode hex="0036"/>
  <outline>
    <contour>
      <point x="428" y="-20" type="curve" smooth="yes"/>
      <point x="682" y="-20"/>
      <point x="806" y="121"/>
      <point x="806" y="397" type="curve" smooth="yes"/>
      <point x="806" y="463" type="line" smooth="yes"/>
      <point x="806" y="709"/>
      <point x="747" y="847"/>
      <point x="578" y="847" type="curve" smooth="yes"/>
      <point x="434" y="847"/>
      <point x="386" y="747"/>
      <point x="373" y="646" type="curve"/>
      <point x="319" y="646" type="line"/>
      <point x="358" y="511" type="line"/>
      <point x="365" y="561"/>
      <point x="389" y="591"/>
      <point x="435" y="591" type="curve" smooth="yes"/>
      <point x="489" y="591"/>
      <point x="505" y="550"/>
      <point x="505" y="458" type="curve" smooth="yes"/>
      <point x="505" y="390" type="line"/>
      <point x="505" y="289"/>
      <point x="489" y="247"/>
      <point x="434" y="247" type="curve" smooth="yes"/>
      <point x="378" y="247"/>
      <point x="362" y="289"/>
      <point x="362" y="390" type="curve"/>
      <point x="362" y="792" type="line" smooth="yes"/>
      <point x="362" y="956"/>
      <point x="418" y="1017"/>
      <point x="551" y="1017" type="curve" smooth="yes"/>
      <point x="636" y="1017"/>
      <point x="699" y="993"/>
      <point x="747" y="971" type="curve"/>
      <point x="725" y="1245" type="line"/>
      <point x="675" y="1269"/>
      <point x="588" y="1297"/>
      <point x="471" y="1297" type="curve" smooth="yes"/>
      <point x="192" y="1297"/>
      <point x="52" y="1129"/>
      <point x="52" y="817" type="curve"/>
      <point x="52" y="407" type="line"/>
      <point x="52" y="121"/>
      <point x="176" y="-20"/>
    </contour>
  </outline>
</glyph>
<glyph name="seven" format="2">
  <advance width="705"/>
  <unicode hex="0037"/>
  <outline>
    <contour>
      <point x="85" y="0" type="line"/>
      <point x="411" y="0" type="line"/>
      <point x="667" y="981" type="line"/>
      <point x="667" y="1278" type="line"/>
      <point x="28" y="1278" type="line"/>
      <point x="28" y="994" type="line"/>
      <point x="353" y="994" type="line"/>
    </contour>
  </outline>
</glyph>
<glyph name="less" format="2">
	<advance width="733"/>
	<unicode hex="003C"/>
	<outline>
		<contour>
			<point x="248" y="645" type="line"/>
			<point x="678" y="711" type="line"/>
			<point x="678" y="966" type="line"/>
			<point x="53" y="837" type="line"/>
			<point x="53" y="438" type="line"/>
			<point x="678" y="309" type="line"/>
			<point x="678" y="564" type="line"/>
			<point x="248" y="629" type="line"/>
		</contour>
	</outline>
</glyph>
<glyph name="B" format="2">
	<advance width="868"/>
	<unicode hex="0042"/>
	<anchor x="434" y="1278" name="top"/>
	<anchor x="434" y="0" name="bottom"/>
	<outline>
		<contour>
			<point x="300" y="0" type="line"/>
			<point x="457" y="0" type="line" smooth="yes"/>
			<point x="722" y="0"/>
			<point x="834" y="112"/>
			<point x="834" y="359" type="curve" smooth="yes"/>
			<point x="834" y="400" type="line" smooth="yes"/>
			<point x="834" y="568"/>
			<point x="782" y="666"/>
			<point x="596" y="693" type="curve"/>
			<point x="596" y="702" type="line"/>
			<point x="759" y="715"/>
			<point x="822" y="798"/>
			<point x="822" y="945" type="curve" smooth="yes"/>
			<point x="822" y="973" type="line" smooth="yes"/>
			<point x="822" y="1170"/>
			<point x="703" y="1278"/>
			<point x="433" y="1278" type="curve" smooth="yes"/>
			<point x="286" y="1278" type="line"/>
			<point x="286" y="1019" type="line"/>
			<point x="424" y="1019" type="line" smooth="yes"/>
			<point x="492" y="1019"/>
			<point x="519" y="984"/>
			<point x="519" y="903" type="curve" smooth="yes"/>
			<point x="519" y="881" type="line" smooth="yes"/>
			<point x="519" y="800"/>
			<point x="492" y="765"/>
			<point x="424" y="765" type="curve" smooth="yes"/>
			<point x="286" y="765" type="line"/>
			<point x="286" y="529" type="line"/>
			<point x="427" y="529" type="line" smooth="yes"/>
			<point x="501" y="529"/>
			<point x="527" y="494"/>
			<point x="527" y="415" type="curve" smooth="yes"/>
			<point x="527" y="375" type="line" smooth="yes"/>
			<point x="527" y="296"/>
			<point x="501" y="261"/>
			<point x="427" y="261" type="curve" smooth="yes"/>
			<point x="300" y="261" type="line"/>
		</contour>
		<contour>
			<point x="74" y="0" type="line"/>
			<point x="374" y="0" type="line"/>
			<point x="374" y="1278" type="line"/>
			<point x="74" y="1278" type="line"/>
		</contour>
	</outline>
</glyph>
<glyph name="C" format="2">
  <advance width="674"/>
  <unicode hex="0043"/>
  <anchor x="382" y="0" name="bottom"/>
  <anchor x="382" y="1278" name="top"/>
  <outline>
    <contour>
      <point x="414" y="-22" type="curve" smooth="yes"/>
      <point x="508" y="-22"/>
      <point x="583" y="6"/>
      <point x="623" y="33" type="curve"/>
      <point x="642" y="316" type="line"/>
      <point x="611" y="294"/>
      <point x="572" y="276"/>
      <point x="515" y="276" type="curve" smooth="yes"/>
      <point x="412" y="276"/>
      <point x="377" y="340"/>
      <point x="377" y="449" type="curve" smooth="yes"/>
      <point x="377" y="829" type="line" smooth="yes"/>
      <point x="377" y="940"/>
      <point x="408" y="1006"/>
      <point x="506" y="1006" type="curve" smooth="yes"/>
      <point x="561" y="1006"/>
      <point x="601" y="987"/>
      <point x="634" y="965" type="curve"/>
      <point x="616" y="1245" type="line"/>
      <point x="577" y="1273"/>
      <point x="508" y="1300"/>
      <point x="412" y="1300" type="curve" smooth="yes"/>
      <point x="174" y="1300"/>
      <point x="55" y="1151"/>
      <point x="55" y="855" type="curve" smooth="yes"/>
      <point x="55" y="429" type="line" smooth="yes"/>
      <point x="55" y="129"/>
      <point x="165" y="-22"/>
    </contour>
  </outline>
</glyph>
<glyph name="G" format="2">
	<advance width="861"/>
	<unicode hex="0047"/>
	<anchor x="431" y="1278" name="top"/>
	<anchor x="431" y="0" name="bottom"/>
	<outline>
		<contour>
			<point x="318" y="-22" type="curve" smooth="yes"/>
			<point x="470" y="-22"/>
			<point x="509" y="74"/>
			<point x="530" y="190" type="curve"/>
			<point x="796" y="190" type="line"/>
			<point x="796" y="763" type="line"/>
			<point x="452" y="763" type="line"/>
			<point x="452" y="524" type="line"/>
			<point x="579" y="524" type="line"/>
			<point x="530" y="638" type="line"/>
			<point x="530" y="329" type="line"/>
			<point x="519" y="289"/>
			<point x="496" y="261"/>
			<point x="449" y="261" type="curve" smooth="yes"/>
			<point x="393" y="261"/>
			<point x="368" y="300"/>
			<point x="368" y="385" type="curve" smooth="yes"/>
			<point x="368" y="811" type="line" smooth="yes"/>
			<point x="368" y="949"/>
			<point x="423" y="1015"/>
			<point x="570" y="1015" type="curve" smooth="yes"/>
			<point x="657" y="1015"/>
			<point x="728" y="982"/>
			<point x="774" y="951" type="curve"/>
			<point x="752" y="1230" type="line"/>
			<point x="701" y="1265"/>
			<point x="600" y="1300"/>
			<point x="485" y="1300" type="curve" smooth="yes"/>
			<point x="206" y="1300"/>
			<point x="55" y="1148"/>
			<point x="55" y="831" type="curve" smooth="yes"/>
			<point x="55" y="399" type="line" smooth="yes"/>
			<point x="55" y="136"/>
			<point x="121" y="-22"/>
		</contour>
		<contour>
			<point x="542" y="214" type="line"/>
			<point x="533" y="0" type="line"/>
			<point x="796" y="0" type="line"/>
			<point x="796" y="214" type="line"/>
		</contour>
	</outline>
</glyph>
<glyph name="H" format="2">
	<advance width="939"/>
	<unicode hex="0048"/>
	<anchor x="470" y="639" name="center"/>
	<anchor x="470" y="1278" name="top"/>
	<anchor x="20" y="1278" name="topleft"/>
	<anchor x="470" y="0" name="bottom"/>
	<outline>
		<contour>
			<point x="394" y="0" type="line"/>
			<point x="394" y="1278" type="line"/>
			<point x="74" y="1278" type="line"/>
			<point x="74" y="0" type="line"/>
		</contour>
		<contour>
			<point x="865" y="0" type="line"/>
			<point x="865" y="1278" type="line"/>
			<point x="545" y="1278" type="line"/>
			<point x="545" y="0" type="line"/>
		</contour>
		<contour>
			<point x="284" y="787" type="line"/>
			<point x="284" y="511" type="line"/>
			<point x="642" y="511" type="line"/>
			<point x="642" y="787" type="line"/>
		</contour>
	</outline>
</glyph>
<glyph name="K" format="2">
  <advance width="896"/>
  <unicode hex="004B"/>
  <anchor x="472" y="0" name="bottom"/>
  <anchor x="472" y="1278" name="top"/>
  <outline>
    <contour>
      <point x="573" y="0" type="line"/>
      <point x="900" y="0" type="line"/>
      <point x="672" y="719" type="line"/>
      <point x="672" y="650" type="line"/>
      <point x="887" y="1278" type="line"/>
      <point x="563" y="1278" type="line"/>
      <point x="403" y="744" type="line"/>
      <point x="375" y="744" type="line"/>
      <point x="375" y="563" type="line"/>
      <point x="403" y="563" type="line"/>
    </contour>
    <contour>
      <point x="74" y="0" type="line"/>
      <point x="386" y="0" type="line"/>
      <point x="386" y="1278" type="line"/>
      <point x="74" y="1278" type="line"/>
    </contour>
  </outline>
</glyph>
<glyph name="L" format="2">
  <advance width="675"/>
  <unicode hex="004C"/>
  <anchor x="343" y="0" name="bottom"/>
  <anchor x="236" y="639" name="center"/>
  <anchor x="234" y="1278" name="top"/>
  <anchor x="464" y="1278" name="topright"/>
  <outline>
    <contour>
      <point x="394" y="0" type="line"/>
      <point x="394" y="1278" type="line"/>
      <point x="74" y="1278" type="line"/>
      <point x="74" y="0" type="line"/>
    </contour>
    <contour>
      <point x="284" y="285" type="line"/>
      <point x="284" y="0" type="line"/>
      <point x="639" y="0" type="line"/>
      <point x="639" y="285" type="line"/>
    </contour>
  </outline>
</glyph>
<glyph name="M" format="2">
	<advance width="1233"/>
	<unicode hex="004D"/>
	<anchor x="617" y="1278" name="top"/>
	<anchor x="617" y="0" name="bottom"/>
	<outline>
		<contour>
			<point x="72" y="0" type="line"/>
			<point x="363" y="0" type="line"/>
			<point x="363" y="289" type="line"/>
			<point x="355" y="875" type="line"/>
			<point x="366" y="875" type="line"/>
			<point x="493" y="147" type="line"/>
			<point x="740" y="147" type="line"/>
			<point x="867" y="875" type="line"/>
			<point x="878" y="875" type="line"/>
			<point x="870" y="289" type="line"/>
			<point x="870" y="0" type="line"/>
			<point x="1161" y="0" type="line"/>
			<point x="1152" y="1278" type="line"/>
			<point x="736" y="1278" type="line"/>
			<point x="623" y="574" type="line"/>
			<point x="614" y="574" type="line"/>
			<point x="497" y="1278" type="line"/>
			<point x="81" y="1278" type="line"/>
		</contour>
	</outline>
</glyph>
<glyph name="P" format="2">
	<advance width="866"/>
	<unicode hex="0050"/>
	<anchor x="433" y="1278" name="top"/>
	<anchor x="433" y="0" name="bottom"/>
	<outline>
		<contour>
			<point x="269" y="341" type="line"/>
			<point x="440" y="341" type="line" smooth="yes"/>
			<point x="713" y="341"/>
			<point x="828" y="465"/>
			<point x="828" y="737" type="curve" smooth="yes"/>
			<point x="828" y="881" type="line" smooth="yes"/>
			<point x="828" y="1142"/>
			<point x="713" y="1278"/>
			<point x="436" y="1278" type="curve" smooth="yes"/>
			<point x="269" y="1278" type="line"/>
			<point x="269" y="1011" type="line"/>
			<point x="425" y="1011" type="line" smooth="yes"/>
			<point x="497" y="1011"/>
			<point x="517" y="975"/>
			<point x="517" y="877" type="curve" smooth="yes"/>
			<point x="517" y="741" type="line" smooth="yes"/>
			<point x="517" y="643"/>
			<point x="497" y="608"/>
			<point x="425" y="608" type="curve" smooth="yes"/>
			<point x="269" y="608" type="line"/>
		</contour>
		<contour>
			<point x="74" y="0" type="line"/>
			<point x="383" y="0" type="line"/>
			<point x="383" y="378" type="line"/>
			<point x="381" y="533" type="line"/>
			<point x="381" y="1278" type="line"/>
			<point x="74" y="1278" type="line"/>
		</contour>
	</outline>
</glyph>
<glyph name="T" format="2">
  <advance width="766"/>
  <unicode hex="0054"/>
  <anchor x="383" y="0" name="bottom"/>
  <anchor x="383" y="639" name="center"/>
  <anchor x="383" y="1278" name="top"/>
  <outline>
    <contour>
      <point x="223" y="0" type="line"/>
      <point x="543" y="0" type="line"/>
      <point x="543" y="1278" type="line"/>
      <point x="223" y="1278" type="line"/>
    </contour>
    <contour>
      <point x="30" y="993" type="line"/>
      <point x="736" y="993" type="line"/>
      <point x="736" y="1278" type="line"/>
      <point x="30" y="1278" type="line"/>
    </contour>
  </outline>
</glyph>
<glyph name="V" format="2">
  <advance width="878"/>
  <unicode hex="0056"/>
  <anchor x="439" y="0" name="bottom"/>
  <anchor x="439" y="1278" name="top"/>
  <outline>
    <contour>
      <point x="188" y="0" type="line"/>
      <point x="690" y="0" type="line"/>
      <point x="860" y="1278" type="line"/>
      <point x="543" y="1278" type="line"/>
      <point x="449" y="226" type="line"/>
      <point x="429" y="226" type="line"/>
      <point x="335" y="1278" type="line"/>
      <point x="18" y="1278" type="line"/>
    </contour>
  </outline>
</glyph>
<glyph name="W" format="2">
	<advance width="1298"/>
	<unicode hex="0057"/>
	<anchor x="649" y="1278" name="top"/>
	<anchor x="649" y="0" name="bottom"/>
	<outline>
		<contour>
			<point x="148" y="0" type="line"/>
			<point x="578" y="0" type="line"/>
			<point x="641" y="879" type="line"/>
			<point x="645" y="995" type="line"/>
			<point x="656" y="995" type="line"/>
			<point x="659" y="879" type="line"/>
			<point x="724" y="0" type="line"/>
			<point x="1154" y="0" type="line"/>
			<point x="1272" y="1278" type="line"/>
			<point x="959" y="1278" type="line"/>
			<point x="908" y="355" type="line"/>
			<point x="904" y="265" type="line"/>
			<point x="893" y="265" type="line"/>
			<point x="887" y="355" type="line"/>
			<point x="814" y="1260" type="line"/>
			<point x="486" y="1260" type="line"/>
			<point x="411" y="355" type="line"/>
			<point x="405" y="265" type="line"/>
			<point x="394" y="265" type="line"/>
			<point x="391" y="355" type="line"/>
			<point x="343" y="1278" type="line"/>
			<point x="26" y="1278" type="line"/>
		</contour>
	</outline>
</glyph>
<glyph name="Z" format="2">
	<advance width="745"/>
	<unicode hex="005A"/>
	<anchor x="373" y="639" name="center"/>
	<anchor x="373" y="0" name="bottom"/>
	<anchor x="373" y="1278" name="top"/>
	<outline>
		<contour>
			<point x="703" y="287" type="line"/>
			<point x="357" y="287" type="line"/>
			<point x="695" y="1021" type="line"/>
			<point x="695" y="1278" type="line"/>
			<point x="46" y="1278" type="line"/>
			<point x="46" y="993" type="line"/>
			<point x="375" y="993" type="line"/>
			<point x="40" y="259" type="line"/>
			<point x="40" y="0" type="line"/>
			<point x="703" y="0" type="line"/>
		</contour>
	</outline>
</glyph>
<glyph name="bracketleft" format="2">
  <advance width="528"/>
  <unicode hex="005B"/>
  <outline>
    <contour>
      <point x="78" y="-239" type="line"/>
      <point x="496" y="-239" type="line"/>
      <point x="496" y="0" type="line"/>
      <point x="373" y="0" type="line"/>
      <point x="373" y="1113" type="line"/>
      <point x="496" y="1113" type="line"/>
      <point x="496" y="1352" type="line"/>
      <point x="78" y="1352" type="line"/>
    </contour>
  </outline>
</glyph>
<glyph name="backslash" format="2">
  <advance width="612"/>
  <unicode hex="005C"/>
  <outline>
    <contour>
      <point x="612" y="-239" type="line"/>
      <point x="271" y="1352" type="line"/>
      <point x="0" y="1352" type="line"/>
      <point x="341" y="-239" type="line"/>
    </contour>
  </outline>
</glyph>
<glyph name="asciicircum" format="2">
	<advance width="680"/>
	<unicode hex="005E"/>
	<outline>
		<contour>
			<point x="139" y="1278" type="line"/>
			<point x="10" y="618" type="line"/>
			<point x="254" y="618" type="line"/>
			<point x="336" y="1127" type="line"/>
			<point x="344" y="1127" type="line"/>
			<point x="426" y="618" type="line"/>
			<point x="670" y="618" type="line"/>
			<point x="540" y="1278" type="line"/>
		</contour>
	</outline>
</glyph>
<glyph name="d" format="2">
	<advance width="866"/>
	<unicode hex="0064"/>
	<anchor x="433" y="503" name="center"/>
	<anchor x="433" y="1324" name="top"/>
	<anchor x="871" y="1324" name="topright"/>
	<anchor x="433" y="0" name="bottom"/>
	<outline>
		<contour>
			<point x="279" y="-15" type="curve" smooth="yes"/>
			<point x="423" y="-15"/>
			<point x="472" y="79"/>
			<point x="491" y="190" type="curve"/>
			<point x="540" y="190" type="line"/>
			<point x="496" y="305" type="line"/>
			<point x="487" y="269"/>
			<point x="463" y="245"/>
			<point x="428" y="245" type="curve" smooth="yes"/>
			<point x="377" y="245"/>
			<point x="362" y="285"/>
			<point x="362" y="372" type="curve" smooth="yes"/>
			<point x="362" y="644" type="line" smooth="yes"/>
			<point x="362" y="729"/>
			<point x="377" y="769"/>
			<point x="426" y="769" type="curve" smooth="yes"/>
			<point x="476" y="769"/>
			<point x="494" y="730"/>
			<point x="494" y="655" type="curve"/>
			<point x="549" y="821" type="line"/>
			<point x="483" y="821" type="line"/>
			<point x="461" y="937"/>
			<point x="415" y="1021"/>
			<point x="283" y="1021" type="curve" smooth="yes"/>
			<point x="110" y="1021"/>
			<point x="51" y="881"/>
			<point x="51" y="607" type="curve" smooth="yes"/>
			<point x="51" y="381" type="line" smooth="yes"/>
			<point x="51" y="123"/>
			<point x="112" y="-15"/>
		</contour>
		<contour>
			<point x="492" y="0" type="line"/>
			<point x="800" y="0" type="line"/>
			<point x="800" y="1324" type="line"/>
			<point x="491" y="1324" type="line"/>
			<point x="491" y="1106" type="line"/>
			<point x="494" y="802" type="line"/>
			<point x="494" y="760" type="line"/>
			<point x="494" y="263" type="line"/>
			<point x="503" y="226" type="line"/>
		</contour>
	</outline>
</glyph>
<glyph name="g" format="2">
	<advance width="809"/>
	<unicode hex="0067"/>
	<anchor x="405" y="1006" name="top"/>
	<anchor x="405" y="-350" name="bottom"/>
	<outline>
		<contour>
			<point x="410" y="283" type="curve"/>
			<point x="642" y="283"/>
			<point x="754" y="398"/>
			<point x="754" y="571" type="curve" smooth="yes"/>
			<point x="754" y="583" type="line" smooth="yes"/>
			<point x="754" y="720"/>
			<point x="689" y="785"/>
			<point x="554" y="802" type="curve"/>
			<point x="554" y="812" type="line"/>
			<point x="790" y="803" type="line"/>
			<point x="790" y="1035" type="line"/>
			<point x="423" y="1018" type="line" smooth="yes"/>
			<point x="149" y="1005"/>
			<point x="39" y="871"/>
			<point x="39" y="656" type="curve" smooth="yes"/>
			<point x="39" y="613" type="line" smooth="yes"/>
			<point x="39" y="397"/>
			<point x="177" y="283"/>
		</contour>
		<contour>
			<point x="437" y="-133" type="curve" smooth="yes"/>
			<point x="387" y="-133" type="line"/>
			<point x="312" y="-133"/>
			<point x="286" y="-105"/>
			<point x="286" y="-66" type="curve" smooth="yes"/>
			<point x="286" y="-65" type="line" smooth="yes"/>
			<point x="286" y="-31"/>
			<point x="306" y="-8"/>
			<point x="345" y="2" type="curve"/>
			<point x="299" y="4" type="line"/>
			<point x="468" y="-27" type="line" smooth="yes"/>
			<point x="509" y="-35"/>
			<point x="540" y="-45"/>
			<point x="540" y="-80" type="curve" smooth="yes"/>
			<point x="540" y="-81" type="line" smooth="yes"/>
			<point x="540" y="-112"/>
			<point x="514" y="-133"/>
		</contour>
		<contour>
			<point x="368" y="-371" type="curve" smooth="yes"/>
			<point x="425" y="-371" type="line" smooth="yes"/>
			<point x="666" y="-371"/>
			<point x="809" y="-273"/>
			<point x="809" y="-94" type="curve" smooth="yes"/>
			<point x="809" y="-83" type="line" smooth="yes"/>
			<point x="809" y="79"/>
			<point x="730" y="149"/>
			<point x="550" y="192" type="curve" smooth="yes"/>
			<point x="388" y="231" type="line" smooth="yes"/>
			<point x="353" y="239"/>
			<point x="337" y="245"/>
			<point x="337" y="264" type="curve" smooth="yes"/>
			<point x="337" y="264" type="line" smooth="yes"/>
			<point x="337" y="279"/>
			<point x="349" y="287"/>
			<point x="370" y="287" type="curve"/>
			<point x="390" y="287" type="line"/>
			<point x="233" y="342" type="line"/>
			<point x="233" y="303" type="line"/>
			<point x="120" y="300"/>
			<point x="57" y="257"/>
			<point x="57" y="170" type="curve" smooth="yes"/>
			<point x="57" y="168" type="line" smooth="yes"/>
			<point x="57" y="92"/>
			<point x="105" y="48"/>
			<point x="210" y="28" type="curve"/>
			<point x="210" y="19" type="line"/>
			<point x="100" y="12"/>
			<point x="20" y="-37"/>
			<point x="20" y="-157" type="curve" smooth="yes"/>
			<point x="20" y="-161" type="line" smooth="yes"/>
			<point x="20" y="-305"/>
			<point x="147" y="-371"/>
		</contour>
		<contour>
			<point x="403" y="498" type="curve" smooth="yes"/>
			<point x="353" y="498"/>
			<point x="337" y="537"/>
			<point x="337" y="618" type="curve" smooth="yes"/>
			<point x="337" y="666" type="line" smooth="yes"/>
			<point x="337" y="749"/>
			<point x="353" y="786"/>
			<point x="401" y="786" type="curve" smooth="yes"/>
			<point x="403" y="786" type="line" smooth="yes"/>
			<point x="450" y="786"/>
			<point x="465" y="747"/>
			<point x="465" y="666" type="curve" smooth="yes"/>
			<point x="465" y="618" type="line" smooth="yes"/>
			<point x="465" y="537"/>
			<point x="450" y="498"/>
		</contour>
	</outline>
</glyph>
<glyph name="h" format="2">
	<advance width="873"/>
	<unicode hex="0068"/>
	<anchor x="437" y="667" name="center"/>
	<anchor x="437" y="0" name="bottom"/>
	<anchor x="221" y="1324" name="top"/>
	<outline>
		<contour>
			<point x="500" y="664" type="curve" smooth="yes"/>
			<point x="500" y="0" type="line"/>
			<point x="811" y="0" type="line"/>
			<point x="811" y="723" type="line" smooth="yes"/>
			<point x="811" y="920"/>
			<point x="748" y="1021"/>
			<point x="592" y="1021" type="curve" smooth="yes"/>
			<point x="448" y="1021"/>
			<point x="400" y="931"/>
			<point x="382" y="821" type="curve"/>
			<point x="299" y="821" type="line"/>
			<point x="375" y="701" type="line"/>
			<point x="382" y="736"/>
			<point x="406" y="762"/>
			<point x="441" y="762" type="curve" smooth="yes"/>
			<point x="487" y="762"/>
			<point x="500" y="730"/>
		</contour>
		<contour>
			<point x="66" y="0" type="line"/>
			<point x="377" y="0" type="line"/>
			<point x="377" y="725" type="line"/>
			<point x="371" y="782" type="line"/>
			<point x="375" y="1106" type="line"/>
			<point x="375" y="1324" type="line"/>
			<point x="66" y="1324" type="line"/>
		</contour>
	</outline>
</glyph>
<glyph name="j" format="2">
	<advance width="447"/>
	<unicode hex="006A"/>
	<outline>
		<contour>
			<point x="70" y="172" type="line"/>
			<point x="381" y="172" type="line"/>
			<point x="381" y="1006" type="line"/>
			<point x="70" y="1006" type="line"/>
		</contour>
		<contour>
			<point x="226" y="1063" type="curve" smooth="yes"/>
			<point x="335" y="1063"/>
			<point x="386" y="1122"/>
			<point x="386" y="1213" type="curve" smooth="yes"/>
			<point x="386" y="1224" type="line" smooth="yes"/>
			<point x="386" y="1315"/>
			<point x="335" y="1374"/>
			<point x="226" y="1374" type="curve" smooth="yes"/>
			<point x="117" y="1374"/>
			<point x="66" y="1315"/>
			<point x="66" y="1224" type="curve" smooth="yes"/>
			<point x="66" y="1213" type="line" smooth="yes"/>
			<point x="66" y="1122"/>
			<point x="117" y="1063"/>
		</contour>
		<component base="jbottom"/>
	</outline>
</glyph>
<glyph name="l" format="2">
	<advance width="443"/>
	<unicode hex="006C"/>
	<anchor x="222" y="667" name="center"/>
	<anchor x="222" y="1324" name="top"/>
	<anchor x="448" y="1324" name="topright"/>
	<anchor x="222" y="0" name="bottom"/>
	<outline>
		<contour>
			<point x="66" y="0" type="line"/>
			<point x="377" y="0" type="line"/>
			<point x="377" y="1324" type="line"/>
			<point x="66" y="1324" type="line"/>
		</contour>
	</outline>
</glyph>
<glyph name="o" format="2">
	<advance width="843"/>
	<unicode hex="006F"/>
	<anchor x="422" y="503" name="center"/>
	<anchor x="655" y="10" name="ogonek"/>
	<anchor x="422" y="1006" name="top"/>
	<anchor x="851" y="1006" name="topright"/>
	<anchor x="422" y="0" name="bottom"/>
	<outline>
		<contour>
			<point x="422" y="-20" type="curve" smooth="yes"/>
			<point x="670" y="-20"/>
			<point x="795" y="124"/>
			<point x="795" y="402" type="curve"/>
			<point x="795" y="605" type="line"/>
			<point x="795" y="883"/>
			<point x="670" y="1026"/>
			<point x="422" y="1026" type="curve" smooth="yes"/>
			<point x="173" y="1026"/>
			<point x="48" y="883"/>
			<point x="48" y="605" type="curve"/>
			<point x="48" y="402" type="line"/>
			<point x="48" y="124"/>
			<point x="173" y="-20"/>
		</contour>
		<contour>
			<point x="422" y="232" type="curve" smooth="yes"/>
			<point x="370" y="232"/>
			<point x="355" y="273"/>
			<point x="355" y="365" type="curve" smooth="yes"/>
			<point x="355" y="642" type="line" smooth="yes"/>
			<point x="355" y="734"/>
			<point x="370" y="774"/>
			<point x="422" y="774" type="curve" smooth="yes"/>
			<point x="473" y="774"/>
			<point x="488" y="734"/>
			<point x="488" y="642" type="curve" smooth="yes"/>
			<point x="488" y="365" type="line" smooth="yes"/>
			<point x="488" y="273"/>
			<point x="473" y="232"/>
		</contour>
	</outline>
</glyph>
<glyph name="r" format="2">
  <advance width="591"/>
  <unicode hex="0072"/>
  <anchor x="221" y="0" name="bottom"/>
  <anchor x="317" y="1006" name="top"/>
  <outline>
    <contour>
      <point x="375" y="574" type="line"/>
      <point x="404" y="628"/>
      <point x="459" y="657"/>
      <point x="541" y="657" type="curve" smooth="yes"/>
      <point x="556" y="657"/>
      <point x="574" y="656"/>
      <point x="582" y="655" type="curve"/>
      <point x="576" y="1013" type="line"/>
      <point x="566" y="1013"/>
      <point x="564" y="1013"/>
      <point x="561" y="1013" type="curve" smooth="yes"/>
      <point x="423" y="1013"/>
      <point x="361" y="922"/>
      <point x="345" y="775" type="curve"/>
      <point x="259" y="775" type="line"/>
    </contour>
    <contour>
      <point x="66" y="0" type="line"/>
      <point x="377" y="0" type="line"/>
      <point x="377" y="699" type="line"/>
      <point x="329" y="699" type="line"/>
      <point x="342" y="1006" type="line"/>
      <point x="66" y="1006" type="line"/>
    </contour>
  </outline>
</glyph>
<glyph name="s" format="2">
	<advance width="661"/>
	<unicode hex="0073"/>
	<anchor x="320" y="1006" name="top"/>
	<anchor x="324" y="0" name="bottom"/>
	<outline>
		<contour>
			<point x="304" y="-15" type="curve" smooth="yes"/>
			<point x="534" y="-15"/>
			<point x="639" y="96"/>
			<point x="639" y="293" type="curve" smooth="yes"/>
			<point x="639" y="305" type="line"/>
			<point x="639" y="458"/>
			<point x="582" y="524"/>
			<point x="455" y="594" type="curve" smooth="yes"/>
			<point x="374" y="640"/>
			<point x="326" y="666"/>
			<point x="326" y="709" type="curve" smooth="yes"/>
			<point x="326" y="713" type="line"/>
			<point x="326" y="745"/>
			<point x="348" y="762"/>
			<point x="409" y="762" type="curve" smooth="yes"/>
			<point x="487" y="762"/>
			<point x="553" y="734"/>
			<point x="605" y="706" type="curve"/>
			<point x="587" y="958" type="line"/>
			<point x="539" y="990"/>
			<point x="455" y="1021"/>
			<point x="356" y="1021" type="curve" smooth="yes"/>
			<point x="140" y="1021"/>
			<point x="24" y="920"/>
			<point x="24" y="732" type="curve" smooth="yes"/>
			<point x="24" y="721" type="line"/>
			<point x="24" y="592"/>
			<point x="76" y="512"/>
			<point x="194" y="438" type="curve" smooth="yes"/>
			<point x="302" y="370"/>
			<point x="335" y="355"/>
			<point x="335" y="311" type="curve"/>
			<point x="335" y="307" type="line"/>
			<point x="335" y="274"/>
			<point x="317" y="252"/>
			<point x="254" y="252" type="curve" smooth="yes"/>
			<point x="166" y="252"/>
			<point x="98" y="283"/>
			<point x="32" y="315" type="curve"/>
			<point x="50" y="44" type="line"/>
			<point x="109" y="13"/>
			<point x="194" y="-15"/>
		</contour>
	</outline>
</glyph>
<glyph name="v" format="2">
	<advance width="810"/>
	<unicode hex="0076"/>
	<anchor x="405" y="1006" name="top"/>
	<anchor x="405" y="0" name="bottom"/>
	<outline>
		<contour>
			<point x="416" y="206" type="line"/>
			<point x="396" y="206" type="line"/>
			<point x="328" y="1006" type="line"/>
			<point x="18" y="1006" type="line"/>
			<point x="154" y="0" type="line"/>
			<point x="656" y="0" type="line"/>
			<point x="792" y="1006" type="line"/>
			<point x="486" y="1006" type="line"/>
		</contour>
	</outline>
</glyph>
<glyph name="x" format="2">
	<advance width="806"/>
	<unicode hex="0078"/>
	<anchor x="403" y="1006" name="top"/>
	<anchor x="403" y="0" name="bottom"/>
	<outline>
		<contour>
			<point x="14" y="0" type="line"/>
			<point x="318" y="0" type="line"/>
			<point x="396" y="368" type="line"/>
			<point x="411" y="368" type="line"/>
			<point x="488" y="0" type="line"/>
			<point x="792" y="0" type="line"/>
			<point x="632" y="574" type="line"/>
			<point x="632" y="477" type="line"/>
			<point x="790" y="1006" type="line"/>
			<point x="484" y="1006" type="line"/>
			<point x="411" y="650" type="line"/>
			<point x="396" y="650" type="line"/>
			<point x="322" y="1006" type="line"/>
			<point x="16" y="1006" type="line"/>
			<point x="174" y="477" type="line"/>
			<point x="174" y="574" type="line"/>
		</contour>
	</outline>
</glyph>
<glyph name="z" format="2">
	<advance width="686"/>
	<unicode hex="007A"/>
	<anchor x="343" y="503" name="center"/>
	<anchor x="343" y="0" name="bottom"/>
	<anchor x="343" y="1006" name="top"/>
	<outline>
		<contour>
			<point x="650" y="270" type="line"/>
			<point x="353" y="270" type="line"/>
			<point x="646" y="758" type="line"/>
			<point x="646" y="1006" type="line"/>
			<point x="39" y="1006" type="line"/>
			<point x="39" y="739" type="line"/>
			<point x="326" y="739" type="line"/>
			<point x="36" y="251" type="line"/>
			<point x="36" y="0" type="line"/>
			<point x="650" y="0" type="line"/>
		</contour>
	</outline>
</glyph>
<glyph name="currency" format="2">
  <advance width="955"/>
  <unicode hex="00A4"/>
  <outline>
    <contour>
      <point x="477" y="251" type="curve" smooth="yes"/>
      <point x="705" y="251"/>
      <point x="818" y="377"/>
      <point x="818" y="606" type="curve" smooth="yes"/>
      <point x="818" y="645" type="line" smooth="yes"/>
      <point x="818" y="872"/>
      <point x="705" y="998"/>
      <point x="477" y="998" type="curve" smooth="yes"/>
      <point x="248" y="998"/>
      <point x="135" y="872"/>
      <point x="135" y="645" type="curve" smooth="yes"/>
      <point x="135" y="606" type="line" smooth="yes"/>
      <point x="135" y="377"/>
      <point x="248" y="251"/>
    </contour>
    <contour>
      <point x="477" y="476" type="curve" smooth="yes"/>
      <point x="425" y="476"/>
      <point x="406" y="511"/>
      <point x="406" y="593" type="curve" smooth="yes"/>
      <point x="406" y="658" type="line" smooth="yes"/>
      <point x="406" y="740"/>
      <point x="425" y="775"/>
      <point x="477" y="775" type="curve" smooth="yes"/>
      <point x="528" y="775"/>
      <point x="544" y="739"/>
      <point x="546" y="658" type="curve" smooth="yes"/>
      <point x="547" y="593" type="line" smooth="yes"/>
      <point x="549" y="511"/>
      <point x="528" y="476"/>
    </contour>
    <contour>
      <point x="751" y="492" type="line"/>
      <point x="582" y="329" type="line"/>
      <point x="749" y="118" type="line"/>
      <point x="935" y="260" type="line"/>
    </contour>
    <contour>
      <point x="383" y="341" type="line"/>
      <point x="202" y="487" type="line"/>
      <point x="20" y="260" type="line"/>
      <point x="205" y="118" type="line"/>
    </contour>
    <contour>
      <point x="197" y="759" type="line"/>
      <point x="374" y="911" type="line"/>
      <point x="206" y="1122" type="line"/>
      <point x="20" y="981" type="line"/>
    </contour>
    <contour>
      <point x="568" y="896" type="line"/>
      <point x="738" y="734" type="line"/>
      <point x="934" y="981" type="line"/>
      <point x="748" y="1122" type="line"/>
    </contour>
  </outline>
</glyph>
<glyph name="ordfeminine" format="2">
	<advance width="514"/>
	<unicode hex="00AA"/>
	<outline>
		<contour>
			<point x="268" y="639" type="line"/>
			<point x="479" y="639" type="line"/>
			<point x="479" y="1045" type="line" smooth="yes"/>
			<point x="479" y="1195"/>
			<point x="426" y="1290"/>
			<point x="243" y="1290" type="curve" smooth="yes"/>
			<point x="172" y="1290"/>
			<point x="107" y="1273"/>
			<point x="60" y="1250" type="curve"/>
			<point x="44" y="1075" type="line"/>
			<point x="93" y="1094"/>
			<point x="148" y="1110"/>
			<point x="206" y="1110" type="curve" smooth="yes"/>
			<point x="260" y="1110"/>
			<point x="273" y="1094"/>
			<point x="273" y="1050" type="curve"/>
			<point x="273" y="1017" type="line"/>
			<point x="273" y="775" type="line"/>
			<point x="276" y="771" type="line"/>
		</contour>
		<contour>
			<point x="150" y="628" type="curve" smooth="yes"/>
			<point x="230" y="628"/>
			<point x="251" y="676"/>
			<point x="266" y="745" type="curve"/>
			<point x="297" y="745" type="line"/>
			<point x="274" y="815" type="line"/>
			<point x="270" y="804"/>
			<point x="263" y="795"/>
			<point x="247" y="795" type="curve" smooth="yes"/>
			<point x="229" y="795"/>
			<point x="222" y="807"/>
			<point x="222" y="828" type="curve" smooth="yes"/>
			<point x="222" y="867" type="line" smooth="yes"/>
			<point x="222" y="895"/>
			<point x="228" y="909"/>
			<point x="253" y="915" type="curve" smooth="yes"/>
			<point x="307" y="927" type="line"/>
			<point x="286" y="1063" type="line"/>
			<point x="195" y="1045" type="line" smooth="yes"/>
			<point x="58" y="1018"/>
			<point x="18" y="961"/>
			<point x="18" y="850" type="curve" smooth="yes"/>
			<point x="18" y="810" type="line" smooth="yes"/>
			<point x="18" y="694"/>
			<point x="61" y="628"/>
		</contour>
	</outline>
</glyph>
<glyph name="degree" format="2">
	<advance width="547"/>
	<unicode hex="00B0"/>
	<outline>
		<contour>
			<point x="274" y="759" type="curve" smooth="yes"/>
			<point x="431" y="759"/>
			<point x="515" y="851"/>
			<point x="515" y="1018" type="curve" smooth="yes"/>
			<point x="515" y="1042" type="line" smooth="yes"/>
			<point x="515" y="1208"/>
			<point x="431" y="1300"/>
			<point x="274" y="1300" type="curve" smooth="yes"/>
			<point x="117" y="1300"/>
			<point x="32" y="1208"/>
			<point x="32" y="1042" type="curve" smooth="yes"/>
			<point x="32" y="1018" type="line" smooth="yes"/>
			<point x="32" y="851"/>
			<point x="117" y="759"/>
		</contour>
		<contour>
			<point x="274" y="919" type="curve" smooth="yes"/>
			<point x="239" y="919"/>
			<point x="224" y="949"/>
			<point x="224" y="1014" type="curve" smooth="yes"/>
			<point x="224" y="1047" type="line" smooth="yes"/>
			<point x="224" y="1110"/>
			<point x="239" y="1140"/>
			<point x="274" y="1140" type="curve" smooth="yes"/>
			<point x="309" y="1140"/>
			<point x="323" y="1110"/>
			<point x="323" y="1047" type="curve" smooth="yes"/>
			<point x="323" y="1014" type="line" smooth="yes"/>
			<point x="323" y="949"/>
			<point x="309" y="919"/>
		</contour>
	</outline>
</glyph>
<glyph name="plusminus" format="2">
	<advance width="735"/>
	<unicode hex="00B1"/>
	<outline>
		<contour>
			<point x="54" y="111" type="line"/>
			<point x="681" y="111" type="line"/>
			<point x="681" y="358" type="line"/>
			<point x="54" y="358" type="line"/>
		</contour>
		<contour>
			<point x="501" y="443" type="line"/>
			<point x="501" y="1038" type="line"/>
			<point x="235" y="1038" type="line"/>
			<point x="235" y="443" type="line"/>
		</contour>
		<contour>
			<point x="54" y="612" type="line"/>
			<point x="681" y="612" type="line"/>
			<point x="681" y="869" type="line"/>
			<point x="54" y="869" type="line"/>
		</contour>
	</outline>
</glyph>
<glyph name="paragraph" format="2">
  <advance width="702"/>
  <unicode hex="00B6"/>
  <outline>
    <contour>
      <point x="309" y="634" type="curve"/>
      <point x="426" y="634" type="line"/>
      <point x="426" y="1278" type="line"/>
      <point x="311" y="1278" type="line" smooth="yes"/>
      <point x="121" y="1278"/>
      <point x="42" y="1185"/>
      <point x="42" y="1005" type="curve" smooth="yes"/>
      <point x="42" y="906" type="line" smooth="yes"/>
      <point x="42" y="719"/>
      <point x="121" y="634"/>
    </contour>
    <contour>
      <point x="628" y="0" type="line"/>
      <point x="628" y="1278" type="line"/>
      <point x="321" y="1278" type="line"/>
      <point x="319" y="0" type="line"/>
    </contour>
  </outline>
</glyph>
<glyph name="onesuperior" format="2">
	<advance width="362"/>
	<unicode hex="00B9"/>
	<outline>
		<contour>
			<point x="127" y="700" type="line"/>
			<point x="322" y="700" type="line"/>
			<point x="322" y="1384" type="line"/>
			<point x="162" y="1384" type="line"/>
			<point x="20" y="1309" type="line"/>
			<point x="15" y="1108" type="line"/>
			<point x="117" y="1164" type="line"/>
			<point x="126" y="1164" type="line"/>
		</contour>
	</outline>
</glyph>
<glyph name="questiondown" format="2">
	<advance width="598"/>
	<unicode hex="00BF"/>
	<outline>
		<contour>
			<point x="474" y="607" type="line"/>
			<point x="358" y="563" type="line" smooth="yes"/>
			<point x="129" y="476"/>
			<point x="32" y="362"/>
			<point x="32" y="119" type="curve" smooth="yes"/>
			<point x="32" y="45" type="line" smooth="yes"/>
			<point x="32" y="-163"/>
			<point x="125" y="-294"/>
			<point x="329" y="-294" type="curve" smooth="yes"/>
			<point x="421" y="-294"/>
			<point x="498" y="-271"/>
			<point x="551" y="-244" type="curve"/>
			<point x="580" y="19" type="line"/>
			<point x="538" y="-3"/>
			<point x="495" y="-18"/>
			<point x="448" y="-18" type="curve" smooth="yes"/>
			<point x="370" y="-18"/>
			<point x="341" y="25"/>
			<point x="341" y="100" type="curve" smooth="yes"/>
			<point x="341" y="124" type="line" smooth="yes"/>
			<point x="341" y="208"/>
			<point x="356" y="243"/>
			<point x="436" y="279" type="curve" smooth="yes"/>
			<point x="474" y="296" type="line"/>
		</contour>
		<contour>
			<point x="377" y="1034" type="curve" smooth="yes"/>
			<point x="272" y="1034"/>
			<point x="217" y="968"/>
			<point x="217" y="852" type="curve" smooth="yes"/>
			<point x="217" y="835" type="line" smooth="yes"/>
			<point x="217" y="721"/>
			<point x="272" y="653"/>
			<point x="377" y="653" type="curve" smooth="yes"/>
			<point x="486" y="653"/>
			<point x="537" y="721"/>
			<point x="537" y="835" type="curve" smooth="yes"/>
			<point x="537" y="852" type="line" smooth="yes"/>
			<point x="537" y="968"/>
			<point x="486" y="1034"/>
		</contour>
	</outline>
</glyph>
<glyph name="Eth" format="2">
  <advance width="904"/>
  <unicode hex="00D0"/>
  <anchor x="436" y="0" name="bottom"/>
  <anchor x="452" y="639" name="center"/>
  <anchor x="436" y="1278" name="top"/>
  <outline>
    <contour>
      <point x="2" y="554" type="line"/>
      <point x="468" y="554" type="line"/>
      <point x="468" y="746" type="line"/>
      <point x="2" y="746" type="line"/>
    </contour>
    <component base="D"/>
  </outline>
</glyph>
<glyph name="multiply" format="2">
	<advance width="701"/>
	<unicode hex="00D7"/>
	<outline>
		<contour>
			<point x="676" y="456" type="line"/>
			<point x="206" y="967" type="line"/>
			<point x="25" y="820" type="line"/>
			<point x="496" y="308" type="line"/>
		</contour>
		<contour>
			<point x="25" y="456" type="line"/>
			<point x="205" y="308" type="line"/>
			<point x="676" y="820" type="line"/>
			<point x="495" y="967" type="line"/>
		</contour>
	</outline>
</glyph>
<glyph name="Oslash" format="2">
	<advance width="912"/>
	<unicode hex="00D8"/>
	<anchor x="456" y="639" name="center"/>
	<anchor x="821" y="10" name="ogonek"/>
	<anchor x="456" y="1278" name="top"/>
	<anchor x="892" y="1278" name="topright"/>
	<anchor x="20" y="1278" name="topleft"/>
	<anchor x="456" y="0" name="bottom"/>
	<outline>
		<contour>
			<point x="460" y="-22" type="curve" smooth="yes"/>
			<point x="725" y="-22"/>
			<point x="857" y="127"/>
			<point x="857" y="427" type="curve" smooth="yes"/>
			<point x="857" y="847" type="line" smooth="yes"/>
			<point x="857" y="1139"/>
			<point x="705" y="1300"/>
			<point x="452" y="1300" type="curve" smooth="yes"/>
			<point x="187" y="1300"/>
			<point x="55" y="1149"/>
			<point x="55" y="851" type="curve" smooth="yes"/>
			<point x="55" y="431" type="line" smooth="yes"/>
			<point x="55" y="137"/>
			<point x="207" y="-22"/>
		</contour>
		<contour>
			<point x="111" y="-71" type="line"/>
			<point x="245" y="-71" type="line"/>
			<point x="335" y="160" type="line"/>
			<point x="355" y="213" type="line"/>
			<point x="639" y="969" type="line"/>
			<point x="698" y="1087" type="line"/>
			<point x="801" y="1350" type="line"/>
			<point x="667" y="1350" type="line"/>
			<point x="605" y="1184" type="line"/>
			<point x="571" y="1087" type="line"/>
			<point x="279" y="301" type="line"/>
			<point x="222" y="214" type="line"/>
		</contour>
		<contour>
			<point x="456" y="243" type="curve" smooth="yes"/>
			<point x="387" y="243"/>
			<point x="364" y="290"/>
			<point x="364" y="404" type="curve" smooth="yes"/>
			<point x="364" y="875" type="line" smooth="yes"/>
			<point x="364" y="988"/>
			<point x="385" y="1035"/>
			<point x="456" y="1035" type="curve" smooth="yes"/>
			<point x="525" y="1035"/>
			<point x="548" y="988"/>
			<point x="548" y="875" type="curve" smooth="yes"/>
			<point x="548" y="404" type="line" smooth="yes"/>
			<point x="548" y="290"/>
			<point x="527" y="243"/>
		</contour>
	</outline>
</glyph>
<glyph name="Thorn" format="2">
  <advance width="869"/>
  <unicode hex="00DE"/>
  <anchor x="435" y="0" name="bottom"/>
  <anchor x="435" y="1278" name="top"/>
  <outline>
    <contour>
      <point x="269" y="179" type="line"/>
      <point x="443" y="179" type="line" smooth="yes"/>
      <point x="716" y="179"/>
      <point x="831" y="303"/>
      <point x="831" y="575" type="curve" smooth="yes"/>
      <point x="831" y="719" type="line" smooth="yes"/>
      <point x="831" y="980"/>
      <point x="716" y="1116"/>
      <point x="439" y="1116" type="curve" smooth="yes"/>
      <point x="269" y="1116" type="line"/>
      <point x="269" y="849" type="line"/>
      <point x="428" y="849" type="line" smooth="yes"/>
      <point x="500" y="849"/>
      <point x="520" y="813"/>
      <point x="520" y="715" type="curve" smooth="yes"/>
      <point x="520" y="579" type="line" smooth="yes"/>
      <point x="520" y="481"/>
      <point x="500" y="446"/>
      <point x="428" y="446" type="curve" smooth="yes"/>
      <point x="269" y="446" type="line"/>
    </contour>
    <contour>
      <point x="74" y="0" type="line"/>
      <point x="386" y="0" type="line"/>
      <point x="386" y="262" type="line"/>
      <point x="384" y="344" type="line"/>
      <point x="384" y="938" type="line"/>
      <point x="386" y="1080" type="line"/>
      <point x="386" y="1278" type="line"/>
      <point x="74" y="1278" type="line"/>
    </contour>
  </outline>
</glyph>
<glyph name="divide" format="2">
  <advance width="733"/>
  <unicode hex="00F7"/>
  <outline>
    <contour>
      <point x="53" y="508" type="line"/>
      <point x="680" y="508" type="line"/>
      <point x="680" y="765" type="line"/>
      <point x="53" y="765" type="line"/>
    </contour>
    <contour>
      <point x="366" y="211" type="curve" smooth="yes"/>
      <point x="440" y="211"/>
      <point x="478" y="257"/>
      <point x="478" y="338" type="curve" smooth="yes"/>
      <point x="478" y="350" type="line" smooth="yes"/>
      <point x="478" y="430"/>
      <point x="440" y="478"/>
      <point x="366" y="478" type="curve" smooth="yes"/>
      <point x="290" y="478"/>
      <point x="254" y="430"/>
      <point x="254" y="350" type="curve" smooth="yes"/>
      <point x="254" y="338" type="line" smooth="yes"/>
      <point x="254" y="257"/>
      <point x="290" y="211"/>
    </contour>
    <contour>
      <point x="366" y="798" type="curve" smooth="yes"/>
      <point x="440" y="798"/>
      <point x="478" y="844"/>
      <point x="478" y="925" type="curve" smooth="yes"/>
      <point x="478" y="937" type="line" smooth="yes"/>
      <point x="478" y="1017"/>
      <point x="440" y="1065"/>
      <point x="366" y="1065" type="curve" smooth="yes"/>
      <point x="290" y="1065"/>
      <point x="254" y="1017"/>
      <point x="254" y="937" type="curve" smooth="yes"/>
      <point x="254" y="925" type="line" smooth="yes"/>
      <point x="254" y="844"/>
      <point x="290" y="798"/>
    </contour>
  </outline>
</glyph>
<glyph name="OE" format="2">
  <advance width="1195"/>
  <unicode hex="0152"/>
  <anchor x="598" y="0" name="bottom"/>
  <anchor x="598" y="1278" name="top"/>
  <outline>
    <contour>
      <point x="456" y="-22" type="curve" smooth="yes"/>
      <point x="725" y="-22"/>
      <point x="857" y="127"/>
      <point x="857" y="427" type="curve" smooth="yes"/>
      <point x="857" y="851" type="line" smooth="yes"/>
      <point x="857" y="1149"/>
      <point x="725" y="1300"/>
      <point x="456" y="1300" type="curve" smooth="yes"/>
      <point x="187" y="1300"/>
      <point x="55" y="1149"/>
      <point x="55" y="851" type="curve" smooth="yes"/>
      <point x="55" y="427" type="line" smooth="yes"/>
      <point x="55" y="127"/>
      <point x="187" y="-22"/>
    </contour>
    <contour>
      <point x="456" y="245" type="curve" smooth="yes"/>
      <point x="395" y="245"/>
      <point x="377" y="289"/>
      <point x="377" y="396" type="curve" smooth="yes"/>
      <point x="377" y="883" type="line" smooth="yes"/>
      <point x="377" y="989"/>
      <point x="395" y="1033"/>
      <point x="456" y="1033" type="curve" smooth="yes"/>
      <point x="517" y="1033"/>
      <point x="535" y="989"/>
      <point x="535" y="883" type="curve" smooth="yes"/>
      <point x="535" y="396" type="line" smooth="yes"/>
      <point x="535" y="289"/>
      <point x="517" y="245"/>
    </contour>
    <contour>
      <point x="548" y="0" type="line"/>
      <point x="1143" y="0" type="line"/>
      <point x="1143" y="280" type="line"/>
      <point x="548" y="280" type="line"/>
    </contour>
    <contour>
      <point x="758" y="514" type="line"/>
      <point x="1132" y="514" type="line"/>
      <point x="1132" y="783" type="line"/>
      <point x="758" y="783" type="line"/>
    </contour>
    <contour>
      <point x="548" y="1002" type="line"/>
      <point x="1143" y="1002" type="line"/>
      <point x="1143" y="1278" type="line"/>
      <point x="548" y="1278" type="line"/>
    </contour>
  </outline>
</glyph>
<glyph name="gravecomb" format="2">
	<advance width="0"/>
	<unicode hex="0300"/>
	<anchor x="-294" y="1366" name="top"/>
	<anchor x="-215" y="1006" name="_top"/>
	<outline>
		<contour>
			<point x="-214" y="1366" type="line"/>
			<point x="-512" y="1366" type="line"/>
			<point x="-512" y="1366" type="line"/>
			<point x="-330" y="1076" type="line"/>
			<point x="-100" y="1076" type="line"/>
			<point x="-100" y="1076" type="line"/>
		</contour>
	</outline>
</glyph>
<glyph name="circumflexcomb" format="2">
  <unicode hex="0302"/>
  <anchor x="380" y="1006" name="_top"/>
  <anchor x="380" y="1345" name="top"/>
  <outline>
    <contour>
      <point x="214" y="1366" type="line"/>
      <point x="100" y="1076" type="line"/>
      <point x="100" y="1076" type="line"/>
      <point x="314" y="1076" type="line"/>
      <point x="376" y="1215" type="line"/>
      <point x="384" y="1215" type="line"/>
      <point x="446" y="1076" type="line"/>
      <point x="660" y="1076" type="line"/>
      <point x="660" y="1076" type="line"/>
      <point x="545" y="1366" type="line"/>
    </contour>
  </outline>
</glyph>
<glyph name="tildecomb" format="2">
	<advance width="0"/>
	<unicode hex="0303"/>
	<anchor x="-379" y="1366" name="top"/>
	<anchor x="-380" y="1006" name="_top"/>
	<outline>
		<contour>
			<point x="-265" y="1088" type="curve" smooth="yes"/>
			<point x="-146" y="1088"/>
			<point x="-100" y="1175"/>
			<point x="-100" y="1301" type="curve" smooth="yes"/>
			<point x="-100" y="1350" type="line"/>
			<point x="-260" y="1350" type="line"/>
			<point x="-260" y="1348" type="line"/>
			<point x="-260" y="1309"/>
			<point x="-270" y="1291"/>
			<point x="-299" y="1291" type="curve" smooth="yes"/>
			<point x="-351" y="1291"/>
			<point x="-405" y="1338"/>
			<point x="-492" y="1338" type="curve" smooth="yes"/>
			<point x="-612" y="1338"/>
			<point x="-659" y="1248"/>
			<point x="-659" y="1119" type="curve" smooth="yes"/>
			<point x="-659" y="1076" type="line"/>
			<point x="-499" y="1076" type="line"/>
			<point x="-499" y="1078" type="line"/>
			<point x="-499" y="1116"/>
			<point x="-489" y="1137"/>
			<point x="-456" y="1137" type="curve" smooth="yes"/>
			<point x="-406" y="1137"/>
			<point x="-339" y="1088"/>
		</contour>
	</outline>
</glyph>
<glyph name="macroncomb" format="2">
  <unicode hex="0304"/>
  <anchor x="348.5" y="1006" name="_top"/>
  <anchor x="349" y="1293" name="top"/>
  <outline>
    <contour>
      <point x="90" y="1093" type="line"/>
      <point x="607" y="1093" type="line"/>
      <point x="607" y="1285" type="line"/>
      <point x="90" y="1285" type="line"/>
    </contour>
  </outline>
</glyph>
<glyph name="dotaccentcomb" format="2">
	<advance width="0"/>
	<unicode hex="0307"/>
	<anchor x="-248" y="1366" name="top"/>
	<anchor x="-248" y="1006" name="_top"/>
	<outline>
		<contour>
			<point x="-249" y="1063" type="curve" smooth="yes"/>
			<point x="-151" y="1063"/>
			<point x="-100" y="1120"/>
			<point x="-100" y="1215" type="curve" smooth="yes"/>
			<point x="-100" y="1222" type="line" smooth="yes"/>
			<point x="-100" y="1317"/>
			<point x="-151" y="1374"/>
			<point x="-249" y="1374" type="curve" smooth="yes"/>
			<point x="-346" y="1374"/>
			<point x="-396" y="1317"/>
			<point x="-396" y="1222" type="curve" smooth="yes"/>
			<point x="-396" y="1215" type="line" smooth="yes"/>
			<point x="-396" y="1120"/>
			<point x="-346" y="1063"/>
		</contour>
	</outline>
</glyph>
<glyph name="dieresiscomb" format="2">
	<advance width="0"/>
	<unicode hex="0308"/>
	<anchor x="-381" y="1366" name="top"/>
	<anchor x="-381" y="1006" name="_top"/>
	<outline>
		<contour>
			<point x="-534" y="1067" type="curve" smooth="yes"/>
			<point x="-447" y="1067"/>
			<point x="-403" y="1117"/>
			<point x="-403" y="1213" type="curve" smooth="yes"/>
			<point x="-403" y="1224" type="line" smooth="yes"/>
			<point x="-403" y="1320"/>
			<point x="-447" y="1370"/>
			<point x="-534" y="1370" type="curve" smooth="yes"/>
			<point x="-620" y="1370"/>
			<point x="-663" y="1320"/>
			<point x="-663" y="1224" type="curve" smooth="yes"/>
			<point x="-663" y="1213" type="line" smooth="yes"/>
			<point x="-663" y="1117"/>
			<point x="-620" y="1067"/>
		</contour>
		<contour>
			<point x="-230" y="1067" type="curve" smooth="yes"/>
			<point x="-144" y="1067"/>
			<point x="-100" y="1117"/>
			<point x="-100" y="1213" type="curve" smooth="yes"/>
			<point x="-100" y="1224" type="line" smooth="yes"/>
			<point x="-100" y="1320"/>
			<point x="-144" y="1370"/>
			<point x="-230" y="1370" type="curve" smooth="yes"/>
			<point x="-317" y="1370"/>
			<point x="-359" y="1320"/>
			<point x="-359" y="1224" type="curve" smooth="yes"/>
			<point x="-359" y="1213" type="line" smooth="yes"/>
			<point x="-359" y="1117"/>
			<point x="-317" y="1067"/>
		</contour>
	</outline>
</glyph>
<glyph name="ringcomb" format="2">
	<advance width="0"/>
	<unicode hex="030A"/>
	<anchor x="-314" y="1425" name="top"/>
	<anchor x="-314" y="1006" name="_top"/>
	<outline>
		<contour>
			<point x="-528" y="1250" type="curve" smooth="yes"/>
			<point x="-528" y="1243" type="line"/>
			<point x="-528" y="1142"/>
			<point x="-466" y="1063"/>
			<point x="-314" y="1063" type="curve" smooth="yes"/>
			<point x="-162" y="1063"/>
			<point x="-99" y="1142"/>
			<point x="-99" y="1243" type="curve" smooth="yes"/>
			<point x="-99" y="1250" type="line" smooth="yes"/>
			<point x="-99" y="1352"/>
			<point x="-162" y="1431"/>
			<point x="-314" y="1431" type="curve" smooth="yes"/>
			<point x="-466" y="1431"/>
			<point x="-528" y="1352"/>
		</contour>
		<contour>
			<point x="-380" y="1245" type="curve" smooth="yes"/>
			<point x="-380" y="1249" type="line" smooth="yes"/>
			<point x="-380" y="1286"/>
			<point x="-355" y="1307"/>
			<point x="-314" y="1307" type="curve" smooth="yes"/>
			<point x="-273" y="1307"/>
			<point x="-248" y="1286"/>
			<point x="-248" y="1249" type="curve" smooth="yes"/>
			<point x="-248" y="1245" type="line" smooth="yes"/>
			<point x="-248" y="1207"/>
			<point x="-273" y="1186"/>
			<point x="-314" y="1186" type="curve" smooth="yes"/>
			<point x="-355" y="1186"/>
			<point x="-380" y="1207"/>
		</contour>
	</outline>
</glyph>
<glyph name="cedillacomb" format="2">
	<advance width="0"/>
	<unicode hex="0327"/>
	<anchor x="-272" y="0" name="_bottom"/>
	<anchor x="-238" y="-351" name="bottom"/>
	<outline>
		<contour>
			<point x="-183" y="37" type="line"/>
			<point x="-354" y="37" type="line"/>
			<point x="-364" y="-134" type="line"/>
			<point x="-364" y="-134"/>
			<point x="-362" y="-134"/>
			<point x="-362" y="-134" type="curve" smooth="yes"/>
			<point x="-279" y="-140"/>
			<point x="-257" y="-149"/>
			<point x="-257" y="-171" type="curve" smooth="yes"/>
			<point x="-257" y="-175" type="line" smooth="yes"/>
			<point x="-257" y="-195"/>
			<point x="-277" y="-202"/>
			<point x="-323" y="-202" type="curve" smooth="yes"/>
			<point x="-351" y="-202"/>
			<point x="-384" y="-199"/>
			<point x="-410" y="-193" type="curve"/>
			<point x="-391" y="-337" type="line"/>
			<point x="-356" y="-346"/>
			<point x="-318" y="-351"/>
			<point x="-266" y="-351" type="curve" smooth="yes"/>
			<point x="-141" y="-351"/>
			<point x="-66" y="-302"/>
			<point x="-66" y="-197" type="curve" smooth="yes"/>
			<point x="-66" y="-190" type="line" smooth="yes"/>
			<point x="-66" y="-96"/>
			<point x="-132" y="-53"/>
			<point x="-240" y="-53" type="curve" smooth="yes"/>
			<point x="-266" y="-53"/>
			<point x="-290" y="-55"/>
			<point x="-318" y="-59" type="curve"/>
			<point x="-196" y="-120" type="line"/>
		</contour>
	</outline>
</glyph>
<glyph name="Danda.bn" format="2">
  <advance width="697"/>
  <unicode hex="0964"/>
  <outline>
    <contour>
      <point x="197" y="1389" type="line"/>
      <point x="197" y="-60" type="line"/>
      <point x="499" y="-60" type="line"/>
      <point x="499" y="1389" type="line"/>
    </contour>
  </outline>
</glyph>
<glyph name="Doubledanda.bn" format="2">
  <advance width="1240"/>
  <unicode hex="0965"/>
  <outline>
    <contour>
      <point x="197" y="1389" type="line"/>
      <point x="197" y="-60" type="line"/>
      <point x="499" y="-60" type="line"/>
      <point x="499" y="1389" type="line"/>
    </contour>
    <contour>
      <point x="740" y="1389" type="line"/>
      <point x="740" y="-60" type="line"/>
      <point x="1042" y="-60" type="line"/>
      <point x="1042" y="1389" type="line"/>
    </contour>
  </outline>
</glyph>
<glyph name="anji.bn" format="2">
	<advance width="938"/>
	<unicode hex="0980"/>
	<outline>
		<contour>
			<point x="440" y="1346" type="curve" smooth="yes"/>
			<point x="237" y="1346"/>
			<point x="98" y="1238"/>
			<point x="77" y="1064" type="curve" smooth="yes"/>
			<point x="73" y="1029"/>
			<point x="45" y="814"/>
			<point x="45" y="748" type="curve" smooth="yes"/>
			<point x="45" y="537"/>
			<point x="157" y="416"/>
			<point x="384" y="408" type="curve" smooth="yes"/>
			<point x="440" y="406" type="line"/>
			<point x="455" y="672" type="line"/>
			<point x="438" y="672" type="line" smooth="yes"/>
			<point x="376" y="672"/>
			<point x="345" y="708"/>
			<point x="345" y="782" type="curve" smooth="yes"/>
			<point x="345" y="815"/>
			<point x="368" y="986"/>
			<point x="368" y="990" type="curve" smooth="yes"/>
			<point x="374" y="1052"/>
			<point x="402" y="1082"/>
			<point x="451" y="1082" type="curve" smooth="yes"/>
			<point x="515" y="1082"/>
			<point x="532" y="1043"/>
			<point x="532" y="988" type="curve" smooth="yes"/>
			<point x="532" y="246" type="line"/>
			<point x="833" y="246" type="line"/>
			<point x="833" y="986" type="line" smooth="yes"/>
			<point x="833" y="1208"/>
			<point x="735" y="1346"/>
		</contour>
		<contour>
			<point x="833" y="199" type="curve" smooth="yes"/>
			<point x="833" y="352" type="line"/>
			<point x="532" y="352" type="line"/>
			<point x="532" y="199" type="line" smooth="yes"/>
			<point x="532" y="-16"/>
			<point x="638" y="-111"/>
			<point x="884" y="-111" type="curve" smooth="yes"/>
			<point x="945" y="-111" type="line"/>
			<point x="930" y="141" type="line"/>
			<point x="884" y="141" type="line" smooth="yes"/>
			<point x="850" y="141"/>
			<point x="833" y="161"/>
		</contour>
	</outline>
</glyph>
<glyph name="Candrabindu.bn" format="2">
  <unicode hex="0981"/>
  <anchor x="-141" y="1723" name="_top2"/>
  <outline>
    <contour>
      <point x="523" y="1795" type="curve"/>
      <point x="348" y="1795" type="line"/>
      <point x="348" y="1788" type="line" smooth="yes"/>
      <point x="348" y="1655"/>
      <point x="290" y="1600"/>
      <point x="173" y="1600" type="curve" smooth="yes"/>
      <point x="57" y="1600"/>
      <point x="-1" y="1655"/>
      <point x="-1" y="1788" type="curve" smooth="yes"/>
      <point x="-1" y="1795" type="line"/>
      <point x="-176" y="1795" type="line"/>
      <point x="-176" y="1779"/>
      <point x="-176" y="1768"/>
      <point x="-176" y="1757" type="curve" smooth="yes"/>
      <point x="-176" y="1522"/>
      <point x="-47" y="1389"/>
      <point x="175" y="1389" type="curve" smooth="yes"/>
      <point x="396" y="1389"/>
      <point x="523" y="1522"/>
      <point x="523" y="1757" type="curve" smooth="yes"/>
      <point x="523" y="1766"/>
      <point x="523" y="1777"/>
    </contour>
    <contour>
      <point x="175" y="1693" type="curve" smooth="yes"/>
      <point x="257" y="1693"/>
      <point x="294" y="1745"/>
      <point x="294" y="1828" type="curve" smooth="yes"/>
      <point x="294" y="1832" type="line" smooth="yes"/>
      <point x="294" y="1915"/>
      <point x="257" y="1967"/>
      <point x="175" y="1967" type="curve" smooth="yes"/>
      <point x="93" y="1967"/>
      <point x="56" y="1915"/>
      <point x="56" y="1832" type="curve" smooth="yes"/>
      <point x="56" y="1828" type="line" smooth="yes"/>
      <point x="56" y="1745"/>
      <point x="93" y="1693"/>
    </contour>
  </outline>
</glyph>
<glyph name="Anuswara.bn" format="2">
	<advance width="856"/>
	<unicode hex="0982"/>
	<guideline x="204" y="-39" angle="0"/>
	<outline>
		<contour>
			<point x="774" y="-179" type="line"/>
			<point x="799" y="109" type="line"/>
			<point x="128" y="556" type="line"/>
			<point x="103" y="252" type="line"/>
		</contour>
		<contour>
			<point x="429" y="562" type="curve" smooth="yes"/>
			<point x="635" y="562"/>
			<point x="754" y="675"/>
			<point x="754" y="876" type="curve" smooth="yes"/>
			<point x="754" y="1043" type="line" smooth="yes"/>
			<point x="754" y="1244"/>
			<point x="634" y="1357"/>
			<point x="427" y="1357" type="curve" smooth="yes"/>
			<point x="219" y="1357"/>
			<point x="102" y="1244"/>
			<point x="102" y="1043" type="curve" smooth="yes"/>
			<point x="102" y="876" type="line" smooth="yes"/>
			<point x="102" y="675"/>
			<point x="220" y="562"/>
		</contour>
		<contour>
			<point x="428" y="772" type="curve" smooth="yes"/>
			<point x="389" y="772"/>
			<point x="370" y="799"/>
			<point x="370" y="858" type="curve" smooth="yes"/>
			<point x="370" y="1062" type="line" smooth="yes"/>
			<point x="370" y="1120"/>
			<point x="389" y="1147"/>
			<point x="428" y="1147" type="curve" smooth="yes"/>
			<point x="467" y="1147"/>
			<point x="486" y="1120"/>
			<point x="486" y="1062" type="curve" smooth="yes"/>
			<point x="486" y="858" type="line" smooth="yes"/>
			<point x="486" y="799"/>
			<point x="467" y="772"/>
		</contour>
	</outline>
</glyph>
<glyph name="Visarga.bn" format="2">
  <advance width="856"/>
  <unicode hex="0983"/>
  <outline>
    <contour>
      <point x="429" y="685" type="curve" smooth="yes"/>
      <point x="635" y="685"/>
      <point x="754" y="798"/>
      <point x="754" y="999" type="curve" smooth="yes"/>
      <point x="754" y="1043" type="line" smooth="yes"/>
      <point x="754" y="1244"/>
      <point x="634" y="1357"/>
      <point x="427" y="1357" type="curve" smooth="yes"/>
      <point x="219" y="1357"/>
      <point x="102" y="1244"/>
      <point x="102" y="1043" type="curve" smooth="yes"/>
      <point x="102" y="999" type="line" smooth="yes"/>
      <point x="102" y="798"/>
      <point x="220" y="685"/>
    </contour>
    <contour>
      <point x="428" y="895" type="curve" smooth="yes"/>
      <point x="389" y="895"/>
      <point x="370" y="923"/>
      <point x="370" y="986" type="curve" smooth="yes"/>
      <point x="370" y="1056" type="line" smooth="yes"/>
      <point x="370" y="1119"/>
      <point x="389" y="1147"/>
      <point x="428" y="1147" type="curve" smooth="yes"/>
      <point x="467" y="1147"/>
      <point x="486" y="1119"/>
      <point x="486" y="1056" type="curve" smooth="yes"/>
      <point x="486" y="986" type="line" smooth="yes"/>
      <point x="486" y="923"/>
      <point x="467" y="895"/>
    </contour>
    <contour>
      <point x="429" y="-31" type="curve" smooth="yes"/>
      <point x="635" y="-31"/>
      <point x="754" y="82"/>
      <point x="754" y="283" type="curve" smooth="yes"/>
      <point x="754" y="327" type="line" smooth="yes"/>
      <point x="754" y="528"/>
      <point x="634" y="641"/>
      <point x="427" y="641" type="curve" smooth="yes"/>
      <point x="219" y="641"/>
      <point x="102" y="528"/>
      <point x="102" y="327" type="curve" smooth="yes"/>
      <point x="102" y="283" type="line" smooth="yes"/>
      <point x="102" y="82"/>
      <point x="220" y="-31"/>
    </contour>
    <contour>
      <point x="428" y="179" type="curve" smooth="yes"/>
      <point x="389" y="179"/>
      <point x="370" y="207"/>
      <point x="370" y="270" type="curve" smooth="yes"/>
      <point x="370" y="340" type="line" smooth="yes"/>
      <point x="370" y="403"/>
      <point x="389" y="431"/>
      <point x="428" y="431" type="curve" smooth="yes"/>
      <point x="467" y="431"/>
      <point x="486" y="403"/>
      <point x="486" y="340" type="curve" smooth="yes"/>
      <point x="486" y="270" type="line" smooth="yes"/>
      <point x="486" y="207"/>
      <point x="467" y="179"/>
    </contour>
  </outline>
</glyph>
<glyph name="VowelA.bn" format="2">
	<advance width="1679"/>
	<unicode hex="0985"/>
	<guideline x="8112" y="4192" angle="0"/>
	<guideline x="2261" y="6313" angle="180"/>
	<anchor x="1261" y="1468" name="top"/>
	<anchor x="1149" y="1763" name="top2"/>
	<note>
		VowelA.bn
	</note>
	<outline>
		<contour>
			<point x="626" y="122" type="curve" smooth="yes"/>
			<point x="960" y="122"/>
			<point x="1138" y="294"/>
			<point x="1138" y="617" type="curve" smooth="yes"/>
			<point x="1138" y="761" type="line" smooth="yes"/>
			<point x="1138" y="987"/>
			<point x="1020" y="1104"/>
			<point x="795" y="1104" type="curve" smooth="yes"/>
			<point x="572" y="1104"/>
			<point x="455" y="991"/>
			<point x="455" y="776" type="curve" smooth="yes"/>
			<point x="455" y="723"/>
			<point x="455" y="666"/>
			<point x="455" y="596" type="curve"/>
			<point x="742" y="596" type="line"/>
			<point x="742" y="664"/>
			<point x="742" y="721"/>
			<point x="742" y="777" type="curve" smooth="yes"/>
			<point x="742" y="830"/>
			<point x="757" y="853"/>
			<point x="790" y="853" type="curve" smooth="yes"/>
			<point x="823" y="853"/>
			<point x="837" y="830"/>
			<point x="837" y="777" type="curve" smooth="yes"/>
			<point x="837" y="628" type="line" smooth="yes"/>
			<point x="837" y="472"/>
			<point x="759" y="392"/>
			<point x="606" y="392" type="curve" smooth="yes"/>
			<point x="461" y="392"/>
			<point x="367" y="466"/>
			<point x="359" y="611" type="curve" smooth="yes"/>
			<point x="341" y="948" type="line"/>
			<point x="50" y="953" type="line"/>
			<point x="66" y="600" type="line" smooth="yes"/>
			<point x="80" y="288"/>
			<point x="289" y="122"/>
		</contour>
		<contour>
			<point x="1333" y="-2" type="line"/>
			<point x="1593" y="-2" type="line"/>
			<point x="1593" y="1230" type="line"/>
			<point x="1291" y="1230" type="line"/>
			<point x="1291" y="501" type="line"/>
			<point x="1302" y="238" type="line"/>
			<point x="1376" y="313" type="line"/>
			<point x="1317" y="313" type="line"/>
			<point x="1013" y="513" type="line"/>
			<point x="955" y="228" type="line"/>
		</contour>
		<contour>
			<point x="-64" y="1085" type="line"/>
			<point x="1620" y="1085" type="line"/>
			<point x="1620" y="1329" type="line"/>
			<point x="-79" y="1329" type="line"/>
		</contour>
		<contour>
			<point x="1449" y="1196" type="line"/>
			<point x="1449" y="686" type="line"/>
			<point x="1593" y="686" type="line"/>
			<point x="1593" y="1196" type="line"/>
		</contour>
		<contour>
			<point x="1449" y="1085" type="line"/>
			<point x="1723" y="1085" type="line"/>
			<point x="1708" y="1329" type="line"/>
			<point x="1449" y="1329" type="line"/>
		</contour>
	</outline>
</glyph>
<glyph name="VowelI.bn" format="2">
  <advance width="890"/>
  <unicode hex="0987"/>
  <note>
VowelI.bn
</note>
  <anchor x="621" y="125" name="bottom1"/>
  <anchor x="377" y="1543" name="top"/>
  <anchor x="637" y="1618" name="top2"/>
  <outline>
    <contour>
      <point x="842" y="-218" type="line"/>
      <point x="862" y="60" type="line"/>
      <point x="589" y="185" type="line"/>
      <point x="512" y="219" type="line"/>
      <point x="527" y="300" type="line"/>
      <point x="329" y="258" type="line"/>
      <point x="402" y="238"/>
      <point x="460" y="228"/>
      <point x="504" y="228" type="curve" smooth="yes"/>
      <point x="712" y="228"/>
      <point x="825" y="344"/>
      <point x="825" y="560" type="curve" smooth="yes"/>
      <point x="825" y="747" type="line" smooth="yes"/>
      <point x="825" y="984"/>
      <point x="699" y="1100"/>
      <point x="450" y="1100" type="curve" smooth="yes"/>
      <point x="210" y="1100"/>
      <point x="87" y="984"/>
      <point x="87" y="748" type="curve" smooth="yes"/>
      <point x="87" y="702"/>
      <point x="87" y="603"/>
      <point x="87" y="543" type="curve"/>
      <point x="387" y="543" type="line"/>
      <point x="387" y="604"/>
      <point x="387" y="703"/>
      <point x="387" y="751" type="curve" smooth="yes"/>
      <point x="387" y="821"/>
      <point x="409" y="852"/>
      <point x="455" y="852" type="curve" smooth="yes"/>
      <point x="502" y="852"/>
      <point x="523" y="821"/>
      <point x="523" y="751" type="curve" smooth="yes"/>
      <point x="523" y="562" type="line" smooth="yes"/>
      <point x="523" y="470"/>
      <point x="458" y="415"/>
      <point x="339" y="415" type="curve" smooth="yes"/>
      <point x="282" y="415"/>
      <point x="214" y="421"/>
      <point x="132" y="434" type="curve" smooth="yes"/>
      <point x="93" y="440" type="line"/>
      <point x="73" y="160" type="line"/>
    </contour>
    <contour>
      <point x="-21" y="1085" type="line"/>
      <point x="948" y="1085" type="line"/>
      <point x="933" y="1329" type="line"/>
      <point x="-36" y="1329" type="line"/>
    </contour>
    <contour>
      <point x="884" y="1397" type="line"/>
      <point x="884" y="1405"/>
      <point x="884" y="1412"/>
      <point x="884" y="1420" type="curve" smooth="yes"/>
      <point x="884" y="1640"/>
      <point x="746" y="1696"/>
      <point x="508" y="1696" type="curve" smooth="yes"/>
      <point x="394" y="1696" type="line" smooth="yes"/>
      <point x="304" y="1696"/>
      <point x="256" y="1725"/>
      <point x="251" y="1791" type="curve" smooth="yes"/>
      <point x="249" y="1817" type="line"/>
      <point x="-13" y="1817" type="line"/>
      <point x="-13" y="1772" type="line" smooth="yes"/>
      <point x="-13" y="1558"/>
      <point x="112" y="1452"/>
      <point x="356" y="1452" type="curve" smooth="yes"/>
      <point x="474" y="1452" type="line" smooth="yes"/>
      <point x="570" y="1452"/>
      <point x="608" y="1436"/>
      <point x="608" y="1372" type="curve" smooth="yes"/>
      <point x="608" y="1338"/>
      <point x="599" y="1304"/>
      <point x="587" y="1281" type="curve"/>
      <point x="674" y="1311" type="line"/>
    </contour>
  </outline>
</glyph>
<glyph name="VowelIi.bn" format="2">
	<advance width="1245"/>
	<unicode hex="0988"/>
	<anchor x="675" y="1543" name="top"/>
	<anchor x="935" y="1618" name="top2"/>
	<outline>
		<contour>
			<point x="862" y="-30" type="line"/>
			<point x="1159" y="-30" type="line"/>
			<point x="1159" y="909" type="line"/>
			<point x="898" y="909" type="line"/>
			<point x="792" y="751"/>
			<point x="707" y="639"/>
			<point x="596" y="491" type="curve"/>
			<point x="631" y="488" type="line"/>
			<point x="701" y="584"/>
			<point x="741" y="692"/>
			<point x="741" y="809" type="curve" smooth="yes"/>
			<point x="741" y="837" type="line" smooth="yes"/>
			<point x="741" y="1008"/>
			<point x="631" y="1099"/>
			<point x="424" y="1099" type="curve" smooth="yes"/>
			<point x="187" y="1099"/>
			<point x="81" y="993"/>
			<point x="81" y="760" type="curve" smooth="yes"/>
			<point x="81" y="686"/>
			<point x="81" y="599"/>
			<point x="81" y="542" type="curve"/>
			<point x="381" y="542" type="line"/>
			<point x="381" y="606"/>
			<point x="381" y="704"/>
			<point x="381" y="774" type="curve" smooth="yes"/>
			<point x="381" y="827"/>
			<point x="396" y="848"/>
			<point x="426" y="848" type="curve" smooth="yes"/>
			<point x="456" y="848"/>
			<point x="471" y="827"/>
			<point x="471" y="774" type="curve" smooth="yes"/>
			<point x="471" y="562" type="line" smooth="yes"/>
			<point x="471" y="455"/>
			<point x="399" y="416"/>
			<point x="263" y="416" type="curve" smooth="yes"/>
			<point x="219" y="416"/>
			<point x="172" y="423"/>
			<point x="133" y="430" type="curve" smooth="yes"/>
			<point x="74" y="441" type="line"/>
			<point x="74" y="182" type="line"/>
			<point x="123" y="165"/>
			<point x="206" y="149"/>
			<point x="293" y="149" type="curve" smooth="yes"/>
			<point x="491" y="149"/>
			<point x="607" y="217"/>
			<point x="730" y="357" type="curve" smooth="yes"/>
			<point x="813" y="451"/>
			<point x="875" y="530"/>
			<point x="1047" y="758" type="curve"/>
			<point x="890" y="753" type="line"/>
			<point x="862" y="361" type="line"/>
		</contour>
		<contour>
			<point x="-44" y="1085" type="line"/>
			<point x="1309" y="1085" type="line"/>
			<point x="1294" y="1329" type="line"/>
			<point x="-59" y="1329" type="line"/>
		</contour>
		<contour>
			<point x="1182" y="1397" type="line"/>
			<point x="1182" y="1405"/>
			<point x="1182" y="1412"/>
			<point x="1182" y="1420" type="curve" smooth="yes"/>
			<point x="1182" y="1640"/>
			<point x="1044" y="1697"/>
			<point x="806" y="1697" type="curve" smooth="yes"/>
			<point x="481" y="1697" type="line" smooth="yes"/>
			<point x="391" y="1697"/>
			<point x="343" y="1726"/>
			<point x="338" y="1791" type="curve" smooth="yes"/>
			<point x="336" y="1817" type="line"/>
			<point x="74" y="1817" type="line"/>
			<point x="74" y="1772" type="line" smooth="yes"/>
			<point x="74" y="1557"/>
			<point x="199" y="1451"/>
			<point x="443" y="1451" type="curve" smooth="yes"/>
			<point x="772" y="1451" type="line" smooth="yes"/>
			<point x="868" y="1451"/>
			<point x="906" y="1435"/>
			<point x="906" y="1372" type="curve" smooth="yes"/>
			<point x="906" y="1338"/>
			<point x="897" y="1304"/>
			<point x="885" y="1281" type="curve"/>
			<point x="972" y="1311" type="line"/>
		</contour>
	</outline>
</glyph>
<glyph name="VowelU.bn" format="2">
	<advance width="1197"/>
	<unicode hex="0989"/>
	<anchor x="871" y="189" name="bottom1"/>
	<anchor x="641" y="1543" name="top"/>
	<anchor x="901" y="1618" name="top2"/>
	<note>
		VowelU.bn
	</note>
	<outline>
		<contour>
			<point x="373" y="530" type="curve" smooth="yes"/>
			<point x="346" y="953" type="line"/>
			<point x="55" y="953" type="line"/>
			<point x="78" y="504" type="line" smooth="yes"/>
			<point x="95" y="177"/>
			<point x="288" y="0"/>
			<point x="624" y="0" type="curve" smooth="yes"/>
			<point x="969" y="0"/>
			<point x="1150" y="176"/>
			<point x="1150" y="506" type="curve" smooth="yes"/>
			<point x="1150" y="603"/>
			<point x="1148" y="701"/>
			<point x="1127" y="912" type="curve"/>
			<point x="885" y="923" type="line"/>
			<point x="866" y="849" type="line" smooth="yes"/>
			<point x="849" y="782"/>
			<point x="830" y="752"/>
			<point x="795" y="752" type="curve" smooth="yes"/>
			<point x="761" y="752"/>
			<point x="747" y="768"/>
			<point x="747" y="825" type="curve" smooth="yes"/>
			<point x="747" y="1251" type="line"/>
			<point x="451" y="1251" type="line"/>
			<point x="451" y="789" type="line" smooth="yes"/>
			<point x="451" y="594"/>
			<point x="543" y="492"/>
			<point x="717" y="492" type="curve" smooth="yes"/>
			<point x="841" y="492"/>
			<point x="922" y="580"/>
			<point x="959" y="685" type="curve" smooth="yes"/>
			<point x="1008" y="825" type="line"/>
			<point x="849" y="677" type="line"/>
			<point x="849" y="623"/>
			<point x="849" y="564"/>
			<point x="849" y="506" type="curve" smooth="yes"/>
			<point x="849" y="358"/>
			<point x="772" y="278"/>
			<point x="617" y="278" type="curve" smooth="yes"/>
			<point x="468" y="278"/>
			<point x="383" y="367"/>
		</contour>
		<contour>
			<point x="-59" y="1085" type="line"/>
			<point x="1297" y="1085" type="line"/>
			<point x="1282" y="1329" type="line"/>
			<point x="-74" y="1329" type="line"/>
		</contour>
		<contour>
			<point x="1148" y="1397" type="line"/>
			<point x="1148" y="1405"/>
			<point x="1148" y="1412"/>
			<point x="1148" y="1420" type="curve" smooth="yes"/>
			<point x="1148" y="1640"/>
			<point x="1010" y="1696"/>
			<point x="772" y="1696" type="curve" smooth="yes"/>
			<point x="478" y="1696" type="line" smooth="yes"/>
			<point x="388" y="1696"/>
			<point x="340" y="1725"/>
			<point x="335" y="1791" type="curve" smooth="yes"/>
			<point x="333" y="1817" type="line"/>
			<point x="71" y="1817" type="line"/>
			<point x="71" y="1772" type="line" smooth="yes"/>
			<point x="71" y="1558"/>
			<point x="196" y="1452"/>
			<point x="440" y="1452" type="curve" smooth="yes"/>
			<point x="738" y="1452" type="line" smooth="yes"/>
			<point x="834" y="1452"/>
			<point x="872" y="1436"/>
			<point x="872" y="1372" type="curve" smooth="yes"/>
			<point x="872" y="1338"/>
			<point x="863" y="1304"/>
			<point x="851" y="1281" type="curve"/>
			<point x="938" y="1311" type="line"/>
		</contour>
	</outline>
</glyph>
<glyph name="VowelUu.bn" format="2">
	<advance width="1346"/>
	<unicode hex="098A"/>
	<anchor x="790" y="1543" name="top"/>
	<anchor x="1050" y="1618" name="top2"/>
	<outline>
		<contour>
			<point x="600" y="1251" type="line"/>
			<point x="600" y="789" type="line" smooth="yes"/>
			<point x="600" y="594"/>
			<point x="692" y="492"/>
			<point x="866" y="492" type="curve" smooth="yes"/>
			<point x="990" y="492"/>
			<point x="1072" y="581"/>
			<point x="1108" y="685" type="curve" smooth="yes"/>
			<point x="1157" y="825" type="line"/>
			<point x="998" y="677" type="line"/>
			<point x="998" y="621"/>
			<point x="998" y="563"/>
			<point x="998" y="506" type="curve" smooth="yes"/>
			<point x="998" y="357"/>
			<point x="917" y="278"/>
			<point x="785" y="278" type="curve" smooth="yes"/>
			<point x="627" y="278"/>
			<point x="539" y="367"/>
			<point x="528" y="548" type="curve" smooth="yes"/>
			<point x="504" y="953" type="line"/>
			<point x="297" y="953" type="line"/>
			<point x="320" y="580" type="line" smooth="yes"/>
			<point x="333" y="364"/>
			<point x="387" y="237"/>
			<point x="606" y="174" type="curve"/>
			<point x="511" y="293" type="line"/>
			<point x="469" y="170" type="line"/>
			<point x="509" y="210" type="line"/>
			<point x="372" y="237"/>
			<point x="277" y="360"/>
			<point x="263" y="584" type="curve" smooth="yes"/>
			<point x="244" y="881" type="line"/>
			<point x="48" y="881" type="line"/>
			<point x="69" y="541" type="line" smooth="yes"/>
			<point x="91" y="179"/>
			<point x="334" y="0"/>
			<point x="734" y="0" type="curve" smooth="yes"/>
			<point x="1099" y="0"/>
			<point x="1299" y="165"/>
			<point x="1299" y="507" type="curve" smooth="yes"/>
			<point x="1299" y="639"/>
			<point x="1297" y="701"/>
			<point x="1276" y="912" type="curve"/>
			<point x="1034" y="923" type="line"/>
			<point x="1015" y="849" type="line" smooth="yes"/>
			<point x="998" y="783"/>
			<point x="979" y="752"/>
			<point x="944" y="752" type="curve" smooth="yes"/>
			<point x="909" y="752"/>
			<point x="896" y="768"/>
			<point x="896" y="825" type="curve" smooth="yes"/>
			<point x="896" y="1251" type="line"/>
		</contour>
		<contour>
			<point x="-69" y="1085" type="line"/>
			<point x="1446" y="1085" type="line"/>
			<point x="1431" y="1329" type="line"/>
			<point x="-84" y="1329" type="line"/>
		</contour>
		<contour>
			<point x="1297" y="1397" type="line"/>
			<point x="1297" y="1405"/>
			<point x="1297" y="1412"/>
			<point x="1297" y="1420" type="curve" smooth="yes"/>
			<point x="1297" y="1640"/>
			<point x="1159" y="1697"/>
			<point x="921" y="1697" type="curve" smooth="yes"/>
			<point x="548" y="1697" type="line" smooth="yes"/>
			<point x="458" y="1697"/>
			<point x="410" y="1726"/>
			<point x="405" y="1791" type="curve" smooth="yes"/>
			<point x="403" y="1817" type="line"/>
			<point x="141" y="1817" type="line"/>
			<point x="141" y="1772" type="line" smooth="yes"/>
			<point x="141" y="1557"/>
			<point x="266" y="1451"/>
			<point x="510" y="1451" type="curve" smooth="yes"/>
			<point x="887" y="1451" type="line" smooth="yes"/>
			<point x="983" y="1451"/>
			<point x="1021" y="1435"/>
			<point x="1021" y="1372" type="curve" smooth="yes"/>
			<point x="1021" y="1338"/>
			<point x="1012" y="1304"/>
			<point x="1000" y="1281" type="curve"/>
			<point x="1087" y="1311" type="line"/>
		</contour>
	</outline>
</glyph>
<glyph name="VowelLru.bn" format="2">
  <advance width="1210"/>
  <unicode hex="098C"/>
  <anchor x="534" y="1545" name="top2"/>
  <outline>
    <contour>
      <point x="61" y="0" type="curve"/>
      <point x="358" y="0" type="line"/>
      <point x="358" y="47"/>
      <point x="358" y="132"/>
      <point x="358" y="206" type="curve" smooth="yes"/>
      <point x="358" y="392" type="line" smooth="yes"/>
      <point x="358" y="457"/>
      <point x="379" y="478"/>
      <point x="418" y="478" type="curve" smooth="yes"/>
      <point x="453" y="478"/>
      <point x="477" y="457"/>
      <point x="477" y="392" type="curve" smooth="yes"/>
      <point x="477" y="0" type="line"/>
      <point x="739" y="0" type="line" smooth="yes"/>
      <point x="1015" y="0"/>
      <point x="1163" y="151"/>
      <point x="1163" y="390" type="curve" smooth="yes"/>
      <point x="1163" y="485" type="line" smooth="yes"/>
      <point x="1163" y="806"/>
      <point x="1045" y="964"/>
      <point x="714" y="1085" type="curve" smooth="yes"/>
      <point x="643" y="1111" type="line" smooth="yes"/>
      <point x="409" y="1197"/>
      <point x="397" y="1242"/>
      <point x="391" y="1331" type="curve" smooth="yes"/>
      <point x="390" y="1345" type="line"/>
      <point x="110" y="1345" type="line"/>
      <point x="110" y="1323" type="line" smooth="yes"/>
      <point x="110" y="1142"/>
      <point x="161" y="1005"/>
      <point x="475" y="893" type="curve" smooth="yes"/>
      <point x="545" y="868" type="line" smooth="yes"/>
      <point x="800" y="777"/>
      <point x="863" y="701"/>
      <point x="863" y="481" type="curve" smooth="yes"/>
      <point x="863" y="400" type="line" smooth="yes"/>
      <point x="863" y="281"/>
      <point x="818" y="249"/>
      <point x="741" y="249" type="curve" smooth="yes"/>
      <point x="698" y="249" type="line"/>
      <point x="760" y="153" type="line"/>
      <point x="760" y="384" type="line" smooth="yes"/>
      <point x="760" y="619"/>
      <point x="624" y="743"/>
      <point x="404" y="743" type="curve" smooth="yes"/>
      <point x="180" y="743"/>
      <point x="61" y="619"/>
      <point x="61" y="388" type="curve" smooth="yes"/>
      <point x="61" y="206" type="line" smooth="yes"/>
      <point x="61" y="129"/>
      <point x="61" y="55"/>
    </contour>
  </outline>
</glyph>
<glyph name="VowelE.bn" format="2">
  <advance width="1135"/>
  <unicode hex="098F"/>
  <anchor x="384" y="1763" name="top2"/>
  <outline>
    <contour>
      <point x="655" y="505" type="curve"/>
      <point x="675" y="756" type="line"/>
      <point x="660" y="757"/>
      <point x="626" y="759"/>
      <point x="617" y="760" type="curve" smooth="yes"/>
      <point x="598" y="762"/>
      <point x="583" y="779"/>
      <point x="583" y="803" type="curve" smooth="yes"/>
      <point x="583" y="831"/>
      <point x="594" y="972"/>
      <point x="596" y="992" type="curve" smooth="yes"/>
      <point x="603" y="1058"/>
      <point x="630" y="1090"/>
      <point x="674" y="1090" type="curve" smooth="yes"/>
      <point x="725" y="1090"/>
      <point x="743" y="1058"/>
      <point x="743" y="978" type="curve" smooth="yes"/>
      <point x="743" y="408" type="line"/>
      <point x="760" y="202" type="line"/>
      <point x="781" y="-2" type="line"/>
      <point x="1045" y="-2" type="line"/>
      <point x="1045" y="964" type="line" smooth="yes"/>
      <point x="1045" y="1230"/>
      <point x="919" y="1355"/>
      <point x="678" y="1355" type="curve" smooth="yes"/>
      <point x="468" y="1355"/>
      <point x="328" y="1239"/>
      <point x="298" y="1019" type="curve" smooth="yes"/>
      <point x="288" y="946"/>
      <point x="279" y="805"/>
      <point x="279" y="754" type="curve" smooth="yes"/>
      <point x="279" y="598"/>
      <point x="388" y="505"/>
      <point x="538" y="505" type="curve" smooth="yes"/>
      <point x="575" y="505"/>
      <point x="614" y="505"/>
    </contour>
    <contour>
      <point x="781" y="-2" type="line"/>
      <point x="770" y="246" type="line"/>
      <point x="745" y="246" type="line"/>
      <point x="719" y="327"/>
      <point x="655" y="365"/>
      <point x="556" y="365" type="curve" smooth="yes"/>
      <point x="473" y="365" type="line" smooth="yes"/>
      <point x="371" y="365"/>
      <point x="330" y="407"/>
      <point x="326" y="498" type="curve" smooth="yes"/>
      <point x="324" y="544" type="line"/>
      <point x="48" y="544" type="line"/>
      <point x="48" y="528"/>
      <point x="48" y="504"/>
      <point x="48" y="488" type="curve" smooth="yes"/>
      <point x="48" y="222"/>
      <point x="173" y="91"/>
      <point x="468" y="91" type="curve" smooth="yes"/>
      <point x="609" y="91" type="line" smooth="yes"/>
      <point x="698" y="91"/>
      <point x="748" y="64"/>
      <point x="769" y="22" type="curve" smooth="yes"/>
    </contour>
  </outline>
</glyph>
<glyph name="VowelAi.bn" format="2">
  <advance width="1496"/>
  <unicode hex="0990"/>
  <anchor x="1092" y="1589" name="top2"/>
  <outline>
    <contour>
      <point x="1029" y="546" type="curve" smooth="yes"/>
      <point x="1325" y="546"/>
      <point x="1460" y="699"/>
      <point x="1460" y="977" type="curve" smooth="yes"/>
      <point x="1460" y="1041" type="line" smooth="yes"/>
      <point x="1460" y="1293"/>
      <point x="1408" y="1491"/>
      <point x="1002" y="1667" type="curve" smooth="yes"/>
      <point x="903" y="1710" type="line" smooth="yes"/>
      <point x="731" y="1785"/>
      <point x="712" y="1828"/>
      <point x="706" y="1917" type="curve" smooth="yes"/>
      <point x="705" y="1933" type="line"/>
      <point x="424" y="1933" type="line"/>
      <point x="424" y="1910" type="line" smooth="yes"/>
      <point x="424" y="1749"/>
      <point x="455" y="1625"/>
      <point x="740" y="1500" type="curve" smooth="yes"/>
      <point x="840" y="1456" type="line" smooth="yes"/>
      <point x="1165" y="1313"/>
      <point x="1162" y="1211"/>
      <point x="1162" y="1036" type="curve" smooth="yes"/>
      <point x="1162" y="977" type="line" smooth="yes"/>
      <point x="1162" y="852"/>
      <point x="1129" y="801"/>
      <point x="1037" y="801" type="curve" smooth="yes"/>
      <point x="1005" y="801"/>
      <point x="976" y="801"/>
      <point x="957" y="801" type="curve"/>
      <point x="854" y="546" type="line"/>
      <point x="957" y="546" type="line"/>
      <point x="946" y="546"/>
      <point x="989" y="546"/>
    </contour>
    <contour>
      <point x="655" y="505" type="curve"/>
      <point x="675" y="756" type="line"/>
      <point x="660" y="757"/>
      <point x="626" y="759"/>
      <point x="617" y="760" type="curve" smooth="yes"/>
      <point x="598" y="762"/>
      <point x="583" y="779"/>
      <point x="583" y="803" type="curve" smooth="yes"/>
      <point x="583" y="831"/>
      <point x="594" y="972"/>
      <point x="596" y="992" type="curve" smooth="yes"/>
      <point x="603" y="1058"/>
      <point x="630" y="1090"/>
      <point x="674" y="1090" type="curve" smooth="yes"/>
      <point x="725" y="1090"/>
      <point x="743" y="1058"/>
      <point x="743" y="978" type="curve" smooth="yes"/>
      <point x="743" y="408" type="line"/>
      <point x="760" y="202" type="line"/>
      <point x="781" y="-2" type="line"/>
      <point x="1045" y="-2" type="line"/>
      <point x="1045" y="964" type="line" smooth="yes"/>
      <point x="1045" y="1230"/>
      <point x="919" y="1355"/>
      <point x="678" y="1355" type="curve" smooth="yes"/>
      <point x="468" y="1355"/>
      <point x="328" y="1239"/>
      <point x="298" y="1019" type="curve" smooth="yes"/>
      <point x="288" y="946"/>
      <point x="279" y="805"/>
      <point x="279" y="754" type="curve" smooth="yes"/>
      <point x="279" y="598"/>
      <point x="388" y="505"/>
      <point x="538" y="505" type="curve" smooth="yes"/>
      <point x="575" y="505"/>
      <point x="614" y="505"/>
    </contour>
    <contour>
      <point x="781" y="-2" type="line"/>
      <point x="770" y="246" type="line"/>
      <point x="745" y="246" type="line"/>
      <point x="719" y="327"/>
      <point x="655" y="365"/>
      <point x="556" y="365" type="curve" smooth="yes"/>
      <point x="473" y="365" type="line" smooth="yes"/>
      <point x="371" y="365"/>
      <point x="330" y="407"/>
      <point x="326" y="498" type="curve" smooth="yes"/>
      <point x="324" y="544" type="line"/>
      <point x="48" y="544" type="line"/>
      <point x="48" y="528"/>
      <point x="48" y="504"/>
      <point x="48" y="488" type="curve" smooth="yes"/>
      <point x="48" y="222"/>
      <point x="173" y="91"/>
      <point x="468" y="91" type="curve" smooth="yes"/>
      <point x="609" y="91" type="line" smooth="yes"/>
      <point x="698" y="91"/>
      <point x="748" y="64"/>
      <point x="769" y="22" type="curve" smooth="yes"/>
    </contour>
  </outline>
</glyph>
<glyph name="VowelO.bn" format="2">
	<advance width="1012"/>
	<unicode hex="0993"/>
	<anchor x="231" y="1763" name="top2"/>
	<outline>
		<contour>
			<point x="56" y="662" type="line"/>
			<point x="67" y="436" type="line" smooth="yes"/>
			<point x="81" y="148"/>
			<point x="243" y="0"/>
			<point x="536" y="0" type="curve" smooth="yes"/>
			<point x="797" y="0"/>
			<point x="933" y="110"/>
			<point x="933" y="311" type="curve" smooth="yes"/>
			<point x="933" y="327" type="line" smooth="yes"/>
			<point x="933" y="475"/>
			<point x="872" y="576"/>
			<point x="720" y="601" type="curve"/>
			<point x="720" y="610" type="line"/>
			<point x="871" y="633"/>
			<point x="922" y="722"/>
			<point x="922" y="874" type="curve" smooth="yes"/>
			<point x="922" y="969" type="line" smooth="yes"/>
			<point x="922" y="1222"/>
			<point x="789" y="1357"/>
			<point x="544" y="1357" type="curve" smooth="yes"/>
			<point x="299" y="1357"/>
			<point x="170" y="1227"/>
			<point x="170" y="965" type="curve" smooth="yes"/>
			<point x="170" y="908"/>
			<point x="170" y="851"/>
			<point x="170" y="794" type="curve"/>
			<point x="470" y="794" type="line"/>
			<point x="470" y="856"/>
			<point x="470" y="917"/>
			<point x="470" y="979" type="curve" smooth="yes"/>
			<point x="470" y="1055"/>
			<point x="495" y="1092"/>
			<point x="545" y="1092" type="curve" smooth="yes"/>
			<point x="595" y="1092"/>
			<point x="619" y="1055"/>
			<point x="619" y="979" type="curve" smooth="yes"/>
			<point x="619" y="870" type="line" smooth="yes"/>
			<point x="619" y="771"/>
			<point x="582" y="735"/>
			<point x="513" y="731" type="curve" smooth="yes"/>
			<point x="451" y="727" type="line"/>
			<point x="451" y="478" type="line"/>
			<point x="513" y="474" type="line" smooth="yes"/>
			<point x="587" y="471"/>
			<point x="621" y="436"/>
			<point x="621" y="375" type="curve" smooth="yes"/>
			<point x="621" y="367" type="line" smooth="yes"/>
			<point x="621" y="300"/>
			<point x="583" y="265"/>
			<point x="512" y="265" type="curve" smooth="yes"/>
			<point x="421" y="265"/>
			<point x="366" y="325"/>
			<point x="360" y="440" type="curve" smooth="yes"/>
			<point x="349" y="662" type="line"/>
		</contour>
	</outline>
</glyph>
<glyph name="VowelAu.bn" format="2">
	<advance width="1374"/>
	<unicode hex="0994"/>
	<anchor x="992" y="1589" name="top2"/>
	<outline>
		<contour>
			<point x="908" y="590" type="curve" smooth="yes"/>
			<point x="1197" y="590"/>
			<point x="1338" y="723"/>
			<point x="1338" y="996" type="curve" smooth="yes"/>
			<point x="1338" y="1041" type="line" smooth="yes"/>
			<point x="1338" y="1293"/>
			<point x="1286" y="1491"/>
			<point x="880" y="1667" type="curve" smooth="yes"/>
			<point x="781" y="1710" type="line" smooth="yes"/>
			<point x="604" y="1787"/>
			<point x="594" y="1829"/>
			<point x="584" y="1916" type="curve" smooth="yes"/>
			<point x="582" y="1933" type="line"/>
			<point x="302" y="1933" type="line"/>
			<point x="302" y="1910" type="line" smooth="yes"/>
			<point x="302" y="1749"/>
			<point x="329" y="1625"/>
			<point x="619" y="1499" type="curve" smooth="yes"/>
			<point x="718" y="1456" type="line" smooth="yes"/>
			<point x="1043" y="1315"/>
			<point x="1040" y="1210"/>
			<point x="1040" y="1037" type="curve" smooth="yes"/>
			<point x="1040" y="996" type="line" smooth="yes"/>
			<point x="1040" y="882"/>
			<point x="1007" y="841"/>
			<point x="915" y="841" type="curve" smooth="yes"/>
			<point x="894" y="841"/>
			<point x="855" y="841"/>
			<point x="836" y="841" type="curve"/>
			<point x="660" y="717" type="line"/>
			<point x="675" y="590" type="line"/>
			<point x="779" y="590"/>
			<point x="556" y="590"/>
		</contour>
		<contour>
			<point x="56" y="662" type="line"/>
			<point x="67" y="436" type="line" smooth="yes"/>
			<point x="81" y="148"/>
			<point x="243" y="0"/>
			<point x="536" y="0" type="curve" smooth="yes"/>
			<point x="797" y="0"/>
			<point x="933" y="110"/>
			<point x="933" y="311" type="curve" smooth="yes"/>
			<point x="933" y="327" type="line" smooth="yes"/>
			<point x="933" y="472"/>
			<point x="872" y="571"/>
			<point x="720" y="596" type="curve"/>
			<point x="720" y="605" type="line"/>
			<point x="864" y="628"/>
			<point x="912" y="719"/>
			<point x="912" y="874" type="curve" smooth="yes"/>
			<point x="912" y="969" type="line" smooth="yes"/>
			<point x="912" y="1222"/>
			<point x="783" y="1357"/>
			<point x="544" y="1357" type="curve" smooth="yes"/>
			<point x="299" y="1357"/>
			<point x="170" y="1227"/>
			<point x="170" y="965" type="curve" smooth="yes"/>
			<point x="170" y="908"/>
			<point x="170" y="851"/>
			<point x="170" y="794" type="curve"/>
			<point x="470" y="794" type="line"/>
			<point x="470" y="856"/>
			<point x="470" y="917"/>
			<point x="470" y="979" type="curve" smooth="yes"/>
			<point x="470" y="1055"/>
			<point x="495" y="1092"/>
			<point x="545" y="1092" type="curve" smooth="yes"/>
			<point x="595" y="1092"/>
			<point x="619" y="1055"/>
			<point x="619" y="979" type="curve" smooth="yes"/>
			<point x="619" y="870" type="line" smooth="yes"/>
			<point x="619" y="766"/>
			<point x="582" y="728"/>
			<point x="513" y="724" type="curve" smooth="yes"/>
			<point x="451" y="720" type="line"/>
			<point x="451" y="481" type="line"/>
			<point x="513" y="477" type="line" smooth="yes"/>
			<point x="587" y="472"/>
			<point x="621" y="438"/>
			<point x="621" y="375" type="curve" smooth="yes"/>
			<point x="621" y="367" type="line" smooth="yes"/>
			<point x="621" y="300"/>
			<point x="583" y="265"/>
			<point x="512" y="265" type="curve" smooth="yes"/>
			<point x="421" y="265"/>
			<point x="366" y="325"/>
			<point x="360" y="440" type="curve" smooth="yes"/>
			<point x="349" y="662" type="line"/>
		</contour>
	</outline>
</glyph>
<glyph name="Ka.bn" format="2">
  <advance width="1269"/>
  <unicode hex="0995"/>
  <anchor x="811" y="-2" name="bottom1"/>
  <anchor x="473" y="1468" name="top"/>
  <anchor x="361" y="1763" name="top2"/>
  <outline>
    <contour>
      <point x="561" y="-2" type="line"/>
      <point x="811" y="-2" type="line"/>
      <point x="811" y="900" type="line"/>
      <point x="805" y="968" type="line"/>
      <point x="805" y="1147" type="line"/>
      <point x="537" y="1147" type="line"/>
      <point x="537" y="966" type="line"/>
      <point x="524" y="913" type="line"/>
      <point x="524" y="499" type="line"/>
      <point x="539" y="231" type="line"/>
      <point x="550" y="319" type="line"/>
      <point x="281" y="522" type="line"/>
      <point x="365" y="274" type="line"/>
      <point x="365" y="764" type="line"/>
      <point x="288" y="604" type="line"/>
      <point x="403" y="695"/>
      <point x="525" y="767"/>
      <point x="661" y="814" type="curve"/>
      <point x="580" y="1060" type="line"/>
      <point x="430" y="1009"/>
      <point x="228" y="909"/>
      <point x="69" y="786" type="curve"/>
      <point x="69" y="348" type="line"/>
    </contour>
    <contour>
      <point x="887" y="229" type="line"/>
      <point x="895" y="229"/>
      <point x="901" y="229"/>
      <point x="909" y="229" type="curve" smooth="yes"/>
      <point x="1126" y="229"/>
      <point x="1225" y="321"/>
      <point x="1225" y="550" type="curve" smooth="yes"/>
      <point x="1225" y="640" type="line" smooth="yes"/>
      <point x="1225" y="858"/>
      <point x="1125" y="974"/>
      <point x="882" y="1038" type="curve" smooth="yes"/>
      <point x="741" y="1075" type="line"/>
      <point x="741" y="799" type="line"/>
      <point x="851" y="770" type="line" smooth="yes"/>
      <point x="909" y="755"/>
      <point x="931" y="723"/>
      <point x="931" y="655" type="curve" smooth="yes"/>
      <point x="931" y="525" type="line" smooth="yes"/>
      <point x="931" y="496"/>
      <point x="915" y="480"/>
      <point x="891" y="480" type="curve" smooth="yes"/>
      <point x="886" y="480"/>
      <point x="882" y="480"/>
      <point x="877" y="480" type="curve"/>
    </contour>
    <contour>
      <point x="-15" y="1085" type="line"/>
      <point x="1305" y="1085" type="line"/>
      <point x="1290" y="1329" type="line"/>
      <point x="-30" y="1329" type="line"/>
    </contour>
    <contour>
      <point x="661" y="1196" type="line"/>
      <point x="661" y="686" type="line"/>
      <point x="805" y="686" type="line"/>
      <point x="805" y="1196" type="line"/>
    </contour>
    <contour>
      <point x="661" y="1085" type="line"/>
      <point x="935" y="1085" type="line"/>
      <point x="920" y="1329" type="line"/>
      <point x="661" y="1329" type="line"/>
    </contour>
  </outline>
</glyph>
<glyph name="Ca.bn" format="2">
	<advance width="918"/>
	<unicode hex="099A"/>
	<anchor x="678" y="189" name="bottom1"/>
	<anchor x="67" y="1468" name="top"/>
	<anchor x="56" y="1763" name="top2"/>
	<outline>
		<contour>
			<point x="480" y="0" type="curve" smooth="yes"/>
			<point x="685" y="0"/>
			<point x="817" y="115"/>
			<point x="851" y="293" type="curve" smooth="yes"/>
			<point x="862" y="349"/>
			<point x="882" y="530"/>
			<point x="882" y="595" type="curve" smooth="yes"/>
			<point x="882" y="796"/>
			<point x="792" y="903"/>
			<point x="587" y="947" type="curve" smooth="yes"/>
			<point x="244" y="1019" type="line"/>
			<point x="244" y="756" type="line"/>
			<point x="496" y="700" type="line" smooth="yes"/>
			<point x="551" y="687"/>
			<point x="579" y="654"/>
			<point x="579" y="600" type="curve" smooth="yes"/>
			<point x="579" y="562"/>
			<point x="566" y="434"/>
			<point x="556" y="367" type="curve" smooth="yes"/>
			<point x="549" y="308"/>
			<point x="520" y="274"/>
			<point x="468" y="274" type="curve" smooth="yes"/>
			<point x="407" y="274"/>
			<point x="378" y="304"/>
			<point x="378" y="378" type="curve" smooth="yes"/>
			<point x="378" y="1240" type="line"/>
			<point x="78" y="1240" type="line"/>
			<point x="78" y="386" type="line" smooth="yes"/>
			<point x="78" y="118"/>
			<point x="204" y="0"/>
		</contour>
		<contour>
			<point x="-60" y="1085" type="line"/>
			<point x="967" y="1085" type="line"/>
			<point x="952" y="1329" type="line"/>
			<point x="-75" y="1329" type="line"/>
		</contour>
	</outline>
</glyph>
<glyph name="Ja.bn" format="2">
	<advance width="1528"/>
	<unicode hex="099C"/>
	<anchor x="1460" y="292" name="bottom1"/>
	<anchor x="686" y="1468" name="top"/>
	<anchor x="510" y="1763" name="top2"/>
	<note>
		Ja.bn
	</note>
	<outline>
		<contour>
			<point x="601" y="0" type="curve" smooth="yes"/>
			<point x="911" y="0"/>
			<point x="1073" y="150"/>
			<point x="1073" y="430" type="curve" smooth="yes"/>
			<point x="1073" y="504"/>
			<point x="1070" y="589"/>
			<point x="1062" y="675" type="curve"/>
			<point x="896" y="754" type="line"/>
			<point x="863" y="728" type="line" smooth="yes"/>
			<point x="835" y="706"/>
			<point x="811" y="694"/>
			<point x="789" y="694" type="curve" smooth="yes"/>
			<point x="754" y="694"/>
			<point x="737" y="712"/>
			<point x="737" y="753" type="curve" smooth="yes"/>
			<point x="737" y="874" type="line" smooth="yes"/>
			<point x="737" y="956"/>
			<point x="773" y="1036"/>
			<point x="902" y="1054" type="curve"/>
			<point x="862" y="1163" type="line"/>
			<point x="591" y="1124" type="line"/>
			<point x="480" y="1077"/>
			<point x="444" y="990"/>
			<point x="444" y="901" type="curve" smooth="yes"/>
			<point x="444" y="728" type="line" smooth="yes"/>
			<point x="444" y="561"/>
			<point x="562" y="465"/>
			<point x="734" y="465" type="curve" smooth="yes"/>
			<point x="820" y="465"/>
			<point x="892" y="488"/>
			<point x="976" y="529" type="curve" smooth="yes"/>
			<point x="1021" y="551" type="line"/>
			<point x="796" y="621" type="line"/>
			<point x="796" y="570"/>
			<point x="796" y="523"/>
			<point x="796" y="472" type="curve" smooth="yes"/>
			<point x="796" y="343"/>
			<point x="710" y="277"/>
			<point x="607" y="277" type="curve" smooth="yes"/>
			<point x="466" y="277"/>
			<point x="382" y="360"/>
			<point x="373" y="510" type="curve" smooth="yes"/>
			<point x="346" y="953" type="line"/>
			<point x="55" y="953" type="line"/>
			<point x="78" y="482" type="line" smooth="yes"/>
			<point x="93" y="168"/>
			<point x="282" y="0"/>
		</contour>
		<contour>
			<point x="1166" y="-10" type="curve"/>
			<point x="1460" y="-10" type="line"/>
			<point x="1460" y="82"/>
			<point x="1460" y="197"/>
			<point x="1460" y="292" type="curve" smooth="yes"/>
			<point x="1460" y="488"/>
			<point x="1460" y="766"/>
			<point x="1460" y="899" type="curve"/>
			<point x="1313" y="909"/>
			<point x="1194" y="989"/>
			<point x="1158" y="1112" type="curve"/>
			<point x="866" y="1112" type="line"/>
			<point x="873" y="908"/>
			<point x="1058" y="734"/>
			<point x="1270" y="724" type="curve"/>
			<point x="1186" y="822" type="line"/>
			<point x="1166" y="641"/>
			<point x="1166" y="459"/>
			<point x="1166" y="292" type="curve" smooth="yes"/>
			<point x="1166" y="215"/>
			<point x="1166" y="75"/>
		</contour>
		<contour>
			<point x="-59" y="1085" type="line"/>
			<point x="1621" y="1085" type="line"/>
			<point x="1606" y="1329" type="line"/>
			<point x="-74" y="1329" type="line"/>
		</contour>
	</outline>
</glyph>
<glyph name="Jha.bn" format="2">
  <advance width="1371"/>
  <unicode hex="099D"/>
  <anchor x="848" y="-2" name="bottom1"/>
  <anchor x="516" y="1468" name="top"/>
  <anchor x="354" y="1763" name="top2"/>
  <outline>
    <contour>
      <point x="588" y="-2" type="line"/>
      <point x="848" y="-2" type="line"/>
      <point x="848" y="1162" type="line"/>
      <point x="558" y="1162" type="line"/>
      <point x="558" y="960" type="line"/>
      <point x="548" y="872" type="line"/>
      <point x="548" y="499" type="line"/>
      <point x="562" y="231" type="line"/>
      <point x="577" y="312" type="line"/>
      <point x="273" y="529" type="line"/>
      <point x="370" y="325" type="line"/>
      <point x="370" y="758" type="line"/>
      <point x="279" y="578" type="line"/>
      <point x="395" y="689"/>
      <point x="531" y="759"/>
      <point x="690" y="809" type="curve"/>
      <point x="607" y="1066" type="line"/>
      <point x="405" y="995"/>
      <point x="199" y="882"/>
      <point x="69" y="781" type="curve"/>
      <point x="69" y="344" type="line"/>
    </contour>
    <contour>
      <point x="-15" y="1085" type="line"/>
      <point x="848" y="1085" type="line"/>
      <point x="848" y="1329" type="line"/>
      <point x="-30" y="1329" type="line"/>
    </contour>
    <contour>
      <point x="1025" y="108" type="line"/>
      <point x="1285" y="108" type="line"/>
      <point x="1285" y="1329" type="line"/>
      <point x="985" y="1329" type="line"/>
      <point x="985" y="609" type="line"/>
      <point x="998" y="340" type="line"/>
      <point x="1013" y="392" type="line"/>
      <point x="737" y="582" type="line"/>
      <point x="654" y="345" type="line"/>
    </contour>
    <contour>
      <point x="1141" y="1196" type="line"/>
      <point x="1141" y="686" type="line"/>
      <point x="1285" y="686" type="line"/>
      <point x="1285" y="1196" type="line"/>
    </contour>
    <contour>
      <point x="1141" y="1085" type="line"/>
      <point x="1415" y="1085" type="line"/>
      <point x="1400" y="1329" type="line"/>
      <point x="1141" y="1329" type="line"/>
    </contour>
  </outline>
</glyph>
<glyph name="Tta.bn" format="2">
  <advance width="930"/>
  <unicode hex="099F"/>
  <anchor x="673" y="189" name="bottom1"/>
  <anchor x="407" y="1543" name="top"/>
  <anchor x="667" y="1618" name="top2"/>
  <outline>
    <contour>
      <point x="473" y="0" type="curve" smooth="yes"/>
      <point x="688" y="0"/>
      <point x="828" y="116"/>
      <point x="853" y="310" type="curve" smooth="yes"/>
      <point x="870" y="444"/>
      <point x="889" y="605"/>
      <point x="889" y="650" type="curve" smooth="yes"/>
      <point x="889" y="841"/>
      <point x="782" y="939"/>
      <point x="581" y="939" type="curve" smooth="yes"/>
      <point x="547" y="939"/>
      <point x="529" y="939"/>
      <point x="495" y="939" type="curve"/>
      <point x="472" y="675" type="line"/>
      <point x="508" y="675"/>
      <point x="514" y="675"/>
      <point x="523" y="675" type="curve" smooth="yes"/>
      <point x="567" y="675"/>
      <point x="584" y="644"/>
      <point x="584" y="612" type="curve" smooth="yes"/>
      <point x="584" y="551"/>
      <point x="566" y="419"/>
      <point x="559" y="369" type="curve" smooth="yes"/>
      <point x="550" y="304"/>
      <point x="522" y="274"/>
      <point x="469" y="274" type="curve" smooth="yes"/>
      <point x="409" y="274"/>
      <point x="378" y="305"/>
      <point x="378" y="382" type="curve" smooth="yes"/>
      <point x="378" y="1240" type="line"/>
      <point x="77" y="1240" type="line"/>
      <point x="77" y="393" type="line" smooth="yes"/>
      <point x="77" y="122"/>
      <point x="203" y="0"/>
    </contour>
    <contour>
      <point x="-60" y="1085" type="line"/>
      <point x="966" y="1085" type="line"/>
      <point x="951" y="1329" type="line"/>
      <point x="-75" y="1329" type="line"/>
    </contour>
    <contour>
      <point x="914" y="1397" type="line"/>
      <point x="914" y="1405"/>
      <point x="914" y="1412"/>
      <point x="914" y="1420" type="curve" smooth="yes"/>
      <point x="914" y="1640"/>
      <point x="776" y="1696"/>
      <point x="538" y="1696" type="curve" smooth="yes"/>
      <point x="424" y="1696" type="line" smooth="yes"/>
      <point x="334" y="1696"/>
      <point x="286" y="1725"/>
      <point x="281" y="1791" type="curve" smooth="yes"/>
      <point x="279" y="1817" type="line"/>
      <point x="17" y="1817" type="line"/>
      <point x="17" y="1772" type="line" smooth="yes"/>
      <point x="17" y="1558"/>
      <point x="142" y="1452"/>
      <point x="386" y="1452" type="curve" smooth="yes"/>
      <point x="504" y="1452" type="line" smooth="yes"/>
      <point x="600" y="1452"/>
      <point x="638" y="1436"/>
      <point x="638" y="1372" type="curve" smooth="yes"/>
      <point x="638" y="1338"/>
      <point x="629" y="1304"/>
      <point x="617" y="1281" type="curve"/>
      <point x="704" y="1311" type="line"/>
    </contour>
  </outline>
</glyph>
<glyph name="Ta.bn" format="2">
	<advance width="1207"/>
	<unicode hex="09A4"/>
	<anchor x="872" y="193" name="bottom1"/>
	<anchor x="586" y="1468" name="top"/>
	<anchor x="454" y="1763" name="top2"/>
	<outline>
		<contour>
			<point x="632" y="0" type="curve" smooth="yes"/>
			<point x="961" y="0"/>
			<point x="1151" y="164"/>
			<point x="1151" y="519" type="curve" smooth="yes"/>
			<point x="1151" y="757" type="line" smooth="yes"/>
			<point x="1151" y="984"/>
			<point x="1028" y="1104"/>
			<point x="795" y="1104" type="curve" smooth="yes"/>
			<point x="585" y="1104"/>
			<point x="460" y="989"/>
			<point x="460" y="773" type="curve" smooth="yes"/>
			<point x="460" y="690"/>
			<point x="460" y="606"/>
			<point x="460" y="523" type="curve"/>
			<point x="750" y="526" type="line"/>
			<point x="750" y="610"/>
			<point x="750" y="693"/>
			<point x="750" y="777" type="curve" smooth="yes"/>
			<point x="750" y="830"/>
			<point x="766" y="857"/>
			<point x="800" y="857" type="curve" smooth="yes"/>
			<point x="834" y="857"/>
			<point x="850" y="830"/>
			<point x="850" y="777" type="curve" smooth="yes"/>
			<point x="850" y="525" type="line" smooth="yes"/>
			<point x="850" y="344"/>
			<point x="769" y="278"/>
			<point x="631" y="278" type="curve" smooth="yes"/>
			<point x="470" y="278"/>
			<point x="381" y="370"/>
			<point x="372" y="530" type="curve" smooth="yes"/>
			<point x="346" y="953" type="line"/>
			<point x="56" y="953" type="line"/>
			<point x="81" y="504" type="line" smooth="yes"/>
			<point x="98" y="181"/>
			<point x="292" y="0"/>
		</contour>
		<contour>
			<point x="-59" y="1085" type="line"/>
			<point x="1297" y="1085" type="line"/>
			<point x="1282" y="1329" type="line"/>
			<point x="-74" y="1329" type="line"/>
		</contour>
	</outline>
</glyph>
<glyph name="Tha.bn" format="2">
	<advance width="1127"/>
	<unicode hex="09A5"/>
	<anchor x="1041" y="-2" name="bottom1"/>
	<anchor x="709" y="1468" name="top"/>
	<anchor x="597" y="1763" name="top2"/>
	<outline>
		<contour>
			<point x="780" y="-2" type="line"/>
			<point x="1041" y="-2" type="line"/>
			<point x="1041" y="1329" type="line"/>
			<point x="740" y="1329" type="line"/>
			<point x="740" y="500" type="line"/>
			<point x="754" y="231" type="line"/>
			<point x="785" y="281" type="line"/>
			<point x="394" y="509" type="line"/>
			<point x="436" y="398" type="line"/>
			<point x="436" y="659" type="line"/>
			<point x="216" y="486" type="line"/>
			<point x="363" y="517" type="line" smooth="yes"/>
			<point x="555" y="560"/>
			<point x="667" y="640"/>
			<point x="667" y="862" type="curve" smooth="yes"/>
			<point x="667" y="1009" type="line" smooth="yes"/>
			<point x="667" y="1238"/>
			<point x="555" y="1357"/>
			<point x="336" y="1357" type="curve" smooth="yes"/>
			<point x="134" y="1357"/>
			<point x="28" y="1242"/>
			<point x="28" y="1026" type="curve" smooth="yes"/>
			<point x="28" y="953"/>
			<point x="28" y="902"/>
			<point x="28" y="846" type="curve"/>
			<point x="308" y="846" type="line"/>
			<point x="308" y="899"/>
			<point x="308" y="957"/>
			<point x="308" y="1031" type="curve" smooth="yes"/>
			<point x="308" y="1074"/>
			<point x="321" y="1095"/>
			<point x="348" y="1095" type="curve" smooth="yes"/>
			<point x="374" y="1095"/>
			<point x="387" y="1074"/>
			<point x="387" y="1031" type="curve" smooth="yes"/>
			<point x="387" y="882" type="line" smooth="yes"/>
			<point x="387" y="793"/>
			<point x="330" y="751"/>
			<point x="238" y="733" type="curve" smooth="yes"/>
			<point x="115" y="709" type="line"/>
			<point x="115" y="357" type="line"/>
		</contour>
		<contour>
			<point x="897" y="1196" type="line"/>
			<point x="897" y="686" type="line"/>
			<point x="1041" y="686" type="line"/>
			<point x="1041" y="1196" type="line"/>
		</contour>
		<contour>
			<point x="897" y="1085" type="line"/>
			<point x="1171" y="1085" type="line"/>
			<point x="1156" y="1329" type="line"/>
			<point x="897" y="1329" type="line"/>
		</contour>
	</outline>
</glyph>
<glyph name="Da.bn" format="2">
	<advance width="1010"/>
	<unicode hex="09A6"/>
	<anchor x="924" y="0" name="bottom1"/>
	<anchor x="76" y="1468" name="top"/>
	<anchor x="214" y="1763" name="top2"/>
	<note>
		Da.bn
	</note>
	<outline>
		<contour>
			<point x="-55" y="1085" type="line"/>
			<point x="1074" y="1085" type="line"/>
			<point x="1059" y="1329" type="line"/>
			<point x="-70" y="1329" type="line"/>
		</contour>
		<contour>
			<point x="623" y="-30" type="line"/>
			<point x="924" y="-30" type="line"/>
			<point x="924" y="909" type="line"/>
			<point x="597" y="909" type="line"/>
			<point x="433" y="735"/>
			<point x="309" y="542"/>
			<point x="226" y="379" type="curve"/>
			<point x="359" y="326" type="line"/>
			<point x="387" y="875" type="line"/>
			<point x="387" y="1270" type="line"/>
			<point x="85" y="1270" type="line"/>
			<point x="85" y="224" type="line"/>
			<point x="376" y="224" type="line"/>
			<point x="482" y="399"/>
			<point x="625" y="586"/>
			<point x="808" y="758" type="curve"/>
			<point x="657" y="843" type="line"/>
			<point x="623" y="418" type="line"/>
		</contour>
	</outline>
</glyph>
<glyph name="Dha.bn" format="2">
  <advance width="1011"/>
  <unicode hex="09A7"/>
  <anchor x="925" y="-2" name="bottom1"/>
  <anchor x="593" y="1468" name="top"/>
  <anchor x="481" y="1763" name="top2"/>
  <outline>
    <contour>
      <point x="664" y="-2" type="line"/>
      <point x="925" y="-2" type="line"/>
      <point x="925" y="1329" type="line"/>
      <point x="625" y="1329" type="line"/>
      <point x="625" y="499" type="line"/>
      <point x="638" y="229" type="line"/>
      <point x="654" y="295" type="line"/>
      <point x="324" y="480" type="line"/>
      <point x="387" y="365" type="line"/>
      <point x="387" y="662" type="line"/>
      <point x="313" y="498" type="line"/>
      <point x="437" y="576"/>
      <point x="580" y="645"/>
      <point x="749" y="713" type="curve"/>
      <point x="684" y="976" type="line"/>
      <point x="453" y="878"/>
      <point x="252" y="779"/>
      <point x="82" y="676" type="curve"/>
      <point x="82" y="307" type="line"/>
    </contour>
    <contour>
      <point x="250" y="741" type="line"/>
      <point x="500" y="875" type="line"/>
      <point x="483" y="871"/>
      <point x="462" y="869"/>
      <point x="445" y="869" type="curve" smooth="yes"/>
      <point x="390" y="869"/>
      <point x="358" y="893"/>
      <point x="358" y="952" type="curve" smooth="yes"/>
      <point x="358" y="999" type="line" smooth="yes"/>
      <point x="358" y="1061"/>
      <point x="391" y="1096"/>
      <point x="462" y="1096" type="curve" smooth="yes"/>
      <point x="477" y="1096"/>
      <point x="487" y="1094"/>
      <point x="504" y="1092" type="curve"/>
      <point x="504" y="1338" type="line"/>
      <point x="472" y="1349"/>
      <point x="413" y="1357"/>
      <point x="352" y="1357" type="curve" smooth="yes"/>
      <point x="155" y="1357"/>
      <point x="52" y="1255"/>
      <point x="52" y="1059" type="curve" smooth="yes"/>
      <point x="52" y="1018" type="line" smooth="yes"/>
      <point x="52" y="875"/>
      <point x="131" y="797"/>
      <point x="250" y="782" type="curve"/>
    </contour>
    <contour>
      <point x="781" y="1196" type="line"/>
      <point x="781" y="686" type="line"/>
      <point x="925" y="686" type="line"/>
      <point x="925" y="1196" type="line"/>
    </contour>
    <contour>
      <point x="781" y="1085" type="line"/>
      <point x="1055" y="1085" type="line"/>
      <point x="1040" y="1329" type="line"/>
      <point x="781" y="1329" type="line"/>
    </contour>
  </outline>
</glyph>
<glyph name="Pa.bn" format="2">
	<advance width="1003"/>
	<unicode hex="09AA"/>
	<anchor x="917" y="200" name="bottom1"/>
	<anchor x="585" y="1468" name="top"/>
	<anchor x="473" y="1763" name="top2"/>
	<outline>
		<contour>
			<point x="62" y="939" type="curve" smooth="yes"/>
			<point x="62" y="736" type="line"/>
			<point x="299" y="502" type="line"/>
			<point x="509" y="673" type="line"/>
			<point x="338" y="848" type="line"/>
			<point x="370" y="777" type="line"/>
			<point x="370" y="923" type="line" smooth="yes"/>
			<point x="370" y="1015"/>
			<point x="411" y="1060"/>
			<point x="494" y="1060" type="curve" smooth="yes"/>
			<point x="554" y="1060"/>
			<point x="594" y="1024"/>
			<point x="615" y="950" type="curve"/>
			<point x="615" y="788" type="line"/>
			<point x="689" y="788" type="line"/>
			<point x="685" y="1152" type="line"/>
			<point x="635" y="1152" type="line"/>
			<point x="603" y="1283"/>
			<point x="522" y="1347"/>
			<point x="391" y="1347" type="curve" smooth="yes"/>
			<point x="170" y="1347"/>
			<point x="62" y="1213"/>
		</contour>
		<contour>
			<point x="287" y="213" type="line"/>
			<point x="768" y="635" type="line"/>
			<point x="696" y="924" type="line"/>
			<point x="71" y="377" type="line"/>
		</contour>
		<contour>
			<point x="615" y="0" type="line"/>
			<point x="917" y="0" type="line"/>
			<point x="917" y="1329" type="line"/>
			<point x="647" y="1329" type="line"/>
			<point x="647" y="1036" type="line"/>
			<point x="615" y="1036" type="line"/>
		</contour>
		<contour>
			<point x="773" y="1196" type="line"/>
			<point x="773" y="686" type="line"/>
			<point x="917" y="686" type="line"/>
			<point x="917" y="1196" type="line"/>
		</contour>
		<contour>
			<point x="773" y="1085" type="line"/>
			<point x="1047" y="1085" type="line"/>
			<point x="1032" y="1329" type="line"/>
			<point x="773" y="1329" type="line"/>
		</contour>
	</outline>
</glyph>
<glyph name="Pha.bn" format="2">
	<advance width="1392"/>
	<unicode hex="09AB"/>
	<anchor x="935" y="-2" name="bottom1"/>
	<anchor x="603" y="1468" name="top"/>
	<anchor x="441" y="1763" name="top2"/>
	<outline>
		<contour>
			<point x="-73" y="1085" type="line"/>
			<point x="1434" y="1085" type="line"/>
			<point x="1419" y="1329" type="line"/>
			<point x="-88" y="1329" type="line"/>
		</contour>
		<contour>
			<point x="679" y="-2" type="line"/>
			<point x="935" y="-2" type="line"/>
			<point x="935" y="985" type="line"/>
			<point x="640" y="985" type="line"/>
			<point x="640" y="499" type="line"/>
			<point x="653" y="229" type="line"/>
			<point x="680" y="285" type="line"/>
			<point x="361" y="464" type="line"/>
			<point x="384" y="341" type="line"/>
			<point x="384" y="584" type="line"/>
			<point x="349" y="492" type="line"/>
			<point x="526" y="637" type="line"/>
			<point x="526" y="866" type="line"/>
			<point x="381" y="1038"/>
			<point x="271" y="1153"/>
			<point x="167" y="1259" type="curve"/>
			<point x="39" y="1251" type="line"/>
			<point x="39" y="922" type="line"/>
			<point x="248" y="797" type="line"/>
			<point x="248" y="779" type="line"/>
			<point x="84" y="649" type="line"/>
			<point x="84" y="316" type="line"/>
		</contour>
		<contour>
			<point x="1006" y="485" type="curve"/>
			<point x="1012" y="234" type="line"/>
			<point x="1020" y="234"/>
			<point x="1026" y="234"/>
			<point x="1034" y="234" type="curve" smooth="yes"/>
			<point x="1258" y="234"/>
			<point x="1354" y="331"/>
			<point x="1354" y="556" type="curve" smooth="yes"/>
			<point x="1354" y="639" type="line" smooth="yes"/>
			<point x="1354" y="857"/>
			<point x="1208" y="985"/>
			<point x="950" y="985" type="curve" smooth="yes"/>
			<point x="807" y="985" type="line"/>
			<point x="807" y="739" type="line"/>
			<point x="961" y="739" type="line" smooth="yes"/>
			<point x="1027" y="739"/>
			<point x="1060" y="704"/>
			<point x="1060" y="632" type="curve" smooth="yes"/>
			<point x="1060" y="535" type="line" smooth="yes"/>
			<point x="1060" y="503"/>
			<point x="1046" y="485"/>
			<point x="1021" y="485" type="curve" smooth="yes"/>
			<point x="1015" y="485"/>
			<point x="1012" y="485"/>
		</contour>
	</outline>
</glyph>
<glyph name="Ba.bn" format="2">
	<advance width="934"/>
	<unicode hex="09AC"/>
	<anchor x="848" y="-2" name="bottom1"/>
	<anchor x="516" y="1468" name="top"/>
	<anchor x="404" y="1763" name="top2"/>
	<note>
		Ba.bn
	</note>
	<outline>
		<contour>
			<point x="-15" y="1085" type="line"/>
			<point x="848" y="1085" type="line"/>
			<point x="848" y="1329" type="line"/>
			<point x="-30" y="1329" type="line"/>
		</contour>
		<contour>
			<point x="588" y="-2" type="line"/>
			<point x="848" y="-2" type="line"/>
			<point x="848" y="1162" type="line"/>
			<point x="558" y="1162" type="line"/>
			<point x="558" y="960" type="line"/>
			<point x="548" y="872" type="line"/>
			<point x="548" y="499" type="line"/>
			<point x="562" y="231" type="line"/>
			<point x="577" y="312" type="line"/>
			<point x="273" y="529" type="line"/>
			<point x="370" y="325" type="line"/>
			<point x="370" y="758" type="line"/>
			<point x="279" y="578" type="line"/>
			<point x="395" y="689"/>
			<point x="531" y="759"/>
			<point x="690" y="809" type="curve"/>
			<point x="607" y="1066" type="line"/>
			<point x="405" y="995"/>
			<point x="199" y="882"/>
			<point x="69" y="781" type="curve"/>
			<point x="69" y="344" type="line"/>
		</contour>
		<contour>
			<point x="704" y="1196" type="line"/>
			<point x="704" y="686" type="line"/>
			<point x="848" y="686" type="line"/>
			<point x="848" y="1196" type="line"/>
		</contour>
		<contour>
			<point x="704" y="1085" type="line"/>
			<point x="978" y="1085" type="line"/>
			<point x="963" y="1329" type="line"/>
			<point x="704" y="1329" type="line"/>
		</contour>
	</outline>
</glyph>
<glyph name="Ma.bn" format="2">
  <advance width="1000"/>
  <unicode hex="09AE"/>
  <anchor x="914" y="200" name="bottom1"/>
  <anchor x="582" y="1468" name="top"/>
  <anchor x="470" y="1763" name="top2"/>
  <outline>
    <contour>
      <point x="416" y="98" type="curve" smooth="yes"/>
      <point x="438" y="98"/>
      <point x="448" y="98"/>
      <point x="484" y="98" type="curve"/>
      <point x="506" y="348" type="line"/>
      <point x="478" y="348"/>
      <point x="471" y="348"/>
      <point x="444" y="348" type="curve" smooth="yes"/>
      <point x="393" y="348"/>
      <point x="363" y="374"/>
      <point x="363" y="422" type="curve" smooth="yes"/>
      <point x="363" y="424" type="line" smooth="yes"/>
      <point x="363" y="476"/>
      <point x="399" y="503"/>
      <point x="463" y="503" type="curve" smooth="yes"/>
      <point x="543" y="503"/>
      <point x="593" y="453"/>
      <point x="612" y="354" type="curve"/>
      <point x="675" y="633" type="line"/>
      <point x="608" y="633" type="line"/>
      <point x="575" y="713"/>
      <point x="522" y="770"/>
      <point x="370" y="770" type="curve" smooth="yes"/>
      <point x="124" y="770"/>
      <point x="57" y="607"/>
      <point x="57" y="446" type="curve" smooth="yes"/>
      <point x="57" y="429" type="line" smooth="yes"/>
      <point x="57" y="213"/>
      <point x="179" y="98"/>
    </contour>
    <contour>
      <point x="276" y="726" type="line"/>
      <point x="436" y="749" type="line"/>
      <point x="411" y="785"/>
      <point x="388" y="856"/>
      <point x="388" y="955" type="curve" smooth="yes"/>
      <point x="388" y="1185" type="line"/>
      <point x="63" y="1185" type="line"/>
      <point x="63" y="981" type="line" smooth="yes"/>
      <point x="63" y="847"/>
      <point x="122" y="786"/>
      <point x="276" y="771" type="curve"/>
    </contour>
    <contour>
      <point x="612" y="0" type="line"/>
      <point x="914" y="0" type="line"/>
      <point x="914" y="1200" type="line"/>
      <point x="612" y="1200" type="line"/>
      <point x="612" y="788" type="line"/>
      <point x="625" y="545" type="line"/>
      <point x="612" y="497" type="line"/>
    </contour>
    <contour>
      <point x="-81" y="1085" type="line"/>
      <point x="914" y="1085" type="line"/>
      <point x="914" y="1329" type="line"/>
      <point x="-96" y="1329" type="line"/>
    </contour>
    <contour>
      <point x="770" y="1196" type="line"/>
      <point x="770" y="686" type="line"/>
      <point x="914" y="686" type="line"/>
      <point x="914" y="1196" type="line"/>
    </contour>
    <contour>
      <point x="770" y="1085" type="line"/>
      <point x="1044" y="1085" type="line"/>
      <point x="1029" y="1329" type="line"/>
      <point x="770" y="1329" type="line"/>
    </contour>
  </outline>
</glyph>
<glyph name="Ya.bn" format="2">
  <advance width="1026"/>
  <unicode hex="09AF"/>
  <note>
Ya.bn
</note>
  <anchor x="940" y="-2" name="bottom1"/>
  <anchor x="608" y="1468" name="top"/>
  <anchor x="496" y="1763" name="top2"/>
  <outline>
    <contour>
      <point x="679" y="-2" type="line"/>
      <point x="940" y="-2" type="line"/>
      <point x="940" y="1238" type="line"/>
      <point x="640" y="1238" type="line"/>
      <point x="640" y="499" type="line"/>
      <point x="653" y="229" type="line"/>
      <point x="680" y="285" type="line"/>
      <point x="361" y="464" type="line"/>
      <point x="384" y="341" type="line"/>
      <point x="384" y="584" type="line"/>
      <point x="349" y="492" type="line"/>
      <point x="526" y="637" type="line"/>
      <point x="526" y="866" type="line"/>
      <point x="381" y="1038"/>
      <point x="271" y="1153"/>
      <point x="167" y="1259" type="curve"/>
      <point x="39" y="1251" type="line"/>
      <point x="39" y="922" type="line"/>
      <point x="248" y="797" type="line"/>
      <point x="248" y="779" type="line"/>
      <point x="84" y="649" type="line"/>
      <point x="84" y="316" type="line"/>
    </contour>
    <contour>
      <point x="-73" y="1085" type="line"/>
      <point x="931" y="1085" type="line"/>
      <point x="931" y="1329" type="line"/>
      <point x="-88" y="1329" type="line"/>
    </contour>
    <contour>
      <point x="796" y="1196" type="line"/>
      <point x="796" y="686" type="line"/>
      <point x="940" y="686" type="line"/>
      <point x="940" y="1196" type="line"/>
    </contour>
    <contour>
      <point x="796" y="1085" type="line"/>
      <point x="1070" y="1085" type="line"/>
      <point x="1055" y="1329" type="line"/>
      <point x="796" y="1329" type="line"/>
    </contour>
  </outline>
</glyph>
<glyph name="Ra.bn" format="2">
  <advance width="934"/>
  <unicode hex="09B0"/>
  <anchor x="848" y="-2" name="bottom1"/>
  <anchor x="516" y="1468" name="top"/>
  <anchor x="404" y="1763" name="top2"/>
  <outline>
    <contour>
      <point x="-15" y="1085" type="line"/>
      <point x="848" y="1085" type="line"/>
      <point x="848" y="1329" type="line"/>
      <point x="-30" y="1329" type="line"/>
    </contour>
    <contour>
      <point x="588" y="-2" type="line"/>
      <point x="848" y="-2" type="line"/>
      <point x="848" y="1162" type="line"/>
      <point x="558" y="1162" type="line"/>
      <point x="558" y="960" type="line"/>
      <point x="548" y="872" type="line"/>
      <point x="548" y="499" type="line"/>
      <point x="562" y="231" type="line"/>
      <point x="577" y="312" type="line"/>
      <point x="273" y="529" type="line"/>
      <point x="370" y="325" type="line"/>
      <point x="370" y="758" type="line"/>
      <point x="279" y="578" type="line"/>
      <point x="395" y="689"/>
      <point x="531" y="759"/>
      <point x="690" y="809" type="curve"/>
      <point x="607" y="1066" type="line"/>
      <point x="405" y="995"/>
      <point x="199" y="882"/>
      <point x="69" y="781" type="curve"/>
      <point x="69" y="344" type="line"/>
    </contour>
    <contour>
      <point x="704" y="1196" type="line"/>
      <point x="704" y="686" type="line"/>
      <point x="848" y="686" type="line"/>
      <point x="848" y="1196" type="line"/>
    </contour>
    <contour>
      <point x="704" y="1085" type="line"/>
      <point x="978" y="1085" type="line"/>
      <point x="963" y="1329" type="line"/>
      <point x="704" y="1329" type="line"/>
    </contour>
    <contour>
      <point x="237" y="-212" type="curve" smooth="yes"/>
      <point x="338" y="-212"/>
      <point x="384" y="-149"/>
      <point x="384" y="-47" type="curve" smooth="yes"/>
      <point x="384" y="-41" type="line" smooth="yes"/>
      <point x="384" y="61"/>
      <point x="338" y="124"/>
      <point x="237" y="124" type="curve" smooth="yes"/>
      <point x="136" y="124"/>
      <point x="90" y="61"/>
      <point x="90" y="-41" type="curve" smooth="yes"/>
      <point x="90" y="-47" type="line" smooth="yes"/>
      <point x="90" y="-149"/>
      <point x="136" y="-212"/>
    </contour>
  </outline>
</glyph>
<glyph name="La.bn" format="2">
	<advance width="1208"/>
	<unicode hex="09B2"/>
	<anchor x="1122" y="200" name="bottom1"/>
	<anchor x="790" y="1468" name="top"/>
	<anchor x="678" y="1763" name="top2"/>
	<outline>
		<contour>
			<point x="420" y="156" type="curve" smooth="yes"/>
			<point x="445" y="156"/>
			<point x="436" y="156"/>
			<point x="463" y="156" type="curve"/>
			<point x="486" y="407" type="line"/>
			<point x="473" y="407"/>
			<point x="461" y="407"/>
			<point x="450" y="407" type="curve" smooth="yes"/>
			<point x="379" y="407"/>
			<point x="345" y="448"/>
			<point x="345" y="531" type="curve" smooth="yes"/>
			<point x="345" y="630" type="line" smooth="yes"/>
			<point x="345" y="701"/>
			<point x="365" y="729"/>
			<point x="414" y="729" type="curve" smooth="yes"/>
			<point x="454" y="729"/>
			<point x="477" y="699"/>
			<point x="479" y="640" type="curve" smooth="yes"/>
			<point x="484" y="492" type="line"/>
			<point x="709" y="492" type="line"/>
			<point x="715" y="648" type="line" smooth="yes"/>
			<point x="717" y="707"/>
			<point x="733" y="729"/>
			<point x="770" y="729" type="curve" smooth="yes"/>
			<point x="795" y="729"/>
			<point x="817" y="714"/>
			<point x="820" y="671" type="curve"/>
			<point x="928" y="866" type="line"/>
			<point x="867" y="919" type="line"/>
			<point x="846" y="971"/>
			<point x="803" y="994"/>
			<point x="744" y="994" type="curve" smooth="yes"/>
			<point x="667" y="994"/>
			<point x="606" y="949"/>
			<point x="593" y="856" type="curve"/>
			<point x="586" y="856" type="line"/>
			<point x="568" y="935"/>
			<point x="491" y="996"/>
			<point x="365" y="996" type="curve" smooth="yes"/>
			<point x="153" y="996"/>
			<point x="48" y="879"/>
			<point x="48" y="642" type="curve" smooth="yes"/>
			<point x="48" y="535" type="line" smooth="yes"/>
			<point x="48" y="278"/>
			<point x="168" y="156"/>
		</contour>
		<contour>
			<point x="-25" y="1085" type="line"/>
			<point x="1098" y="1085" type="line"/>
			<point x="1098" y="1329" type="line"/>
			<point x="-40" y="1329" type="line"/>
		</contour>
		<contour>
			<point x="820" y="0" type="line"/>
			<point x="1122" y="0" type="line"/>
			<point x="1122" y="1200" type="line"/>
			<point x="829" y="1200" type="line"/>
			<point x="829" y="1030" type="line"/>
			<point x="831" y="830" type="line"/>
			<point x="820" y="750" type="line"/>
		</contour>
		<contour>
			<point x="978" y="1196" type="line"/>
			<point x="978" y="686" type="line"/>
			<point x="1122" y="686" type="line"/>
			<point x="1122" y="1196" type="line"/>
		</contour>
		<contour>
			<point x="978" y="1085" type="line"/>
			<point x="1252" y="1085" type="line"/>
			<point x="1237" y="1329" type="line"/>
			<point x="978" y="1329" type="line"/>
		</contour>
	</outline>
</glyph>
<glyph name="Ssa.bn" format="2">
  <advance width="1026"/>
  <unicode hex="09B7"/>
  <anchor x="940" y="-2" name="bottom1"/>
  <anchor x="608" y="1468" name="top"/>
  <anchor x="496" y="1763" name="top2"/>
  <outline>
    <contour>
      <point x="796" y="1196" type="line"/>
      <point x="796" y="686" type="line"/>
      <point x="940" y="686" type="line"/>
      <point x="940" y="1196" type="line"/>
    </contour>
    <contour>
      <point x="796" y="1085" type="line"/>
      <point x="1070" y="1085" type="line"/>
      <point x="1055" y="1329" type="line"/>
      <point x="796" y="1329" type="line"/>
    </contour>
    <contour>
      <point x="679" y="-2" type="line"/>
      <point x="940" y="-2" type="line"/>
      <point x="940" y="1247" type="line"/>
      <point x="640" y="1247" type="line"/>
      <point x="640" y="499" type="line"/>
      <point x="653" y="229" type="line"/>
      <point x="680" y="285" type="line"/>
      <point x="361" y="464" type="line"/>
      <point x="384" y="339" type="line"/>
      <point x="384" y="584" type="line"/>
      <point x="350" y="493" type="line"/>
      <point x="552" y="659" type="line"/>
      <point x="490" y="803" type="line"/>
      <point x="354" y="735" type="line"/>
      <point x="758" y="467" type="line"/>
      <point x="796" y="686" type="line"/>
      <point x="560" y="871" type="line"/>
      <point x="409" y="1006"/>
      <point x="235" y="1161"/>
      <point x="167" y="1223" type="curve"/>
      <point x="39" y="1253" type="line"/>
      <point x="39" y="922" type="line"/>
      <point x="265" y="795" type="line"/>
      <point x="265" y="780" type="line"/>
      <point x="84" y="649" type="line"/>
      <point x="84" y="316" type="line"/>
    </contour>
    <contour>
      <point x="-73" y="1085" type="line"/>
      <point x="940" y="1085" type="line"/>
      <point x="940" y="1329" type="line"/>
      <point x="-88" y="1329" type="line"/>
    </contour>
  </outline>
</glyph>
<glyph name="Sa.bn" format="2">
  <advance width="1026"/>
  <unicode hex="09B8"/>
  <anchor x="940" y="200" name="bottom1"/>
  <anchor x="608" y="1468" name="top"/>
  <anchor x="496" y="1763" name="top2"/>
  <outline>
    <contour>
      <point x="638" y="0" type="line"/>
      <point x="940" y="0" type="line"/>
      <point x="940" y="1181" type="line"/>
      <point x="638" y="1181" type="line"/>
      <point x="638" y="920" type="line"/>
      <point x="649" y="638" type="line"/>
      <point x="638" y="522" type="line"/>
    </contour>
    <contour>
      <point x="-75" y="1085" type="line"/>
      <point x="884" y="1085" type="line"/>
      <point x="884" y="1329" type="line"/>
      <point x="-90" y="1329" type="line"/>
    </contour>
    <contour>
      <point x="672" y="459" type="curve"/>
      <point x="704" y="721" type="line"/>
      <point x="672" y="735"/>
      <point x="641" y="741"/>
      <point x="609" y="741" type="curve" smooth="yes"/>
      <point x="515" y="741"/>
      <point x="451" y="657"/>
      <point x="378" y="561" type="curve" smooth="yes"/>
      <point x="365" y="546"/>
      <point x="344" y="533"/>
      <point x="331" y="516" type="curve"/>
      <point x="297" y="451" type="line"/>
      <point x="444" y="573"/>
      <point x="496" y="671"/>
      <point x="496" y="785" type="curve" smooth="yes"/>
      <point x="496" y="814" type="line" smooth="yes"/>
      <point x="496" y="979"/>
      <point x="412" y="1137"/>
      <point x="238" y="1158" type="curve"/>
      <point x="73" y="1158" type="line"/>
      <point x="73" y="967" type="line"/>
      <point x="175" y="928"/>
      <point x="234" y="867"/>
      <point x="234" y="721" type="curve" smooth="yes"/>
      <point x="234" y="693" type="line" smooth="yes"/>
      <point x="234" y="566"/>
      <point x="176" y="507"/>
      <point x="87" y="504" type="curve" smooth="yes"/>
      <point x="61" y="503" type="line"/>
      <point x="61" y="203" type="line"/>
      <point x="93" y="204" type="line" smooth="yes"/>
      <point x="254" y="209"/>
      <point x="358" y="274"/>
      <point x="444" y="351" type="curve" smooth="yes"/>
      <point x="539" y="434"/>
      <point x="586" y="463"/>
      <point x="624" y="463" type="curve" smooth="yes"/>
      <point x="638" y="463"/>
      <point x="653" y="462"/>
    </contour>
    <contour>
      <point x="796" y="1196" type="line"/>
      <point x="796" y="686" type="line"/>
      <point x="940" y="686" type="line"/>
      <point x="940" y="1196" type="line"/>
    </contour>
    <contour>
      <point x="796" y="1085" type="line"/>
      <point x="1070" y="1085" type="line"/>
      <point x="1055" y="1329" type="line"/>
      <point x="796" y="1329" type="line"/>
    </contour>
  </outline>
</glyph>
<glyph name="Nukta.bn" format="2">
	<advance width="0"/>
	<unicode hex="09BC"/>
	<outline>
		<contour>
			<point x="-345" y="-347" type="curve" smooth="yes"/>
			<point x="-244" y="-347"/>
			<point x="-198" y="-284"/>
			<point x="-198" y="-182" type="curve" smooth="yes"/>
			<point x="-198" y="-176" type="line" smooth="yes"/>
			<point x="-198" y="-74"/>
			<point x="-244" y="-11"/>
			<point x="-345" y="-11" type="curve" smooth="yes"/>
			<point x="-446" y="-11"/>
			<point x="-492" y="-74"/>
			<point x="-492" y="-176" type="curve" smooth="yes"/>
			<point x="-492" y="-182" type="line" smooth="yes"/>
			<point x="-492" y="-284"/>
			<point x="-446" y="-347"/>
		</contour>
	</outline>
</glyph>
<glyph name="Avagraha.bn" format="2">
  <advance width="885"/>
  <unicode hex="09BD"/>
  <outline>
    <contour>
      <point x="164" y="958" type="line"/>
      <point x="455" y="958" type="line"/>
      <point x="455" y="1001" type="line" smooth="yes"/>
      <point x="455" y="1221"/>
      <point x="327" y="1329"/>
      <point x="64" y="1329" type="curve" smooth="yes"/>
      <point x="-36" y="1329" type="line"/>
      <point x="-21" y="1085" type="line"/>
      <point x="73" y="1085" type="line" smooth="yes"/>
      <point x="134" y="1085"/>
      <point x="164" y="1057"/>
      <point x="164" y="1001" type="curve" smooth="yes"/>
    </contour>
    <contour>
      <point x="837" y="-178" type="line"/>
      <point x="857" y="100" type="line"/>
      <point x="584" y="225" type="line"/>
      <point x="507" y="259" type="line"/>
      <point x="522" y="340" type="line"/>
      <point x="329" y="298" type="line"/>
      <point x="400" y="278"/>
      <point x="456" y="268"/>
      <point x="499" y="268" type="curve" smooth="yes"/>
      <point x="707" y="268"/>
      <point x="820" y="384"/>
      <point x="820" y="600" type="curve" smooth="yes"/>
      <point x="820" y="747" type="line" smooth="yes"/>
      <point x="820" y="1002"/>
      <point x="694" y="1128"/>
      <point x="446" y="1128" type="curve" smooth="yes"/>
      <point x="208" y="1128"/>
      <point x="87" y="1002"/>
      <point x="87" y="748" type="curve" smooth="yes"/>
      <point x="87" y="702"/>
      <point x="87" y="643"/>
      <point x="87" y="583" type="curve"/>
      <point x="387" y="583" type="line"/>
      <point x="387" y="644"/>
      <point x="387" y="703"/>
      <point x="387" y="751" type="curve" smooth="yes"/>
      <point x="387" y="821"/>
      <point x="408" y="852"/>
      <point x="453" y="852" type="curve" smooth="yes"/>
      <point x="498" y="852"/>
      <point x="518" y="821"/>
      <point x="518" y="751" type="curve" smooth="yes"/>
      <point x="518" y="602" type="line" smooth="yes"/>
      <point x="518" y="510"/>
      <point x="455" y="455"/>
      <point x="339" y="455" type="curve" smooth="yes"/>
      <point x="282" y="455"/>
      <point x="214" y="461"/>
      <point x="132" y="474" type="curve" smooth="yes"/>
      <point x="93" y="480" type="line"/>
      <point x="73" y="200" type="line"/>
    </contour>
  </outline>
</glyph>
<glyph name="SignAa.bn" format="2">
	<advance width="474"/>
	<unicode hex="09BE"/>
	<anchor x="56" y="1468" name="top"/>
	<anchor x="-56" y="1763" name="top2"/>
	<outline>
		<contour>
			<point x="86" y="0" type="line"/>
			<point x="388" y="0" type="line"/>
			<point x="388" y="1194" type="line"/>
			<point x="86" y="1194" type="line"/>
		</contour>
		<contour>
			<point x="-29" y="1085" type="line"/>
			<point x="376" y="1085" type="line"/>
			<point x="376" y="1329" type="line"/>
			<point x="-44" y="1329" type="line"/>
		</contour>
		<contour>
			<point x="244" y="1196" type="line"/>
			<point x="244" y="686" type="line"/>
			<point x="388" y="686" type="line"/>
			<point x="388" y="1196" type="line"/>
		</contour>
		<contour>
			<point x="244" y="1085" type="line"/>
			<point x="518" y="1085" type="line"/>
			<point x="503" y="1329" type="line"/>
			<point x="244" y="1329" type="line"/>
		</contour>
	</outline>
</glyph>
<glyph name="SignIi.bn" format="2">
	<advance width="474"/>
	<unicode hex="09C0"/>
	<anchor x="56" y="1468" name="top"/>
	<anchor x="323" y="1619" name="top2"/>
	<outline>
		<contour>
			<point x="-319" y="1383" type="curve" smooth="yes"/>
			<point x="-65" y="1383" type="line"/>
			<point x="-80" y="1590" type="line"/>
			<point x="-326" y="1590" type="line" smooth="yes"/>
			<point x="-381" y="1590"/>
			<point x="-398" y="1605"/>
			<point x="-398" y="1634" type="curve" smooth="yes"/>
			<point x="-398" y="1677"/>
			<point x="-355" y="1693"/>
			<point x="-258" y="1693" type="curve" smooth="yes"/>
			<point x="-26" y="1693"/>
			<point x="96" y="1569"/>
			<point x="96" y="1336" type="curve" smooth="yes"/>
			<point x="96" y="1154" type="line"/>
			<point x="386" y="1200" type="line"/>
			<point x="386" y="1306" type="line" smooth="yes"/>
			<point x="386" y="1704"/>
			<point x="148" y="1931"/>
			<point x="-275" y="1931" type="curve" smooth="yes"/>
			<point x="-530" y="1931"/>
			<point x="-685" y="1818"/>
			<point x="-685" y="1639" type="curve" smooth="yes"/>
			<point x="-685" y="1466"/>
			<point x="-566" y="1383"/>
		</contour>
		<contour>
			<point x="86" y="0" type="line"/>
			<point x="388" y="0" type="line"/>
			<point x="388" y="1194" type="line"/>
			<point x="86" y="1194" type="line"/>
		</contour>
		<contour>
			<point x="-29" y="1085" type="line"/>
			<point x="376" y="1085" type="line"/>
			<point x="376" y="1329" type="line"/>
			<point x="-44" y="1329" type="line"/>
		</contour>
		<contour>
			<point x="244" y="1196" type="line"/>
			<point x="244" y="686" type="line"/>
			<point x="388" y="686" type="line"/>
			<point x="388" y="1196" type="line"/>
		</contour>
		<contour>
			<point x="244" y="1085" type="line"/>
			<point x="518" y="1085" type="line"/>
			<point x="503" y="1329" type="line"/>
			<point x="244" y="1329" type="line"/>
		</contour>
	</outline>
</glyph>
<glyph name="SignU.bn" format="2">
	<advance width="0"/>
	<unicode hex="09C1"/>
	<anchor x="-993" y="-2" name="_bottom1"/>
	<outline>
		<contour>
			<point x="-1271" y="-205" type="line"/>
			<point x="-993" y="-245" type="line"/>
			<point x="-993" y="91" type="line"/>
			<point x="-1271" y="91" type="line"/>
		</contour>
		<contour>
			<point x="-758" y="-602" type="curve"/>
			<point x="-734" y="-348" type="line"/>
			<point x="-911" y="-204"/>
			<point x="-1090" y="-74"/>
			<point x="-1278" y="-74" type="curve" smooth="yes"/>
			<point x="-1485" y="-74"/>
			<point x="-1610" y="-175"/>
			<point x="-1610" y="-345" type="curve" smooth="yes"/>
			<point x="-1610" y="-503"/>
			<point x="-1511" y="-600"/>
			<point x="-1322" y="-600" type="curve" smooth="yes"/>
			<point x="-1157" y="-600"/>
			<point x="-1037" y="-505"/>
			<point x="-1035" y="-344" type="curve" smooth="yes"/>
			<point x="-1034" y="-260" type="line"/>
			<point x="-1263" y="-178" type="line"/>
			<point x="-1263" y="-320" type="line" smooth="yes"/>
			<point x="-1263" y="-374"/>
			<point x="-1277" y="-399"/>
			<point x="-1311" y="-399" type="curve" smooth="yes"/>
			<point x="-1341" y="-399"/>
			<point x="-1358" y="-372"/>
			<point x="-1358" y="-339" type="curve" smooth="yes"/>
			<point x="-1358" y="-300"/>
			<point x="-1336" y="-275"/>
			<point x="-1302" y="-275" type="curve" smooth="yes"/>
			<point x="-1193" y="-275"/>
			<point x="-1014" y="-382"/>
		</contour>
	</outline>
</glyph>
<glyph name="SignUu.bn" format="2">
	<advance width="0"/>
	<unicode hex="09C2"/>
	<anchor x="356" y="0" name="_bottom1"/>
	<outline>
		<contour>
			<point x="356" y="-278" type="line"/>
			<point x="356" y="91" type="line"/>
			<point x="78" y="91" type="line"/>
			<point x="78" y="-205" type="line"/>
		</contour>
		<contour>
			<point x="594" y="-723" type="line"/>
			<point x="617" y="-485" type="line"/>
			<point x="344" y="-327" type="line"/>
			<point x="297" y="-358"/>
			<point x="239" y="-383"/>
			<point x="199" y="-383" type="curve" smooth="yes"/>
			<point x="159" y="-383"/>
			<point x="126" y="-368"/>
			<point x="126" y="-332" type="curve" smooth="yes"/>
			<point x="126" y="-295"/>
			<point x="152" y="-278"/>
			<point x="204" y="-278" type="curve" smooth="yes"/>
			<point x="240" y="-278"/>
			<point x="295" y="-278"/>
			<point x="356" y="-278" type="curve"/>
			<point x="252" y="-87" type="line"/>
			<point x="220" y="-79"/>
			<point x="180" y="-74"/>
			<point x="135" y="-74" type="curve" smooth="yes"/>
			<point x="-54" y="-74"/>
			<point x="-153" y="-176"/>
			<point x="-153" y="-328" type="curve" smooth="yes"/>
			<point x="-153" y="-479"/>
			<point x="-56" y="-591"/>
			<point x="157" y="-591" type="curve" smooth="yes"/>
			<point x="245" y="-591"/>
			<point x="344" y="-547"/>
			<point x="375" y="-513" type="curve"/>
			<point x="252" y="-514" type="line"/>
		</contour>
	</outline>
</glyph>
<glyph name="SignRuu.bn" format="2">
  <unicode hex="09C4"/>
  <anchor x="394" y="189" name="_bottom1"/>
  <outline>
    <contour>
      <point x="365" y="-585" type="curve"/>
      <point x="134" y="-427" type="line"/>
      <point x="25" y="-479"/>
      <point x="-78" y="-530"/>
      <point x="-149" y="-571" type="curve"/>
      <point x="-149" y="-803" type="line"/>
      <point x="458" y="-1065" type="line"/>
      <point x="481" y="-826" type="line"/>
      <point x="153" y="-692" type="line"/>
      <point x="153" y="-682" type="line"/>
      <point x="216" y="-652"/>
      <point x="299" y="-613"/>
    </contour>
    <contour>
      <point x="394" y="-208" type="line"/>
      <point x="394" y="91" type="line"/>
      <point x="116" y="91" type="line"/>
      <point x="116" y="-155" type="line"/>
    </contour>
    <contour>
      <point x="458" y="-701" type="line"/>
      <point x="481" y="-462" type="line"/>
      <point x="153" y="-328" type="line"/>
      <point x="153" y="-318" type="line"/>
      <point x="226" y="-283"/>
      <point x="325" y="-237"/>
      <point x="394" y="-208" type="curve"/>
      <point x="374" y="50" type="line"/>
      <point x="190" y="-36"/>
      <point x="-26" y="-136"/>
      <point x="-149" y="-207" type="curve"/>
      <point x="-149" y="-439" type="line"/>
    </contour>
  </outline>
</glyph>
<glyph name="SignE.bn" format="2">
  <advance width="528"/>
  <unicode hex="09C7"/>
  <outline>
    <contour>
      <point x="558" y="1117" type="curve"/>
      <point x="362" y="1202" type="line"/>
      <point x="158" y="1127"/>
      <point x="53" y="971"/>
      <point x="53" y="653" type="curve" smooth="yes"/>
      <point x="53" y="508" type="line" smooth="yes"/>
      <point x="53" y="252"/>
      <point x="175" y="-4"/>
      <point x="466" y="-44" type="curve" smooth="yes"/>
      <point x="510" y="-50" type="line"/>
      <point x="533" y="217" type="line"/>
      <point x="515" y="223" type="line" smooth="yes"/>
      <point x="417" y="256"/>
      <point x="356" y="315"/>
      <point x="356" y="510" type="curve" smooth="yes"/>
      <point x="356" y="660" type="line" smooth="yes"/>
      <point x="356" y="934"/>
      <point x="441" y="1060"/>
    </contour>
    <contour>
      <point x="-59" y="1085" type="line"/>
      <point x="729" y="1085" type="line"/>
      <point x="714" y="1329" type="line"/>
      <point x="-74" y="1329" type="line"/>
    </contour>
  </outline>
</glyph>
<glyph name="SignAi.bn" format="2">
	<advance width="558"/>
	<unicode hex="09C8"/>
	<anchor x="99" y="1543" name="top"/>
	<anchor x="359" y="1618" name="top2"/>
	<outline>
		<contour>
			<point x="588" y="1117" type="curve"/>
			<point x="392" y="1202" type="line"/>
			<point x="188" y="1127"/>
			<point x="83" y="971"/>
			<point x="83" y="653" type="curve" smooth="yes"/>
			<point x="83" y="508" type="line" smooth="yes"/>
			<point x="83" y="252"/>
			<point x="205" y="-4"/>
			<point x="496" y="-44" type="curve" smooth="yes"/>
			<point x="540" y="-50" type="line"/>
			<point x="563" y="217" type="line"/>
			<point x="545" y="223" type="line" smooth="yes"/>
			<point x="447" y="256"/>
			<point x="386" y="315"/>
			<point x="386" y="510" type="curve" smooth="yes"/>
			<point x="386" y="660" type="line" smooth="yes"/>
			<point x="386" y="934"/>
			<point x="471" y="1060"/>
		</contour>
		<contour>
			<point x="-29" y="1085" type="line"/>
			<point x="759" y="1085" type="line"/>
			<point x="744" y="1329" type="line"/>
			<point x="-44" y="1329" type="line"/>
		</contour>
		<contour>
			<point x="606" y="1397" type="line"/>
			<point x="606" y="1405"/>
			<point x="606" y="1412"/>
			<point x="606" y="1420" type="curve" smooth="yes"/>
			<point x="606" y="1640"/>
			<point x="468" y="1696"/>
			<point x="230" y="1696" type="curve" smooth="yes"/>
			<point x="225" y="1696" type="line" smooth="yes"/>
			<point x="135" y="1696"/>
			<point x="87" y="1725"/>
			<point x="82" y="1791" type="curve" smooth="yes"/>
			<point x="80" y="1817" type="line"/>
			<point x="-182" y="1817" type="line"/>
			<point x="-182" y="1772" type="line" smooth="yes"/>
			<point x="-182" y="1558"/>
			<point x="-57" y="1452"/>
			<point x="187" y="1452" type="curve" smooth="yes"/>
			<point x="196" y="1452" type="line" smooth="yes"/>
			<point x="292" y="1452"/>
			<point x="330" y="1436"/>
			<point x="330" y="1372" type="curve" smooth="yes"/>
			<point x="330" y="1338"/>
			<point x="321" y="1304"/>
			<point x="309" y="1281" type="curve"/>
			<point x="396" y="1311" type="line"/>
		</contour>
	</outline>
</glyph>
<glyph name="SignO.bn" format="2">
	<advance width="1271"/>
	<unicode hex="09CB"/>
	<anchor x="853" y="1468" name="top"/>
	<anchor x="741" y="1763" name="top2"/>
	<outline>
		<contour>
			<point x="635" y="1329" type="line"/>
			<point x="635" y="1085" type="line"/>
			<point x="814" y="1085" type="line"/>
			<point x="814" y="1329" type="line"/>
		</contour>
		<contour>
			<point x="558" y="1117" type="curve"/>
			<point x="362" y="1202" type="line"/>
			<point x="158" y="1127"/>
			<point x="53" y="971"/>
			<point x="53" y="653" type="curve" smooth="yes"/>
			<point x="53" y="508" type="line" smooth="yes"/>
			<point x="53" y="252"/>
			<point x="175" y="-4"/>
			<point x="466" y="-44" type="curve" smooth="yes"/>
			<point x="510" y="-50" type="line"/>
			<point x="533" y="217" type="line"/>
			<point x="515" y="223" type="line" smooth="yes"/>
			<point x="417" y="256"/>
			<point x="356" y="315"/>
			<point x="356" y="510" type="curve" smooth="yes"/>
			<point x="356" y="660" type="line" smooth="yes"/>
			<point x="356" y="934"/>
			<point x="441" y="1060"/>
		</contour>
		<contour>
			<point x="-59" y="1085" type="line"/>
			<point x="729" y="1085" type="line"/>
			<point x="714" y="1329" type="line"/>
			<point x="-74" y="1329" type="line"/>
		</contour>
		<contour>
			<point x="883" y="0" type="line"/>
			<point x="1185" y="0" type="line"/>
			<point x="1185" y="1194" type="line"/>
			<point x="883" y="1194" type="line"/>
		</contour>
		<contour>
			<point x="768" y="1085" type="line"/>
			<point x="1173" y="1085" type="line"/>
			<point x="1173" y="1329" type="line"/>
			<point x="753" y="1329" type="line"/>
		</contour>
		<contour>
			<point x="1041" y="1196" type="line"/>
			<point x="1041" y="686" type="line"/>
			<point x="1185" y="686" type="line"/>
			<point x="1185" y="1196" type="line"/>
		</contour>
		<contour>
			<point x="1041" y="1085" type="line"/>
			<point x="1315" y="1085" type="line"/>
			<point x="1300" y="1329" type="line"/>
			<point x="1041" y="1329" type="line"/>
		</contour>
	</outline>
</glyph>
<glyph name="SignAu.bn" format="2">
  <advance width="1301"/>
  <unicode hex="09CC"/>
  <anchor x="99" y="1543" name="top"/>
  <anchor x="359" y="1618" name="top2"/>
  <outline>
    <contour>
      <point x="665" y="1329" type="line"/>
      <point x="665" y="1085" type="line"/>
      <point x="844" y="1085" type="line"/>
      <point x="844" y="1329" type="line"/>
    </contour>
    <contour>
      <point x="588" y="1117" type="curve"/>
      <point x="392" y="1202" type="line"/>
      <point x="188" y="1127"/>
      <point x="83" y="971"/>
      <point x="83" y="653" type="curve" smooth="yes"/>
      <point x="83" y="508" type="line" smooth="yes"/>
      <point x="83" y="252"/>
      <point x="205" y="-4"/>
      <point x="496" y="-44" type="curve" smooth="yes"/>
      <point x="540" y="-50" type="line"/>
      <point x="563" y="217" type="line"/>
      <point x="545" y="223" type="line" smooth="yes"/>
      <point x="447" y="256"/>
      <point x="386" y="315"/>
      <point x="386" y="510" type="curve" smooth="yes"/>
      <point x="386" y="660" type="line" smooth="yes"/>
      <point x="386" y="934"/>
      <point x="471" y="1060"/>
    </contour>
    <contour>
      <point x="-29" y="1085" type="line"/>
      <point x="759" y="1085" type="line"/>
      <point x="744" y="1329" type="line"/>
      <point x="-44" y="1329" type="line"/>
    </contour>
    <contour>
      <point x="913" y="0" type="line"/>
      <point x="1215" y="0" type="line"/>
      <point x="1215" y="1194" type="line"/>
      <point x="913" y="1194" type="line"/>
    </contour>
    <contour>
      <point x="798" y="1085" type="line"/>
      <point x="1203" y="1085" type="line"/>
      <point x="1203" y="1329" type="line"/>
      <point x="783" y="1329" type="line"/>
    </contour>
    <contour>
      <point x="1071" y="1196" type="line"/>
      <point x="1071" y="686" type="line"/>
      <point x="1215" y="686" type="line"/>
      <point x="1215" y="1196" type="line"/>
    </contour>
    <contour>
      <point x="1071" y="1085" type="line"/>
      <point x="1345" y="1085" type="line"/>
      <point x="1330" y="1329" type="line"/>
      <point x="1071" y="1329" type="line"/>
    </contour>
    <contour>
      <point x="606" y="1397" type="line"/>
      <point x="606" y="1405"/>
      <point x="606" y="1412"/>
      <point x="606" y="1420" type="curve" smooth="yes"/>
      <point x="606" y="1640"/>
      <point x="468" y="1696"/>
      <point x="230" y="1696" type="curve" smooth="yes"/>
      <point x="225" y="1696" type="line" smooth="yes"/>
      <point x="135" y="1696"/>
      <point x="87" y="1725"/>
      <point x="82" y="1791" type="curve" smooth="yes"/>
      <point x="80" y="1817" type="line"/>
      <point x="-182" y="1817" type="line"/>
      <point x="-182" y="1772" type="line" smooth="yes"/>
      <point x="-182" y="1558"/>
      <point x="-57" y="1452"/>
      <point x="187" y="1452" type="curve" smooth="yes"/>
      <point x="196" y="1452" type="line" smooth="yes"/>
      <point x="292" y="1452"/>
      <point x="330" y="1436"/>
      <point x="330" y="1372" type="curve" smooth="yes"/>
      <point x="330" y="1338"/>
      <point x="321" y="1304"/>
      <point x="309" y="1281" type="curve"/>
      <point x="396" y="1311" type="line"/>
    </contour>
  </outline>
</glyph>
<glyph name="Hasant.bn" format="2">
  <unicode hex="09CD"/>
  <anchor x="-67" y="21" name="_bottom1"/>
  <outline>
    <contour>
      <point x="486" y="-333" type="line"/>
      <point x="15" y="-45" type="line"/>
      <point x="0" y="-354" type="line"/>
      <point x="471" y="-616" type="line"/>
    </contour>
  </outline>
</glyph>
<glyph name="KhandaTa.bn" format="2">
	<advance width="900"/>
	<unicode hex="09CE"/>
	<anchor x="52" y="-10" name="mark0"/>
	<outline>
		<contour>
			<point x="547" y="-2" type="curve"/>
			<point x="849" y="-2" type="line"/>
			<point x="849" y="21"/>
			<point x="849" y="42"/>
			<point x="849" y="65" type="curve" smooth="yes"/>
			<point x="849" y="238"/>
			<point x="771" y="426"/>
			<point x="550" y="512" type="curve" smooth="yes"/>
			<point x="496" y="533" type="line" smooth="yes"/>
			<point x="397" y="572"/>
			<point x="369" y="640"/>
			<point x="369" y="751" type="curve" smooth="yes"/>
			<point x="369" y="977" type="line" smooth="yes"/>
			<point x="369" y="1055"/>
			<point x="395" y="1092"/>
			<point x="445" y="1092" type="curve" smooth="yes"/>
			<point x="495" y="1092"/>
			<point x="518" y="1055"/>
			<point x="518" y="977" type="curve" smooth="yes"/>
			<point x="518" y="845" type="line" smooth="yes"/>
			<point x="518" y="807"/>
			<point x="504" y="789"/>
			<point x="475" y="789" type="curve" smooth="yes"/>
			<point x="450" y="789" type="line"/>
			<point x="465" y="532" type="line"/>
			<point x="562" y="532" type="line" smooth="yes"/>
			<point x="736" y="532"/>
			<point x="821" y="636"/>
			<point x="821" y="849" type="curve" smooth="yes"/>
			<point x="821" y="959" type="line" smooth="yes"/>
			<point x="821" y="1226"/>
			<point x="697" y="1356"/>
			<point x="444" y="1356" type="curve" smooth="yes"/>
			<point x="191" y="1356"/>
			<point x="67" y="1226"/>
			<point x="67" y="959" type="curve" smooth="yes"/>
			<point x="67" y="751" type="line" smooth="yes"/>
			<point x="67" y="544"/>
			<point x="126" y="411"/>
			<point x="366" y="295" type="curve" smooth="yes"/>
			<point x="420" y="269" type="line" smooth="yes"/>
			<point x="511" y="225"/>
			<point x="547" y="147"/>
			<point x="547" y="65" type="curve" smooth="yes"/>
			<point x="547" y="42"/>
			<point x="547" y="21"/>
		</contour>
	</outline>
</glyph>
<glyph name="SignAuMark.bn" format="2">
	<advance width="474"/>
	<unicode hex="09D7"/>
	<anchor x="-92" y="1543" name="top"/>
	<anchor x="168" y="1618" name="top2"/>
	<outline>
		<contour>
			<point x="86" y="0" type="line"/>
			<point x="388" y="0" type="line"/>
			<point x="388" y="1194" type="line"/>
			<point x="86" y="1194" type="line"/>
		</contour>
		<contour>
			<point x="-29" y="1085" type="line"/>
			<point x="376" y="1085" type="line"/>
			<point x="376" y="1329" type="line"/>
			<point x="-44" y="1329" type="line"/>
		</contour>
		<contour>
			<point x="244" y="1196" type="line"/>
			<point x="244" y="686" type="line"/>
			<point x="388" y="686" type="line"/>
			<point x="388" y="1196" type="line"/>
		</contour>
		<contour>
			<point x="244" y="1085" type="line"/>
			<point x="518" y="1085" type="line"/>
			<point x="503" y="1329" type="line"/>
			<point x="244" y="1329" type="line"/>
		</contour>
		<contour>
			<point x="415" y="1397" type="line"/>
			<point x="415" y="1405"/>
			<point x="415" y="1412"/>
			<point x="415" y="1420" type="curve" smooth="yes"/>
			<point x="415" y="1640"/>
			<point x="277" y="1696"/>
			<point x="39" y="1696" type="curve" smooth="yes"/>
			<point x="34" y="1696" type="line" smooth="yes"/>
			<point x="-56" y="1696"/>
			<point x="-104" y="1725"/>
			<point x="-109" y="1791" type="curve" smooth="yes"/>
			<point x="-111" y="1817" type="line"/>
			<point x="-373" y="1817" type="line"/>
			<point x="-373" y="1772" type="line" smooth="yes"/>
			<point x="-373" y="1558"/>
			<point x="-248" y="1452"/>
			<point x="-4" y="1452" type="curve" smooth="yes"/>
			<point x="5" y="1452" type="line" smooth="yes"/>
			<point x="101" y="1452"/>
			<point x="139" y="1436"/>
			<point x="139" y="1372" type="curve" smooth="yes"/>
			<point x="139" y="1338"/>
			<point x="130" y="1304"/>
			<point x="118" y="1281" type="curve"/>
			<point x="205" y="1311" type="line"/>
		</contour>
	</outline>
</glyph>
<glyph name="Rra.bn" format="2">
	<advance width="1197"/>
	<unicode hex="09DC"/>
	<anchor x="871" y="189" name="bottom1"/>
	<anchor x="425" y="1468" name="top"/>
	<anchor x="303" y="1763" name="top2"/>
	<outline>
		<contour>
			<point x="373" y="530" type="curve" smooth="yes"/>
			<point x="346" y="953" type="line"/>
			<point x="55" y="953" type="line"/>
			<point x="78" y="504" type="line" smooth="yes"/>
			<point x="95" y="177"/>
			<point x="288" y="0"/>
			<point x="624" y="0" type="curve" smooth="yes"/>
			<point x="969" y="0"/>
			<point x="1150" y="176"/>
			<point x="1150" y="506" type="curve" smooth="yes"/>
			<point x="1150" y="603"/>
			<point x="1148" y="701"/>
			<point x="1127" y="912" type="curve"/>
			<point x="885" y="923" type="line"/>
			<point x="866" y="849" type="line" smooth="yes"/>
			<point x="849" y="782"/>
			<point x="830" y="752"/>
			<point x="795" y="752" type="curve" smooth="yes"/>
			<point x="761" y="752"/>
			<point x="747" y="768"/>
			<point x="747" y="825" type="curve" smooth="yes"/>
			<point x="747" y="1251" type="line"/>
			<point x="451" y="1251" type="line"/>
			<point x="451" y="789" type="line" smooth="yes"/>
			<point x="451" y="594"/>
			<point x="543" y="492"/>
			<point x="717" y="492" type="curve" smooth="yes"/>
			<point x="841" y="492"/>
			<point x="922" y="580"/>
			<point x="959" y="685" type="curve" smooth="yes"/>
			<point x="1008" y="825" type="line"/>
			<point x="849" y="677" type="line"/>
			<point x="849" y="623"/>
			<point x="849" y="564"/>
			<point x="849" y="506" type="curve" smooth="yes"/>
			<point x="849" y="358"/>
			<point x="772" y="278"/>
			<point x="617" y="278" type="curve" smooth="yes"/>
			<point x="468" y="278"/>
			<point x="383" y="367"/>
		</contour>
		<contour>
			<point x="-59" y="1085" type="line"/>
			<point x="1297" y="1085" type="line"/>
			<point x="1282" y="1329" type="line"/>
			<point x="-74" y="1329" type="line"/>
		</contour>
		<contour>
			<point x="624" y="-425" type="curve" smooth="yes"/>
			<point x="725" y="-425"/>
			<point x="771" y="-362"/>
			<point x="771" y="-260" type="curve" smooth="yes"/>
			<point x="771" y="-254" type="line" smooth="yes"/>
			<point x="771" y="-152"/>
			<point x="725" y="-89"/>
			<point x="624" y="-89" type="curve" smooth="yes"/>
			<point x="523" y="-89"/>
			<point x="477" y="-152"/>
			<point x="477" y="-254" type="curve" smooth="yes"/>
			<point x="477" y="-260" type="line" smooth="yes"/>
			<point x="477" y="-362"/>
			<point x="523" y="-425"/>
		</contour>
	</outline>
</glyph>
<glyph name="Yya.bn" format="2">
  <advance width="1026"/>
  <unicode hex="09DF"/>
  <anchor x="940" y="-2" name="bottom1"/>
  <anchor x="608" y="1468" name="top"/>
  <anchor x="496" y="1763" name="top2"/>
  <outline>
    <contour>
      <point x="310" y="-234" type="curve" smooth="yes"/>
      <point x="411" y="-234"/>
      <point x="457" y="-171"/>
      <point x="457" y="-69" type="curve" smooth="yes"/>
      <point x="457" y="-63" type="line" smooth="yes"/>
      <point x="457" y="39"/>
      <point x="411" y="102"/>
      <point x="310" y="102" type="curve" smooth="yes"/>
      <point x="209" y="102"/>
      <point x="163" y="39"/>
      <point x="163" y="-63" type="curve" smooth="yes"/>
      <point x="163" y="-69" type="line" smooth="yes"/>
      <point x="163" y="-171"/>
      <point x="209" y="-234"/>
    </contour>
    <contour>
      <point x="679" y="-2" type="line"/>
      <point x="940" y="-2" type="line"/>
      <point x="940" y="1238" type="line"/>
      <point x="640" y="1238" type="line"/>
      <point x="640" y="499" type="line"/>
      <point x="653" y="229" type="line"/>
      <point x="680" y="285" type="line"/>
      <point x="361" y="464" type="line"/>
      <point x="384" y="341" type="line"/>
      <point x="384" y="584" type="line"/>
      <point x="349" y="492" type="line"/>
      <point x="526" y="637" type="line"/>
      <point x="526" y="866" type="line"/>
      <point x="381" y="1038"/>
      <point x="271" y="1153"/>
      <point x="167" y="1259" type="curve"/>
      <point x="39" y="1251" type="line"/>
      <point x="39" y="922" type="line"/>
      <point x="248" y="797" type="line"/>
      <point x="248" y="779" type="line"/>
      <point x="84" y="649" type="line"/>
      <point x="84" y="316" type="line"/>
    </contour>
    <contour>
      <point x="-73" y="1085" type="line"/>
      <point x="931" y="1085" type="line"/>
      <point x="931" y="1329" type="line"/>
      <point x="-88" y="1329" type="line"/>
    </contour>
    <contour>
      <point x="796" y="1196" type="line"/>
      <point x="796" y="686" type="line"/>
      <point x="940" y="686" type="line"/>
      <point x="940" y="1196" type="line"/>
    </contour>
    <contour>
      <point x="796" y="1085" type="line"/>
      <point x="1070" y="1085" type="line"/>
      <point x="1055" y="1329" type="line"/>
      <point x="796" y="1329" type="line"/>
    </contour>
  </outline>
</glyph>
<glyph name="VowelRuu.bn" format="2">
  <advance width="1428"/>
  <unicode hex="09E0"/>
  <anchor x="448" y="1763" name="top2"/>
  <outline>
    <contour>
      <point x="731" y="-428" type="line"/>
      <point x="754" y="-189" type="line"/>
      <point x="416" y="-23" type="line"/>
      <point x="416" y="-13" type="line"/>
      <point x="473" y="13"/>
      <point x="545" y="46"/>
      <point x="608" y="72" type="curve"/>
      <point x="512" y="292" type="line"/>
      <point x="365" y="223"/>
      <point x="218" y="152"/>
      <point x="124" y="98" type="curve"/>
      <point x="124" y="-134" type="line"/>
    </contour>
    <contour>
      <point x="643" y="-2" type="line"/>
      <point x="903" y="-2" type="line"/>
      <point x="903" y="1329" type="line"/>
      <point x="632" y="1329" type="line"/>
      <point x="632" y="1161" type="line"/>
      <point x="650" y="845" type="line"/>
      <point x="603" y="769" type="line"/>
      <point x="603" y="499" type="line"/>
      <point x="617" y="232" type="line"/>
      <point x="638" y="281" type="line"/>
      <point x="332" y="489" type="line"/>
      <point x="399" y="310" type="line"/>
      <point x="399" y="629" type="line"/>
      <point x="291" y="494" type="line"/>
      <point x="421" y="573"/>
      <point x="570" y="657"/>
      <point x="745" y="746" type="curve"/>
      <point x="660" y="979" type="line"/>
      <point x="611" y="954"/>
      <point x="562" y="930"/>
      <point x="514" y="905" type="curve"/>
      <point x="495" y="915" type="line"/>
      <point x="350" y="838"/>
      <point x="215" y="762"/>
      <point x="100" y="694" type="curve"/>
      <point x="100" y="323" type="line"/>
    </contour>
    <contour>
      <point x="415" y="808" type="curve"/>
      <point x="626" y="892" type="line"/>
      <point x="590" y="1031"/>
      <point x="553" y="1180"/>
      <point x="510" y="1327" type="curve"/>
      <point x="324" y="1327" type="line"/>
      <point x="312" y="1146" type="line" smooth="yes"/>
      <point x="309" y="1108"/>
      <point x="288" y="1094"/>
      <point x="269" y="1094" type="curve" smooth="yes"/>
      <point x="238" y="1094"/>
      <point x="223" y="1112"/>
      <point x="222" y="1151" type="curve" smooth="yes"/>
      <point x="218" y="1329" type="line"/>
      <point x="-21" y="1329" type="line"/>
      <point x="-21" y="1133" type="line" smooth="yes"/>
      <point x="-21" y="957"/>
      <point x="63" y="870"/>
      <point x="222" y="870" type="curve" smooth="yes"/>
      <point x="341" y="870"/>
      <point x="420" y="948"/>
      <point x="449" y="1080" type="curve" smooth="yes"/>
      <point x="479" y="1218" type="line"/>
      <point x="351" y="1047" type="line"/>
      <point x="378" y="944"/>
      <point x="391" y="889"/>
    </contour>
    <contour>
      <point x="1080" y="108" type="line"/>
      <point x="1330" y="108" type="line"/>
      <point x="1330" y="1329" type="line"/>
      <point x="1040" y="1329" type="line"/>
      <point x="1040" y="609" type="line"/>
      <point x="1053" y="340" type="line"/>
      <point x="1068" y="392" type="line"/>
      <point x="792" y="582" type="line"/>
      <point x="709" y="345" type="line"/>
    </contour>
  </outline>
</glyph>
<glyph name="VowelLruu.bn" format="2">
	<advance width="1241"/>
	<unicode hex="09E1"/>
	<anchor x="552" y="1545" name="top2"/>
	<outline>
		<contour>
			<point x="834" y="195" type="curve"/>
			<point x="684" y="6" type="line"/>
			<point x="875" y="-52"/>
			<point x="919" y="-140"/>
			<point x="919" y="-261" type="curve" smooth="yes"/>
			<point x="919" y="-304" type="line" smooth="yes"/>
			<point x="919" y="-387"/>
			<point x="889" y="-401"/>
			<point x="836" y="-401" type="curve" smooth="yes"/>
			<point x="803" y="-401" type="line"/>
			<point x="858" y="-495" type="line"/>
			<point x="858" y="-389" type="line" smooth="yes"/>
			<point x="858" y="-177"/>
			<point x="741" y="-66"/>
			<point x="557" y="-66" type="curve" smooth="yes"/>
			<point x="370" y="-66"/>
			<point x="267" y="-178"/>
			<point x="267" y="-388" type="curve" smooth="yes"/>
			<point x="267" y="-484" type="line" smooth="yes"/>
			<point x="267" y="-538"/>
			<point x="267" y="-592"/>
			<point x="267" y="-627" type="curve"/>
			<point x="520" y="-627" type="line"/>
			<point x="520" y="-598"/>
			<point x="520" y="-535"/>
			<point x="520" y="-480" type="curve" smooth="yes"/>
			<point x="520" y="-383" type="line" smooth="yes"/>
			<point x="520" y="-323"/>
			<point x="539" y="-307"/>
			<point x="569" y="-307" type="curve" smooth="yes"/>
			<point x="597" y="-307"/>
			<point x="619" y="-322"/>
			<point x="619" y="-382" type="curve" smooth="yes"/>
			<point x="619" y="-627" type="line"/>
			<point x="833" y="-627" type="line" smooth="yes"/>
			<point x="1069" y="-627"/>
			<point x="1194" y="-502"/>
			<point x="1194" y="-313" type="curve" smooth="yes"/>
			<point x="1194" y="-238" type="line" smooth="yes"/>
			<point x="1194" y="-48"/>
			<point x="1132" y="91"/>
		</contour>
		<contour>
			<point x="61" y="0" type="curve"/>
			<point x="358" y="0" type="line"/>
			<point x="358" y="47"/>
			<point x="358" y="132"/>
			<point x="358" y="206" type="curve" smooth="yes"/>
			<point x="358" y="392" type="line" smooth="yes"/>
			<point x="358" y="457"/>
			<point x="379" y="478"/>
			<point x="418" y="478" type="curve" smooth="yes"/>
			<point x="453" y="478"/>
			<point x="477" y="457"/>
			<point x="477" y="392" type="curve" smooth="yes"/>
			<point x="477" y="0" type="line"/>
			<point x="739" y="0" type="line" smooth="yes"/>
			<point x="1015" y="0"/>
			<point x="1163" y="151"/>
			<point x="1163" y="390" type="curve" smooth="yes"/>
			<point x="1163" y="485" type="line" smooth="yes"/>
			<point x="1163" y="806"/>
			<point x="1045" y="964"/>
			<point x="714" y="1085" type="curve" smooth="yes"/>
			<point x="643" y="1111" type="line" smooth="yes"/>
			<point x="409" y="1197"/>
			<point x="397" y="1242"/>
			<point x="391" y="1331" type="curve" smooth="yes"/>
			<point x="390" y="1345" type="line"/>
			<point x="110" y="1345" type="line"/>
			<point x="110" y="1323" type="line" smooth="yes"/>
			<point x="110" y="1142"/>
			<point x="161" y="1005"/>
			<point x="475" y="893" type="curve" smooth="yes"/>
			<point x="545" y="868" type="line" smooth="yes"/>
			<point x="800" y="777"/>
			<point x="863" y="701"/>
			<point x="863" y="481" type="curve" smooth="yes"/>
			<point x="863" y="400" type="line" smooth="yes"/>
			<point x="863" y="281"/>
			<point x="818" y="249"/>
			<point x="741" y="249" type="curve" smooth="yes"/>
			<point x="698" y="249" type="line"/>
			<point x="760" y="153" type="line"/>
			<point x="760" y="384" type="line" smooth="yes"/>
			<point x="760" y="619"/>
			<point x="624" y="743"/>
			<point x="404" y="743" type="curve" smooth="yes"/>
			<point x="180" y="743"/>
			<point x="61" y="619"/>
			<point x="61" y="388" type="curve" smooth="yes"/>
			<point x="61" y="206" type="line" smooth="yes"/>
			<point x="61" y="129"/>
			<point x="61" y="55"/>
		</contour>
	</outline>
</glyph>
<glyph name="SignLru.bn" format="2">
  <advance width="937"/>
  <unicode hex="09E2"/>
  <outline>
    <contour>
      <point x="244" y="-757" type="curve"/>
      <point x="430" y="-757" type="line"/>
      <point x="430" y="-730"/>
      <point x="430" y="-679"/>
      <point x="430" y="-634" type="curve" smooth="yes"/>
      <point x="430" y="-520" type="line" smooth="yes"/>
      <point x="430" y="-485"/>
      <point x="441" y="-474"/>
      <point x="460" y="-474" type="curve" smooth="yes"/>
      <point x="478" y="-474"/>
      <point x="490" y="-485"/>
      <point x="490" y="-520" type="curve" smooth="yes"/>
      <point x="490" y="-757" type="line"/>
      <point x="652" y="-757" type="line" smooth="yes"/>
      <point x="819" y="-757"/>
      <point x="908" y="-665"/>
      <point x="908" y="-521" type="curve" smooth="yes"/>
      <point x="908" y="-467" type="line" smooth="yes"/>
      <point x="908" y="-266"/>
      <point x="833" y="-174"/>
      <point x="639" y="-102" type="curve" smooth="yes"/>
      <point x="601" y="-88" type="line" smooth="yes"/>
      <point x="458" y="-34"/>
      <point x="454" y="-8"/>
      <point x="450" y="45" type="curve" smooth="yes"/>
      <point x="449" y="53" type="line"/>
      <point x="273" y="53" type="line"/>
      <point x="273" y="40" type="line" smooth="yes"/>
      <point x="273" y="-68"/>
      <point x="302" y="-151"/>
      <point x="495" y="-224" type="curve" smooth="yes"/>
      <point x="532" y="-238" type="line" smooth="yes"/>
      <point x="684" y="-294"/>
      <point x="720" y="-338"/>
      <point x="720" y="-469" type="curve" smooth="yes"/>
      <point x="720" y="-515" type="line" smooth="yes"/>
      <point x="720" y="-584"/>
      <point x="695" y="-601"/>
      <point x="654" y="-601" type="curve" smooth="yes"/>
      <point x="629" y="-601" type="line"/>
      <point x="667" y="-661" type="line"/>
      <point x="667" y="-525" type="line" smooth="yes"/>
      <point x="667" y="-384"/>
      <point x="585" y="-308"/>
      <point x="452" y="-308" type="curve" smooth="yes"/>
      <point x="317" y="-308"/>
      <point x="244" y="-383"/>
      <point x="244" y="-522" type="curve" smooth="yes"/>
      <point x="244" y="-634" type="line" smooth="yes"/>
      <point x="244" y="-681"/>
      <point x="244" y="-725"/>
    </contour>
  </outline>
</glyph>
<glyph name="SignLruu.bn" format="2">
	<advance width="937"/>
	<unicode hex="09E3"/>
	<anchor x="458" y="-176" name="top2"/>
	<outline>
		<contour>
			<point x="709" y="-635" type="curve"/>
			<point x="616" y="-754" type="line"/>
			<point x="730" y="-789"/>
			<point x="755" y="-843"/>
			<point x="755" y="-913" type="curve" smooth="yes"/>
			<point x="755" y="-936" type="line" smooth="yes"/>
			<point x="755" y="-984"/>
			<point x="739" y="-991"/>
			<point x="711" y="-991" type="curve" smooth="yes"/>
			<point x="693" y="-991" type="line"/>
			<point x="726" y="-1049" type="line"/>
			<point x="726" y="-989" type="line" smooth="yes"/>
			<point x="726" y="-861"/>
			<point x="655" y="-793"/>
			<point x="544" y="-793" type="curve" smooth="yes"/>
			<point x="431" y="-793"/>
			<point x="369" y="-862"/>
			<point x="369" y="-989" type="curve" smooth="yes"/>
			<point x="369" y="-1047" type="line" smooth="yes"/>
			<point x="369" y="-1080"/>
			<point x="369" y="-1112"/>
			<point x="369" y="-1133" type="curve"/>
			<point x="527" y="-1133" type="line"/>
			<point x="527" y="-1116"/>
			<point x="527" y="-1078"/>
			<point x="527" y="-1045" type="curve" smooth="yes"/>
			<point x="527" y="-986" type="line" smooth="yes"/>
			<point x="527" y="-953"/>
			<point x="537" y="-945"/>
			<point x="552" y="-945" type="curve" smooth="yes"/>
			<point x="565" y="-945"/>
			<point x="577" y="-952"/>
			<point x="577" y="-985" type="curve" smooth="yes"/>
			<point x="577" y="-1133" type="line"/>
			<point x="709" y="-1133" type="line" smooth="yes"/>
			<point x="852" y="-1133"/>
			<point x="927" y="-1056"/>
			<point x="927" y="-942" type="curve" smooth="yes"/>
			<point x="927" y="-899" type="line" smooth="yes"/>
			<point x="927" y="-784"/>
			<point x="891" y="-700"/>
		</contour>
		<contour>
			<point x="244" y="-757" type="curve"/>
			<point x="430" y="-757" type="line"/>
			<point x="430" y="-730"/>
			<point x="430" y="-679"/>
			<point x="430" y="-634" type="curve" smooth="yes"/>
			<point x="430" y="-520" type="line" smooth="yes"/>
			<point x="430" y="-485"/>
			<point x="441" y="-474"/>
			<point x="460" y="-474" type="curve" smooth="yes"/>
			<point x="478" y="-474"/>
			<point x="490" y="-485"/>
			<point x="490" y="-520" type="curve" smooth="yes"/>
			<point x="490" y="-757" type="line"/>
			<point x="652" y="-757" type="line" smooth="yes"/>
			<point x="819" y="-757"/>
			<point x="908" y="-665"/>
			<point x="908" y="-521" type="curve" smooth="yes"/>
			<point x="908" y="-467" type="line" smooth="yes"/>
			<point x="908" y="-266"/>
			<point x="833" y="-174"/>
			<point x="639" y="-102" type="curve" smooth="yes"/>
			<point x="601" y="-88" type="line" smooth="yes"/>
			<point x="458" y="-34"/>
			<point x="454" y="-8"/>
			<point x="450" y="45" type="curve" smooth="yes"/>
			<point x="449" y="53" type="line"/>
			<point x="273" y="53" type="line"/>
			<point x="273" y="40" type="line" smooth="yes"/>
			<point x="273" y="-68"/>
			<point x="302" y="-151"/>
			<point x="495" y="-224" type="curve" smooth="yes"/>
			<point x="532" y="-238" type="line" smooth="yes"/>
			<point x="684" y="-294"/>
			<point x="720" y="-338"/>
			<point x="720" y="-469" type="curve" smooth="yes"/>
			<point x="720" y="-515" type="line" smooth="yes"/>
			<point x="720" y="-584"/>
			<point x="695" y="-601"/>
			<point x="654" y="-601" type="curve" smooth="yes"/>
			<point x="629" y="-601" type="line"/>
			<point x="667" y="-661" type="line"/>
			<point x="667" y="-525" type="line" smooth="yes"/>
			<point x="667" y="-384"/>
			<point x="585" y="-308"/>
			<point x="452" y="-308" type="curve" smooth="yes"/>
			<point x="317" y="-308"/>
			<point x="244" y="-383"/>
			<point x="244" y="-522" type="curve" smooth="yes"/>
			<point x="244" y="-634" type="line" smooth="yes"/>
			<point x="244" y="-681"/>
			<point x="244" y="-725"/>
		</contour>
	</outline>
</glyph>
<glyph name="Zero.bn" format="2">
  <advance width="943"/>
  <unicode hex="09E6"/>
  <outline>
    <contour>
      <point x="474" y="0" type="curve" smooth="yes"/>
      <point x="721" y="0"/>
      <point x="863" y="130"/>
      <point x="863" y="425" type="curve" smooth="yes"/>
      <point x="863" y="923" type="line" smooth="yes"/>
      <point x="863" y="1212"/>
      <point x="721" y="1347"/>
      <point x="470" y="1347" type="curve" smooth="yes"/>
      <point x="220" y="1347"/>
      <point x="80" y="1214"/>
      <point x="80" y="923" type="curve" smooth="yes"/>
      <point x="80" y="425" type="line" smooth="yes"/>
      <point x="80" y="128"/>
      <point x="224" y="0"/>
    </contour>
    <contour>
      <point x="472" y="266" type="curve" smooth="yes"/>
      <point x="414" y="266"/>
      <point x="382" y="301"/>
      <point x="382" y="401" type="curve" smooth="yes"/>
      <point x="382" y="945" type="line" smooth="yes"/>
      <point x="382" y="1042"/>
      <point x="414" y="1080"/>
      <point x="472" y="1080" type="curve" smooth="yes"/>
      <point x="527" y="1080"/>
      <point x="561" y="1044"/>
      <point x="561" y="945" type="curve" smooth="yes"/>
      <point x="561" y="401" type="line" smooth="yes"/>
      <point x="561" y="299"/>
      <point x="527" y="266"/>
    </contour>
  </outline>
</glyph>
<glyph name="One.bn" format="2">
  <advance width="899"/>
  <unicode hex="09E7"/>
  <outline>
    <contour>
      <point x="833" y="512" type="line" smooth="yes"/>
      <point x="833" y="702"/>
      <point x="770" y="830"/>
      <point x="642" y="946" type="curve" smooth="yes"/>
      <point x="524" y="1053" type="line" smooth="yes"/>
      <point x="361" y="1201"/>
      <point x="340" y="1242"/>
      <point x="335" y="1330" type="curve" smooth="yes"/>
      <point x="334" y="1347" type="line"/>
      <point x="54" y="1347" type="line"/>
      <point x="54" y="1323" type="line" smooth="yes"/>
      <point x="54" y="1139"/>
      <point x="138" y="1040"/>
      <point x="306" y="883" type="curve" smooth="yes"/>
      <point x="414" y="781" type="line" smooth="yes"/>
      <point x="493" y="705"/>
      <point x="531" y="625"/>
      <point x="531" y="492" type="curve" smooth="yes"/>
      <point x="531" y="401" type="line" smooth="yes"/>
      <point x="531" y="307"/>
      <point x="501" y="266"/>
      <point x="443" y="266" type="curve" smooth="yes"/>
      <point x="386" y="266"/>
      <point x="356" y="304"/>
      <point x="356" y="401" type="curve" smooth="yes"/>
      <point x="356" y="485"/>
      <point x="356" y="566"/>
      <point x="356" y="646" type="curve"/>
      <point x="56" y="646" type="line"/>
      <point x="56" y="575"/>
      <point x="56" y="506"/>
      <point x="56" y="434" type="curve" smooth="yes"/>
      <point x="56" y="127"/>
      <point x="200" y="0"/>
      <point x="446" y="0" type="curve" smooth="yes"/>
      <point x="692" y="0"/>
      <point x="833" y="129"/>
      <point x="833" y="434" type="curve" smooth="yes"/>
    </contour>
  </outline>
</glyph>
<glyph name="Two.bn" format="2">
  <advance width="861"/>
  <unicode hex="09E8"/>
  <outline>
    <contour>
      <point x="844" y="-119" type="line"/>
      <point x="866" y="182" type="line"/>
      <point x="596" y="322" type="line"/>
      <point x="462" y="387" type="line"/>
      <point x="513" y="319" type="line"/>
      <point x="513" y="480" type="line"/>
      <point x="333" y="442" type="line"/>
      <point x="365" y="388"/>
      <point x="430" y="369"/>
      <point x="464" y="369" type="curve" smooth="yes"/>
      <point x="667" y="369"/>
      <point x="782" y="448"/>
      <point x="782" y="629" type="curve" smooth="yes"/>
      <point x="782" y="675" type="line" smooth="yes"/>
      <point x="782" y="847"/>
      <point x="668" y="950"/>
      <point x="507" y="1057" type="curve" smooth="yes"/>
      <point x="441" y="1101" type="line" smooth="yes"/>
      <point x="292" y="1200"/>
      <point x="292" y="1261"/>
      <point x="292" y="1329" type="curve" smooth="yes"/>
      <point x="292" y="1347" type="line"/>
      <point x="10" y="1347" type="line"/>
      <point x="10" y="1322" type="line" smooth="yes"/>
      <point x="10" y="1107"/>
      <point x="109" y="997"/>
      <point x="248" y="914" type="curve" smooth="yes"/>
      <point x="315" y="874" type="line" smooth="yes"/>
      <point x="411" y="817"/>
      <point x="475" y="773"/>
      <point x="475" y="694" type="curve" smooth="yes"/>
      <point x="475" y="669" type="line" smooth="yes"/>
      <point x="475" y="584"/>
      <point x="421" y="550"/>
      <point x="339" y="550" type="curve" smooth="yes"/>
      <point x="276" y="550"/>
      <point x="189" y="592"/>
      <point x="107" y="633" type="curve" smooth="yes"/>
      <point x="69" y="652" type="line"/>
      <point x="54" y="345" type="line"/>
    </contour>
  </outline>
</glyph>
<glyph name="Three.bn" format="2">
  <advance width="1273"/>
  <unicode hex="09E9"/>
  <outline>
    <contour>
      <point x="662" y="-1" type="curve" smooth="yes"/>
      <point x="1006" y="-1"/>
      <point x="1192" y="160"/>
      <point x="1192" y="462" type="curve" smooth="yes"/>
      <point x="1192" y="975" type="line" smooth="yes"/>
      <point x="1192" y="1215"/>
      <point x="1065" y="1338"/>
      <point x="829" y="1338" type="curve" smooth="yes"/>
      <point x="600" y="1338"/>
      <point x="479" y="1215"/>
      <point x="479" y="975" type="curve" smooth="yes"/>
      <point x="479" y="878"/>
      <point x="479" y="766"/>
      <point x="479" y="653" type="curve"/>
      <point x="774" y="653" type="line"/>
      <point x="774" y="772"/>
      <point x="774" y="884"/>
      <point x="774" y="1009" type="curve" smooth="yes"/>
      <point x="774" y="1059"/>
      <point x="794" y="1085"/>
      <point x="831" y="1085" type="curve" smooth="yes"/>
      <point x="868" y="1085"/>
      <point x="887" y="1059"/>
      <point x="887" y="1009" type="curve" smooth="yes"/>
      <point x="887" y="468" type="line" smooth="yes"/>
      <point x="887" y="326"/>
      <point x="808" y="254"/>
      <point x="662" y="254" type="curve" smooth="yes"/>
      <point x="488" y="254"/>
      <point x="383" y="352"/>
      <point x="373" y="526" type="curve" smooth="yes"/>
      <point x="349" y="1162" type="line"/>
      <point x="59" y="1162" type="line"/>
      <point x="84" y="500" type="line" smooth="yes"/>
      <point x="101" y="177"/>
      <point x="307" y="-1"/>
    </contour>
  </outline>
</glyph>
<glyph name="Four.bn" format="2">
  <advance width="938"/>
  <unicode hex="09EA"/>
  <outline>
    <contour>
      <point x="469" y="804" type="curve" smooth="yes"/>
      <point x="543" y="804"/>
      <point x="571" y="847"/>
      <point x="571" y="929" type="curve" smooth="yes"/>
      <point x="571" y="1003" type="line" smooth="yes"/>
      <point x="571" y="1076"/>
      <point x="550" y="1130"/>
      <point x="469" y="1130" type="curve" smooth="yes"/>
      <point x="392" y="1130"/>
      <point x="367" y="1081"/>
      <point x="367" y="1003" type="curve" smooth="yes"/>
      <point x="367" y="929" type="line" smooth="yes"/>
      <point x="367" y="849"/>
      <point x="393" y="804"/>
    </contour>
    <contour>
      <point x="441" y="619" type="line"/>
      <point x="253" y="619" type="line"/>
      <point x="253" y="755" type="line"/>
      <point x="441" y="755" type="line"/>
      <point x="394" y="675" type="line"/>
      <point x="170" y="675"/>
      <point x="67" y="772"/>
      <point x="67" y="964" type="curve" smooth="yes"/>
      <point x="67" y="1001" type="line" smooth="yes"/>
      <point x="67" y="1241"/>
      <point x="203" y="1358"/>
      <point x="461" y="1358" type="curve" smooth="yes"/>
      <point x="726" y="1358"/>
      <point x="871" y="1239"/>
      <point x="871" y="1001" type="curve" smooth="yes"/>
      <point x="871" y="964" type="line" smooth="yes"/>
      <point x="871" y="772"/>
      <point x="762" y="675"/>
      <point x="544" y="675" type="curve"/>
      <point x="497" y="755" type="line"/>
      <point x="684" y="755" type="line"/>
      <point x="684" y="619" type="line"/>
      <point x="497" y="619" type="line"/>
      <point x="544" y="704" type="line"/>
      <point x="766" y="704"/>
      <point x="883" y="602"/>
      <point x="883" y="403" type="curve" smooth="yes"/>
      <point x="883" y="328" type="line" smooth="yes"/>
      <point x="883" y="105"/>
      <point x="740" y="-10"/>
      <point x="469" y="-10" type="curve" smooth="yes"/>
      <point x="198" y="-10"/>
      <point x="55" y="105"/>
      <point x="55" y="328" type="curve" smooth="yes"/>
      <point x="55" y="403" type="line" smooth="yes"/>
      <point x="55" y="602"/>
      <point x="166" y="704"/>
      <point x="394" y="704" type="curve"/>
    </contour>
    <contour>
      <point x="469" y="222" type="curve" smooth="yes"/>
      <point x="543" y="222"/>
      <point x="573" y="262"/>
      <point x="573" y="337" type="curve" smooth="yes"/>
      <point x="573" y="464" type="line" smooth="yes"/>
      <point x="573" y="539"/>
      <point x="544" y="579"/>
      <point x="469" y="579" type="curve" smooth="yes"/>
      <point x="394" y="579"/>
      <point x="365" y="539"/>
      <point x="365" y="464" type="curve" smooth="yes"/>
      <point x="365" y="337" type="line" smooth="yes"/>
      <point x="365" y="262"/>
      <point x="395" y="222"/>
    </contour>
  </outline>
</glyph>
